<svg width="220" height="220" viewBox="0 0 220 220" fill="none" xmlns="http://www.w3.org/2000/svg">
<g id="Create Account 2">
<path id="Vector" d="M89.4314 27.1583C99.1576 25.0045 102.06 24.6943 105.201 22.8991C105.233 22.8812 105.26 22.8548 105.278 22.8229C105.297 22.7909 105.306 22.7545 105.305 22.7176C105.305 22.3425 104.813 22.1357 104.567 21.9025C101.323 18.8225 100.662 13.7768 96.8377 11.117C95.8562 10.415 94.6877 10.0216 93.4816 9.98688C92.2754 9.9522 91.0862 10.2779 90.0661 10.9223C88.0805 12.3944 86.7362 14.5728 86.3107 17.0075C85.5264 20.3592 85.6804 23.9177 84.1877 27.0945C84.1683 27.1328 84.1606 27.176 84.1655 27.2186C84.1703 27.2613 84.1876 27.3015 84.215 27.3345C84.2425 27.3675 84.279 27.3917 84.3201 27.4042C84.3612 27.4167 84.405 27.4168 84.4462 27.4047C86.1035 27.725 87.8137 27.6405 89.4314 27.1583Z" fill="#006AE7"/>
<path id="Vector_2" d="M156.208 47.7855C155.218 38.1407 150.917 30.5375 141.615 27.4058C132.485 24.3335 121.65 26.8558 115.552 33.8958C115.028 34.4997 115.903 35.3863 116.432 34.7758C121.672 28.75 130.35 26.3278 138.094 27.7831C147.546 29.5607 152.349 35.4006 154.382 44.4085C160.016 69.3719 130.27 80.8328 117.273 65.4185C113.839 61.3485 111.353 55.865 112.173 50.6191C112.294 49.8425 111.096 49.4916 110.968 50.2825C109.699 58.1937 115.5 67.7406 122.932 71.4025C137.773 78.7098 158.244 67.5382 156.208 47.7855Z" fill="#006AE7"/>
<path id="Vector_3" d="M55.8891 79.7185C60.6587 76.215 66.2753 79.7042 69.5621 83.5773C71.2462 85.6466 72.6802 87.9073 73.8345 90.3126C76.4371 95.4826 76.5097 96.873 77.745 98.0291C77.9122 98.1853 78.2609 98.094 78.2367 97.8223C78.0211 96.7231 77.6319 95.6653 77.0839 94.6884C75.6737 91.2841 73.9622 88.0125 71.97 84.9127C69.561 81.4565 66.0146 77.92 61.6509 77.2996C60.5526 77.091 59.4193 77.1646 58.3571 77.5134C57.2949 77.8622 56.3387 78.4748 55.5778 79.2939C55.3974 79.5117 55.6284 79.911 55.8891 79.7185Z" fill="#191919"/>
<path id="Vector_4" d="M91.328 93.2318C89.9761 92.0053 89.359 91.1748 87.819 91.8337C84.9189 92.9959 82.2014 94.5701 79.7505 96.5076C79.2852 96.897 79.8913 97.6703 80.3984 97.3491C82.8877 95.6531 85.5166 94.1715 88.2568 92.9205C88.4559 92.8359 88.6759 92.8129 88.8882 92.8544C89.1006 92.896 89.2956 93.0003 89.4481 93.1537C90.8807 94.3457 92.1914 95.677 93.3608 97.128C90.7582 100.819 88.0555 104.642 83.9866 106.826C73.7566 112.312 67.3832 101.583 65.0446 99.7438C64.9942 99.6979 64.9292 99.6712 64.8611 99.6684C64.7929 99.6655 64.726 99.6868 64.6719 99.7283C64.6179 99.7699 64.5802 99.8292 64.5654 99.8958C64.5507 99.9624 64.5599 100.032 64.5914 100.093C65.2317 101.214 66.0055 102.253 66.8959 103.188C69.383 106.056 72.4146 108.651 76.1359 109.39C81.12 110.38 85.9259 107.74 89.3172 104.275C91.2973 102.15 93.0907 99.8587 94.6775 97.4261C94.7444 97.3076 94.7717 97.1707 94.7553 97.0355C94.7388 96.9003 94.6796 96.7739 94.5862 96.6748C93.599 95.4375 92.509 94.2857 91.328 93.2318Z" fill="#191919"/>
<path id="Vector_5" d="M97.1798 83.0811C97.1794 83.0238 97.1639 82.9675 97.1351 82.9179C97.1062 82.8684 97.0649 82.8271 97.0153 82.7984C96.9656 82.7696 96.9094 82.7543 96.852 82.7539C96.7946 82.7535 96.7381 82.7681 96.6881 82.7963C96.1821 83.079 96.016 83.6257 95.7564 84.1295C94.1625 87.2095 93.1868 88.1522 92.8304 89.5932C92.782 89.7889 93.0262 90.0332 93.2187 89.8913C94.1805 88.9792 94.9545 87.8876 95.4968 86.6782C97.149 83.7742 97.2326 83.5453 97.1798 83.0811Z" fill="#191919"/>
<path id="Vector_6" d="M100.107 82.1384C99.7753 82.6597 99.5222 83.2267 99.3554 83.8215C98.4786 85.9152 97.4404 87.9376 96.2501 89.8703C96.2203 89.9256 96.2114 89.9897 96.2249 90.051C96.2384 90.1122 96.2735 90.1666 96.3237 90.2042C96.374 90.2418 96.4361 90.2601 96.4987 90.2557C96.5613 90.2514 96.6202 90.2247 96.6648 90.1805C98.1721 88.5506 99.3698 86.6596 100.199 84.6003C100.566 83.9412 100.795 83.2144 100.872 82.4641C100.857 82.0989 100.364 81.8128 100.107 82.1384Z" fill="#191919"/>
<path id="Vector_7" d="M98.3829 91.7027C98.3821 91.744 98.3911 91.7848 98.409 91.822C98.4269 91.8592 98.4533 91.8916 98.486 91.9168C98.5187 91.9419 98.5569 91.959 98.5975 91.9667C98.638 91.9744 98.6798 91.9726 98.7195 91.9612C99.2655 91.7229 99.7197 91.3142 100.014 90.7963C101.487 89.105 102.621 87.1463 103.355 85.0268C103.372 84.959 103.365 84.8873 103.333 84.8247C103.302 84.7621 103.249 84.7129 103.185 84.6862C103.12 84.6594 103.048 84.6569 102.982 84.679C102.915 84.7012 102.859 84.7466 102.824 84.8068C99.5214 90.3486 98.461 90.5675 98.3829 91.7027Z" fill="#191919"/>
<path id="Vector_8" d="M105.049 88.8934C105.104 88.6217 104.753 88.3512 104.544 88.5954C103.479 90.1364 102.176 91.4995 100.686 92.6346C97.7729 94.7455 96.1944 94.7399 95.9084 95.8069C95.8879 95.8876 95.8993 95.973 95.9403 96.0453C95.9813 96.1177 96.0487 96.1714 96.1284 96.1953C96.9501 96.489 98.0688 95.5705 98.7563 95.1855C101.063 93.8974 104.526 91.4916 105.049 88.8934Z" fill="#191919"/>
<path id="Vector_9" d="M89.9029 87.8601C89.3859 88.0669 89.4134 88.5729 89.321 89.0646C89.1983 89.6672 89.1116 90.2766 89.0614 90.8895C89.0383 91.2272 89.5014 91.2415 89.618 90.9676C89.8472 90.3906 90.0336 89.7976 90.1757 89.1933C90.2857 88.7401 90.5123 88.3133 90.1625 87.9382C90.1327 87.8997 90.0917 87.8715 90.0452 87.8575C89.9986 87.8435 89.9489 87.8444 89.9029 87.8601Z" fill="#191919"/>
<path id="Vector_10" d="M126.078 94.5406C114.683 80.3154 98.688 68.4706 94.508 64.8769C93.353 63.8869 92.0352 62.7539 90.416 62.7539C88.6296 62.7539 87.0643 64.3478 85.807 65.4467C84.988 66.1621 84.2056 66.9184 83.4629 67.7127C82.6502 68.3984 82.0414 69.2941 81.7029 70.3021C81.3091 72.3492 83.4002 74.1202 84.6421 75.4424C87.7924 78.8855 91.2286 82.0557 94.9139 84.9189C95.1856 85.1257 95.52 84.6758 95.2758 84.4525C92.7909 82.181 85.1008 74.9441 83.4035 72.2689C82.2639 70.4759 83.1956 69.6487 85.2933 67.595C86.5619 66.2949 87.9785 65.1478 89.514 64.1773C91.0287 63.4766 92.5071 64.7273 93.5928 65.6656C100.963 72.0071 111.426 79.0966 125.794 95.8595C126.317 96.379 126.735 96.9945 127.024 97.6723C127.719 99.7898 125.092 102.417 123.528 103.991C122.956 104.636 122.26 105.159 121.482 105.531C119.823 106.202 118.634 104.501 117.412 103.459C109.892 97.0255 109.189 95.9937 105.125 92.5694C104.647 92.1668 103.96 92.8279 104.426 93.2679C112.931 101.314 115.456 103.302 116.584 104.287C117.784 105.336 119.596 107.847 122.254 106.371C123.596 105.456 124.766 104.312 125.712 102.992C126.943 101.842 127.781 100.333 128.106 98.6799C128.259 96.9881 127.075 95.7836 126.078 94.5406Z" fill="#191919"/>
<path id="Vector_11" d="M91.2379 87.3024C91.2787 87.3476 91.3317 87.38 91.3905 87.3955C91.4493 87.411 91.5114 87.409 91.5691 87.3897C91.6268 87.3705 91.6777 87.3347 91.7154 87.287C91.7531 87.2392 91.776 87.1815 91.7813 87.1209C91.6892 86.3021 91.4245 85.5122 91.0047 84.8032C89.9165 82.2992 88.5117 79.9451 86.8247 77.7984C86.6212 77.563 86.2142 77.8259 86.3583 78.0965C87.1888 79.6563 88.1238 81.1501 88.9356 82.7055C90.6494 85.9989 90.5449 86.6105 91.2379 87.3024Z" fill="#191919"/>
<path id="Vector_12" d="M113.158 105.805C112.37 104.018 111.628 102.194 110.75 100.445C110.49 99.9279 109.594 100.291 109.805 100.846C110.874 103.662 111.876 105.526 114.181 110.764C114.561 111.416 114.804 112.139 114.894 112.888C114.88 113.613 114.285 113.977 113.702 114.26C112.932 114.635 108.422 116.365 106.464 116.979C104.69 117.536 104.251 117.038 103.538 115.426C101.146 110.013 98.2417 102.743 95.7436 97.9358C95.7136 97.8847 95.6658 97.8464 95.6094 97.8281C95.553 97.8099 95.4918 97.813 95.4375 97.8369C95.3832 97.8608 95.3396 97.9038 95.3149 97.9577C95.2902 98.0116 95.2862 98.0727 95.3036 98.1294C96.4102 101.387 97.7632 104.551 99.0964 107.724C102.396 115.583 102.271 115.544 102.968 116.788C103.222 117.315 103.642 117.746 104.164 118.012C104.685 118.279 105.279 118.367 105.856 118.264C107.812 117.778 109.723 117.124 111.566 116.308C112.783 115.83 114.466 115.428 115.398 114.438C116.331 113.448 116.002 112.128 115.502 111.007C114.731 109.269 113.923 107.54 113.158 105.805Z" fill="#191919"/>
<path id="Vector_13" d="M59.503 200.36C59.1169 202.173 58.4558 204.1 58.7913 205.979C58.9214 206.778 59.3093 207.513 59.8959 208.072C60.4825 208.631 61.2356 208.983 62.0407 209.074C66.3932 209.695 70.7858 209.994 75.1824 209.967C77.1118 210.016 79.171 210.161 80.9574 209.268C81.6978 208.959 82.3046 208.397 82.6698 207.683C83.035 206.969 83.1348 206.148 82.9517 205.367C82.3731 203.515 80.4217 203.702 78.9114 203.309C75.343 202.38 72.2014 198.022 69.0455 198.479C68.1841 198.671 67.4025 199.123 66.8059 199.773C66.3241 200.213 65.2813 201.209 64.6565 200.447C64.0317 199.684 62.9702 200.777 63.5818 201.521C64.0207 201.946 64.5994 202.196 65.2094 202.225C65.8195 202.253 66.4191 202.059 66.8961 201.678C68.3448 200.718 68.6055 199.247 70.9749 200.435C73.6039 201.755 75.6983 204.096 78.6133 204.797C79.3455 204.884 80.072 205.013 80.7891 205.185C80.9587 205.244 81.1125 205.341 81.2382 205.469C81.3639 205.597 81.4581 205.752 81.5133 205.923C81.5686 206.094 81.5834 206.275 81.5566 206.453C81.5298 206.63 81.4621 206.799 81.3588 206.945C80.4898 208.512 78.1688 208.51 76.6289 208.485C72.8097 208.427 68.9652 208.311 65.1581 207.942C63.5268 207.784 60.9132 207.942 60.3544 205.999C59.8132 204.122 60.9044 202.248 60.3027 200.367C60.1872 199.998 59.5943 199.933 59.503 200.36Z" fill="#191919"/>
<path id="Vector_14" d="M49.2741 199.471C48.6966 200.764 48.3839 202.159 48.3545 203.575C48.2194 204.149 48.206 204.746 48.3153 205.326C48.4246 205.906 48.6542 206.456 48.9892 206.942C49.8177 207.692 50.9025 208.095 52.0197 208.068C52.7963 208.132 53.5861 208.159 54.3627 208.159C55.0539 208.229 55.7513 208.113 56.3823 207.822C56.4596 207.776 56.5235 207.71 56.5679 207.632C56.6123 207.554 56.6357 207.465 56.6357 207.375C56.6357 207.285 56.6123 207.197 56.5679 207.119C56.5235 207.04 56.4596 206.975 56.3823 206.929C54.8566 206.26 51.4026 207.097 50.2069 206.049C49.4688 205.402 49.6921 204.029 49.7537 203.161C49.939 202.013 50.0598 200.854 50.1156 199.692C50.1086 199.596 50.072 199.505 50.0107 199.432C49.9494 199.358 49.8666 199.305 49.7739 199.281C49.6811 199.256 49.5831 199.262 49.4935 199.296C49.4039 199.33 49.3272 199.391 49.2741 199.471Z" fill="#191919"/>
<path id="Vector_15" d="M160.13 78.2539C154.783 78.2154 149.396 77.8282 144.049 78.0471C141.823 78.1384 139.615 78.7709 138.974 81.1678C138.505 83.9415 138.461 86.7706 138.844 89.5575C139.127 91.8103 139.362 94.9475 141.654 96.1223C143.214 96.9231 142.633 96.7229 167.925 97.4038C180.16 97.7338 192.41 98.0077 204.645 97.5589C207.371 97.4588 210.21 97.6524 211.533 96.1223C212.204 95.1353 212.543 93.9609 212.503 92.7684C212.754 89.8125 212.676 86.8378 212.27 83.8991C212.244 82.6927 211.891 81.5161 211.248 80.4946C209.928 78.8622 207.279 79.1746 204.049 79.1218C191.8 78.9018 164.222 78.4024 162.694 78.3705C162.524 78.3705 162.361 78.4381 162.241 78.5583C162.12 78.6786 162.053 78.8417 162.053 79.0118C162.053 79.1819 162.12 79.345 162.241 79.4653C162.361 79.5855 162.524 79.6531 162.694 79.6531C173.971 79.8313 202.262 80.3285 205.11 80.378C208.622 80.4385 210.385 79.9534 210.898 83.161C211.324 85.8928 211.458 88.6619 211.3 91.422C211.237 92.588 211.341 94.2985 210.562 95.2412C209.864 96.0849 208.554 96.0992 207.544 96.1476C196.282 96.6976 185.003 96.5172 173.725 96.2521C168.093 96.119 145.539 95.5327 144.204 95.4359C141.027 95.2038 140.756 93.5846 140.244 90.4254C139.816 87.7139 139.755 84.957 140.064 82.2293C140.474 79.4309 142.451 79.3825 145.281 79.3033C150.121 79.168 156.603 79.4727 160.107 78.9403C160.546 78.871 160.583 78.2572 160.13 78.2539Z" fill="#191919"/>
<path id="Vector_16" d="M214.123 142.514C214.097 141.306 213.743 140.127 213.1 139.104C211.78 137.473 209.131 137.79 205.9 137.733C193.652 137.513 166.074 137.012 164.546 136.981C164.381 136.988 164.224 137.059 164.11 137.178C163.995 137.298 163.931 137.457 163.931 137.622C163.931 137.788 163.995 137.947 164.11 138.066C164.224 138.186 164.381 138.256 164.546 138.263C175.823 138.442 204.114 138.938 206.963 138.988C210.475 139.049 212.236 138.563 212.75 141.772C213.175 144.504 213.31 147.273 213.152 150.033C213.089 151.198 213.192 152.909 212.413 153.852C211.716 154.696 210.407 154.709 209.396 154.759C198.133 155.309 186.855 155.128 175.578 154.862C169.945 154.73 147.39 154.144 146.057 154.047C142.88 153.815 142.607 152.194 142.097 149.035C141.669 146.324 141.608 143.568 141.916 140.84C142.326 138.039 144.309 137.992 147.133 137.913C152.207 137.772 157.627 138.098 161.959 137.551C162.048 137.551 162.134 137.516 162.197 137.453C162.26 137.39 162.295 137.304 162.295 137.215C162.295 137.125 162.26 137.04 162.197 136.977C162.134 136.914 162.048 136.878 161.959 136.878C156.612 136.76 151.225 136.451 145.878 136.67C143.65 136.761 141.444 137.394 140.802 139.791C140.333 142.565 140.289 145.394 140.673 148.181C140.954 150.434 141.19 153.571 143.482 154.745C145.043 155.546 144.462 155.347 169.753 156.027C181.989 156.357 194.237 156.632 206.472 156.183C209.199 156.083 212.038 156.277 213.361 154.745C214.025 153.756 214.364 152.584 214.332 151.393C214.608 148.435 214.538 145.456 214.123 142.514Z" fill="#191919"/>
<path id="Vector_17" d="M129.704 141.051C129.679 139.842 129.325 138.664 128.681 137.641C127.361 136.009 124.714 136.326 121.483 136.268C109.234 136.048 81.6562 135.549 80.1283 135.518C79.963 135.525 79.8067 135.595 79.6921 135.715C79.5776 135.834 79.5136 135.993 79.5136 136.159C79.5136 136.324 79.5776 136.483 79.6921 136.603C79.8067 136.722 79.963 136.792 80.1283 136.799C91.4055 136.979 119.696 137.475 122.544 137.524C126.057 137.585 127.824 137.1 128.333 140.308C128.758 143.04 128.892 145.809 128.733 148.569C128.671 149.734 128.775 151.446 127.995 152.389C127.299 153.232 125.988 153.245 124.979 153.295C109.674 154.038 92.4912 153.466 71.3844 152.885C71.3844 149.011 71.3734 140.279 71.1391 136.415C73.2769 136.445 75.4144 136.335 77.5378 136.085C77.6271 136.085 77.7127 136.05 77.7758 135.987C77.839 135.924 77.8744 135.838 77.8744 135.749C77.8744 135.66 77.839 135.574 77.7758 135.511C77.7127 135.448 77.6271 135.412 77.5378 135.412C75.3829 135.365 73.2214 135.286 71.0588 135.224C70.7014 131.176 70.0585 127.158 69.1349 123.201C68.0987 118.463 67.0944 113.081 64.5149 109.075C63.9486 108.175 63.2777 107.345 62.5162 106.602C62.5536 106.463 63.383 102.776 63.4402 102.523C63.8622 100.933 64.1738 99.3162 64.373 97.6833C64.4016 97.3467 63.9198 97.3214 63.8164 97.6063C63.2962 99.1878 62.8766 100.801 62.5602 102.435C62.3809 103.226 61.7605 105.845 61.6593 106.371C57.7686 106.414 57.9765 106.669 51.4766 106.669C51.7928 107.2 52.171 107.691 52.603 108.132C52.6678 108.2 52.7165 108.282 52.7456 108.371C52.7747 108.461 52.7834 108.555 52.771 108.649C52.7587 108.742 52.7256 108.831 52.6743 108.91C52.6229 108.988 52.5546 109.055 52.4743 109.103C51.0915 110.029 49.5068 110.61 47.8531 110.797C46.1994 110.984 44.525 110.772 42.9703 110.178C42.3763 109.946 41.9803 109.738 40.9243 109.31C33.3629 138.306 41.9627 144.664 42.4907 155.56C42.791 161.748 41.955 167.978 42.7371 174.15C43.5687 180.709 45.7445 186.651 47.8906 193.35C48.0353 194.186 48.3669 194.978 48.8608 195.668C49.534 196.355 50.5834 196.2 51.4898 196.264C53.9813 196.438 55.8799 196.497 58.2999 196.497C57.4991 193.722 55.9701 185.298 55.4905 182.197C53.1574 167.138 54.9614 160.95 55.309 156.768C55.6599 152.559 54.5335 148.365 53.5875 144.299C52.7546 140.465 51.5003 136.735 49.8475 133.177C49.7984 133.081 49.7877 132.971 49.8176 132.867C49.8475 132.764 49.9158 132.676 50.0085 132.621C50.1012 132.567 50.2112 132.55 50.3161 132.574C50.4209 132.598 50.5126 132.661 50.5724 132.75C53.1365 136.331 54.2508 140.738 55.221 144.972C56.167 149.103 57.1757 153.246 56.684 157.506C55.9697 161.796 55.6618 166.144 55.7644 170.492C56.0551 177.053 56.9034 183.576 58.2999 189.993C58.7289 192.116 59.5429 196.441 59.5429 196.467C61.3102 196.439 63.0762 196.357 64.8383 196.22C68.2714 195.964 69.2691 196.338 69.5683 193.942C69.6542 193.805 69.7073 193.65 69.7234 193.489C70.9411 180.418 71.3514 167.309 71.3877 154.189C91.1558 154.732 106.874 155.28 122.058 154.724C124.784 154.624 127.623 154.817 128.946 153.286C129.617 152.299 129.957 151.125 129.918 149.932C130.157 146.972 130.086 143.996 129.704 141.051Z" fill="#191919"/>
<path id="Vector_18" d="M116.511 109.912C120.155 109.995 178.483 110.077 205.901 110.547C206.669 110.473 207.443 110.573 208.167 110.84C208.891 111.106 209.545 111.532 210.081 112.087C210.993 113.221 211.568 114.59 211.739 116.036C212.244 119.086 213.478 123.984 210.599 125.76C207.418 127.721 198.131 127.283 194.674 127.196C188.369 127.038 182.701 127.314 157.138 127.003C137.476 126.763 89.5201 128.118 74.3082 127.636C73.5052 127.611 73.5184 128.841 74.3082 128.879C83.073 129.319 91.917 128.957 100.682 128.854C109.372 128.75 199.836 128.622 203.63 128.374C205.408 128.279 207.175 128.028 208.91 127.624C210.203 127.412 211.392 126.787 212.3 125.842C213.874 123.972 213.712 121.272 213.413 119.022C213.083 116.492 212.816 113.664 211.174 111.59C210.352 110.528 209.175 109.797 207.859 109.531C206.429 109.263 117.583 109.078 116.552 109.13C116.456 109.137 116.366 109.179 116.299 109.248C116.232 109.317 116.193 109.407 116.188 109.503C116.183 109.599 116.213 109.693 116.272 109.768C116.332 109.843 116.417 109.895 116.511 109.912Z" fill="#191919"/>
<path id="Vector_19" d="M96.0309 77.9174C95.2983 78.1374 94.8011 79.101 94.943 78.3321C95.0607 77.6974 95.5029 77.2321 95.383 76.5457C95.3439 76.2981 95.2233 76.0707 95.0405 75.8993C94.8576 75.728 94.6227 75.6225 94.3732 75.5997C94.0773 75.6153 93.7897 75.7024 93.5349 75.8536C93.2801 76.0047 93.0657 76.2154 92.9102 76.4676C92.7815 76.6238 92.6649 76.8713 92.4438 76.9076C92.1985 76.9494 92.2733 76.8306 92.2502 76.5457C92.1946 75.9503 92.2076 75.3506 92.2887 74.7582C92.6914 74.2758 92.9873 73.7134 93.1566 73.1082C93.1873 72.9914 93.1788 72.8678 93.1324 72.7563C93.0859 72.6449 93.004 72.5519 92.8994 72.4915C92.7948 72.4312 92.6733 72.407 92.5536 72.4226C92.4339 72.4383 92.3226 72.4928 92.237 72.578C91.7234 73.068 91.375 73.7058 91.2404 74.4029C90.3483 75.295 89.1262 75.3687 88.9612 74.1829C88.8935 73.5687 88.9285 72.9475 89.0646 72.3448C90.1352 71.6771 91.0564 70.7955 91.7706 69.7554C92.1864 69.1482 93.0774 67.9052 92.0302 67.4245C90.1602 66.5676 88.6136 69.8621 88.1461 71.8916C87.4823 72.2408 86.7992 72.5519 86.1001 72.8233C85.8405 72.9333 85.8405 73.3953 86.1771 73.3733C86.7922 73.3125 87.3948 73.1597 87.9646 72.9201C87.8369 73.3768 87.8148 73.8566 87.9 74.3231C87.9852 74.7897 88.1754 75.2307 88.4563 75.6129C88.79 75.9802 89.25 76.2083 89.7444 76.2515C90.2388 76.2947 90.7314 76.15 91.1238 75.8461C91.1238 76.681 91.1073 77.5192 91.6672 77.9438C91.9212 78.0981 92.2206 78.1605 92.5152 78.1204C92.8098 78.0804 93.0816 77.9403 93.2853 77.7238C93.546 77.5038 93.7132 77.1144 93.9981 76.934C94.5283 76.5963 94.1499 77.3597 94.0498 77.594C93.9194 77.8387 93.8405 78.1075 93.8178 78.3839C93.7951 78.6602 93.8291 78.9383 93.9178 79.2011C94.0215 79.4309 94.2031 79.6167 94.4306 79.7256C94.6581 79.8345 94.9167 79.8595 95.1608 79.7962C95.7361 79.6543 96.0078 79.1659 96.2608 79.0713C96.7668 78.8821 97.0671 79.3309 96.9593 79.7962C96.8339 80.3407 97.66 80.7543 97.9053 80.1977C98.0475 79.9185 98.1052 79.6039 98.0713 79.2924C98.0374 78.9809 97.9134 78.6861 97.7144 78.444C97.5154 78.202 97.2502 78.0232 96.9512 77.9297C96.6521 77.8361 96.3323 77.8319 96.0309 77.9174ZM91.1106 68.3364C91.7442 67.9976 91.6683 68.233 91.3955 68.7115C90.905 69.592 90.25 70.3703 89.4661 71.0039C89.7797 69.9904 90.3469 69.0727 91.1106 68.3364Z" fill="#006AE7"/>
<path id="Vector_20" d="M118.453 99.396C118.332 98.2817 118.004 97.2081 117.935 96.0685C117.891 95.3436 118.142 94.1908 117.598 93.6078C116.911 92.8708 116.168 93.3229 115.579 94.061C115.552 93.2844 115.494 92.521 115.397 91.7433C115.395 91.6575 115.373 91.5733 115.334 91.497C115.294 91.4207 115.238 91.354 115.17 91.302C115.102 91.2499 115.023 91.2138 114.939 91.1961C114.855 91.1785 114.768 91.1797 114.684 91.1999C113.144 91.4694 113.052 93.4428 112.6 94.1523C112.38 92.7906 112.068 91.4452 111.668 90.1252C111.498 89.4267 110.512 89.7369 110.619 90.4101C110.809 91.0918 110.782 91.8157 110.542 92.4814C110.322 92.884 109.764 93.2459 109.351 92.9346C108.456 92.2625 109.972 90.2418 110.477 89.7369C110.749 89.4652 110.374 88.935 110.049 89.1803C109.175 89.7873 108.531 90.6725 108.224 91.6916C107.615 94.0918 110.081 94.8244 111.292 93.2712C111.292 93.258 111.305 93.258 111.305 93.2459C111.497 93.9147 111.534 95.1159 112.355 95.3557C113.701 95.7572 113.766 93.7508 114.374 92.7795C114.449 93.9608 114.449 95.1457 114.374 96.327C114.332 97.0134 115.336 97.097 115.539 96.4821C115.727 95.7986 116.073 95.1688 116.549 94.644C116.91 94.3052 116.815 94.5659 116.809 94.9289C116.729 96.5294 116.962 98.1301 117.495 99.6413C117.675 100.134 118.508 99.913 118.453 99.396Z" fill="#006AE7"/>
<path id="Vector_21" d="M106.8 108.915C106.318 108.075 107.15 107.413 107.525 106.727C108.075 105.73 108.031 104.239 106.683 103.983C105.982 103.848 104.574 104.637 104.741 103.464C106 102.983 107.903 101.697 107.5 100.395C107.418 100.2 107.291 100.026 107.128 99.89C106.966 99.7539 106.773 99.6589 106.566 99.6131C106.358 99.5674 106.143 99.5722 105.938 99.6272C105.734 99.6822 105.545 99.7857 105.389 99.929C104.588 100.655 104.047 101.624 103.849 102.687C103.382 102.83 102.907 102.943 102.425 103.024C101.985 103.098 102.154 103.693 102.516 103.736C102.912 103.784 103.313 103.775 103.707 103.71C103.672 104.023 103.755 104.338 103.939 104.594C104.123 104.85 104.395 105.029 104.703 105.096C105.44 105.255 107.264 104.473 106.711 105.95C106.347 106.921 105.355 107.571 105.558 108.721C105.696 109.491 106.242 109.997 107.772 111.841C108.242 112.407 109.077 111.587 108.588 111.026C107.927 110.38 107.329 109.673 106.8 108.915ZM105.945 100.862C106.075 100.939 106.192 101.017 106.322 101.107C106.005 101.502 105.619 101.836 105.182 102.092C105.27 101.886 105.762 100.898 105.945 100.862Z" fill="#006AE7"/>
<path id="Vector_22" d="M205.605 118.002C204.815 118.053 204.037 118.131 203.261 118.248C203.701 117.25 204.121 116.243 204.491 115.218C204.636 114.817 204.038 114.61 203.831 114.934C203.234 115.874 202.681 116.842 202.173 117.833C201.351 116.54 200.461 115.292 199.506 114.093C199.247 113.77 198.766 114.186 198.95 114.521C199.703 115.898 200.529 117.24 201.358 118.591C200.425 118.773 199.494 118.999 198.587 119.226C198.212 119.319 198.276 119.959 198.677 119.911C199.557 119.81 200.425 119.731 201.306 119.653C200.736 120.883 200.221 122.14 199.713 123.355C199.469 123.939 200.49 124.378 200.749 123.795C201.266 122.629 201.811 121.478 202.341 120.312C202.791 121.17 203.293 122 203.844 122.798C203.921 122.923 204.044 123.013 204.187 123.048C204.33 123.084 204.481 123.062 204.608 122.987C204.735 122.913 204.827 122.792 204.866 122.65C204.905 122.508 204.887 122.356 204.815 122.228C204.376 121.27 203.856 120.352 203.261 119.483C204.051 119.405 204.828 119.344 205.617 119.25C206.368 119.157 206.407 117.95 205.605 118.002Z" fill="#006AE7"/>
<path id="Vector_23" d="M207.185 87.3964C206.4 87.4423 205.618 87.5246 204.841 87.6428C205.281 86.6462 205.701 85.6375 206.071 84.6134C206.216 84.213 205.619 84.0051 205.411 84.3285C204.814 85.269 204.261 86.2366 203.753 87.2281C202.931 85.9349 202.041 84.6865 201.087 83.4881C200.827 83.1647 200.346 83.5794 200.53 83.9149C201.283 85.2932 202.11 86.6341 202.938 87.9849C202.005 88.1664 201.074 88.393 200.167 88.6196C199.792 88.7131 199.856 89.3522 200.257 89.306C201.137 89.2037 202.005 89.1245 202.886 89.0464C202.316 90.2762 201.802 91.5346 201.293 92.7501C201.049 93.3331 202.07 93.7731 202.33 93.1901C202.847 92.0252 203.391 90.8724 203.921 89.7075C204.372 90.5655 204.874 91.3957 205.424 92.1935C205.501 92.3186 205.624 92.4085 205.767 92.4439C205.91 92.4794 206.061 92.4575 206.188 92.3831C206.315 92.3087 206.407 92.1875 206.446 92.0456C206.485 91.9037 206.467 91.7522 206.395 91.6237C205.957 90.6642 205.437 89.7441 204.841 88.8737C205.631 88.7967 206.408 88.7329 207.197 88.6405C207.962 88.5525 207.987 87.3513 207.185 87.3964Z" fill="#006AE7"/>
<path id="Vector_24" d="M164.987 188.801C164.98 184.326 164.704 179.855 164.158 175.413C163.773 172.797 162.891 171.223 160.235 171.154C158.746 171.114 157.244 171.128 155.756 171.114C80.8533 170.477 123.343 170.186 109.804 170.596C107.934 170.653 105.828 170.647 104.56 172.267C102.992 174.272 103.253 177.421 103.253 179.829C103.253 183.211 103.598 193.597 105.311 196.518C106.647 198.796 109.195 198.554 111.487 198.615C130.35 199.119 144.12 199.797 157.568 198.654C160.806 198.379 162.816 198.489 164.003 196.789C165.169 195.121 165 192.198 164.987 188.801ZM152.635 177.368C151.213 179.314 150.285 179.243 143.175 185.098C139.972 187.738 136.84 190.455 133.839 193.32C133.668 193.482 133.441 193.573 133.205 193.573C132.969 193.573 132.742 193.482 132.571 193.32C129.942 191.145 127.503 188.75 125.281 186.16C124.532 185.436 123.966 184.544 123.631 183.558C123.582 183.246 123.839 182.83 124.214 182.975C125.365 183.415 125.887 184.507 128.834 187.493C130.219 188.888 131.666 190.218 133.171 191.481C137.528 187.398 142.078 183.527 146.805 179.88C148.382 178.66 150.015 177.077 151.958 176.488C152.425 176.347 152.936 176.956 152.635 177.368Z" fill="#006AE7"/>
<path id="Vector_25" d="M57.1495 66.3024C58.0735 64.9351 57.4432 63.8516 56.7447 62.393C55.1651 59.0985 52.8947 56.1912 49.4418 54.803C49.5428 54.0361 49.4179 53.2563 49.0822 52.5593C48.7465 51.8623 48.2147 51.2785 47.552 50.8793C44.186 48.7893 38.972 51.1246 39.4593 54.44C39.5336 54.9618 39.7388 55.4562 40.0558 55.8773C40.3728 56.2983 40.7912 56.6322 41.2721 56.8479C32.6239 63.7108 31.4348 70.5 25.2297 74.8197C21.6767 77.2936 17.5088 78.3639 12.2948 82.7045C9.47711 84.9761 7.18116 87.8273 5.56277 91.0645C5.50986 91.1597 5.48583 91.2682 5.49362 91.3767C5.50141 91.4853 5.54068 91.5893 5.60663 91.6759C5.67257 91.7625 5.76233 91.828 5.86493 91.8644C5.96752 91.9007 6.07849 91.9064 6.18427 91.8807C9.68997 91.0645 12.4092 94.1093 14.1857 96.6965C15.8929 99.1847 17.555 102.011 20.4007 103.353C23.3795 104.756 26.4507 103.662 30.5515 104.246C34.1265 104.754 37.1669 106.501 40.4691 107.858C43.6272 109.155 47.3243 109.861 50.4395 108.078C50.5123 108.034 50.5743 107.974 50.6209 107.903C50.6674 107.831 50.6974 107.75 50.7085 107.666C50.7196 107.581 50.7115 107.496 50.6849 107.415C50.6584 107.334 50.614 107.26 50.555 107.198C48.0811 104.371 47.9909 100.298 48.7169 96.7757C49.5573 92.6969 51.5571 88.9657 52.6274 84.9551C54.2334 78.9304 52.5042 71.8915 56.5874 67.0119C56.9341 68.0492 57.1694 69.1204 57.2892 70.2074C57.3376 72.1478 56.539 72.6758 55.0364 72.6274C54.9042 72.6274 54.7775 72.6799 54.684 72.7734C54.5906 72.8668 54.5381 72.9936 54.5381 73.1257C54.5381 73.2579 54.5906 73.3846 54.684 73.4781C54.7775 73.5715 54.9042 73.624 55.0364 73.624C58.8204 73.6317 58.7071 69.7509 57.1495 66.3024ZM41.4019 60.721C41.0284 61.2502 40.5788 61.7214 40.0676 62.1191C39.586 62.6028 39.1362 63.1173 38.7212 63.6591C37.2087 65.6303 37.3286 66.4289 36.5718 66.7666C36.5385 66.785 36.5015 66.7954 36.4636 66.7973C36.4257 66.7992 36.3879 66.7924 36.353 66.7774C36.3181 66.7625 36.2871 66.7398 36.2623 66.711C36.2375 66.6823 36.2195 66.6482 36.2099 66.6115C36.1644 66.2958 36.1846 65.9741 36.2692 65.6665C36.3538 65.3589 36.501 65.0721 36.7016 64.824C37.4402 63.5195 38.3815 62.3407 39.4901 61.3315C39.9202 60.8432 40.4749 60.4808 41.095 60.2832C41.1491 60.2779 41.2037 60.2871 41.2531 60.3098C41.3026 60.3325 41.3451 60.368 41.3763 60.4125C41.4075 60.457 41.4263 60.5091 41.4308 60.5633C41.4353 60.6175 41.4253 60.672 41.4019 60.721Z" fill="#191919"/>
<path id="Vector_26" d="M86.7701 34.6328C86.1673 34.5625 85.5578 34.5713 84.9573 34.6592C83.7132 34.6878 81.9873 34.4392 80.8532 35.746C80.2962 36.5141 79.8473 37.355 79.5189 38.2452C79.1394 39.0504 78.5498 39.8457 78.2132 40.6883C77.0912 40.014 75.703 40.8137 74.4952 41.2493C67.4442 43.7947 58.5287 48.561 52.9121 53.6397C52.7284 53.8058 52.988 54.1556 53.197 54.0027C57.5869 50.7448 62.2528 47.8765 67.1417 45.4304C70.2216 43.9232 73.3959 42.617 76.6446 41.5199C77.5103 41.2801 77.8865 41.598 78.4046 42.2195C79.2941 43.2828 80.1855 44.3528 81.0787 45.4293C76.3851 48.9896 72.193 53.1665 68.6157 57.8472C67.2499 59.3902 66.1201 61.1268 65.2629 63.0007C65.1452 63.323 65.6105 63.5683 65.8327 63.3373C67.7478 61.3375 71.4812 53.9477 82.0434 45.9485C82.1071 45.9089 82.1612 45.8556 82.2018 45.7926C82.2425 45.7296 82.2687 45.6584 82.2786 45.584C82.2885 45.5097 82.2818 45.4341 82.259 45.3627C82.2362 45.2912 82.1979 45.2257 82.1468 45.1708C78.6543 41.0535 79.2241 41.6068 78.7643 41.1371C79.8137 40.1042 80.5584 37.8877 81.2789 36.7679C82.5989 34.7241 85.2125 36.2102 86.8592 35.3566C86.9232 35.3154 86.9744 35.2569 87.0067 35.188C87.039 35.119 87.0512 35.0423 87.0419 34.9667C87.0326 34.8911 87.0022 34.8197 86.9541 34.7606C86.906 34.7015 86.8422 34.6572 86.7701 34.6328Z" fill="#191919"/>
<path id="Vector_27" d="M117.624 45.208C114.434 38.1306 110.269 29.2701 101.724 27.8192C95.0449 26.6851 88.7903 30.7452 86.0964 36.7006C87.0264 36.0555 88.1665 35.7874 89.2864 35.9504C89.567 36.0308 89.8252 36.1749 90.041 36.3713C90.2568 36.5678 90.4245 36.8114 90.5309 37.0831C90.6373 37.3549 90.6796 37.6476 90.6546 37.9383C90.6295 38.2291 90.5378 38.5102 90.3864 38.7598C89.7731 39.6617 89.0214 40.4613 88.1589 41.1292C87.6298 41.6704 86.5892 43.7483 84.2231 44.3918C84.0672 46.9656 84.0544 49.5462 84.1846 52.1215C84.1989 52.5109 84.2583 53.2215 84.6378 53.1313C95.486 50.5419 106.418 48.3078 117.266 45.7261C117.375 45.6997 117.717 45.417 117.624 45.208Z" fill="#006AE7"/>
<path id="Vector_28" d="M81.3181 40.8477C83.9768 40.0843 86.3385 37.4927 88.1029 37.3387C88.4648 37.3079 89.2667 37.364 89.1127 37.947C89.0192 38.3012 88.4054 38.717 87.5331 39.5783C86.3352 40.7619 86.3902 41.6815 84.5037 42.6341C83.8089 42.8352 83.1295 43.0863 82.4709 43.3854C82.3433 43.4778 82.2762 43.7242 82.4709 43.8122C83.2046 44.1422 84.1396 43.6934 84.8271 43.3722C85.5385 43.0468 86.1639 42.5593 86.6531 41.9488C87.1707 41.0498 87.8407 40.2477 88.6331 39.5783C89.1391 39.1273 90.0554 38.4266 89.941 37.65C89.8559 37.3627 89.6827 37.1094 89.4459 36.9258C89.209 36.7423 88.9205 36.6378 88.621 36.627C86.421 36.319 83.9086 39.3946 81.2147 40.4209C80.9595 40.5199 81.0464 40.9258 81.3181 40.8477Z" fill="#191919"/>
</g>
</svg>
