<svg width="234" height="220" viewBox="0 0 234 220" fill="none" xmlns="http://www.w3.org/2000/svg">
<path d="M89.7545 97.242C87.2719 79.642 104.3 63.4808 119.218 75.9735C133.464 87.903 126.462 117.884 106.851 116.481C98.4172 115.875 91.4369 109.169 89.7545 97.242ZM108.79 104.502C108.919 105.484 108.865 105.566 108.021 105.602C104.306 105.759 102.667 101.024 101.725 102.159C101.361 102.59 101.762 103.479 101.972 103.773C105.417 108.647 108.307 107.231 109.017 107.808C109.727 108.384 109.063 110.797 110.007 110.66C110.707 110.558 110.708 109.824 110.462 108.205C110.183 106.398 112.843 107.695 114.618 102.962C116.184 98.7876 115.192 95.0728 109.602 93.799C108.632 93.579 108.978 93.7803 107.842 83.9628C107.771 83.349 107.97 83.2523 108.414 83.3029C109.893 83.4337 111.322 84.0091 112.571 84.9771C112.803 85.1652 113.08 85.5457 113.336 85.1585C114.206 83.8451 110.306 81.8883 108.188 81.7904C107.219 81.7464 107.388 81.2194 107.199 79.1778C107.118 78.3088 106.266 78.2813 106.277 79.2394C106.301 81.402 106.719 81.7035 105.822 81.9895C101.321 83.4569 99.5002 90.3571 103.376 93.2446C106.883 95.8582 107.357 93.7363 107.796 95.812C108.013 96.8636 108.624 103.232 108.79 104.502Z" fill="#006AE7"/>
<path d="M106.523 63.015C106.726 65.3943 107.615 68.6448 106.166 68.911C104.575 69.2014 104.636 65.4724 104.575 63.7201C104.532 62.4683 104.456 56.7428 105.165 56.6955C105.792 56.6537 106.422 62.2516 106.523 63.015Z" fill="#006AE7"/>
<path d="M113.12 69.3692C112.864 67.6092 116.7 60.5813 117.365 60.8266C118.344 61.1896 115.76 69.378 114.759 70.2096C114.619 70.3567 114.448 70.4533 114.264 70.4884C114.081 70.5236 113.893 70.4957 113.723 70.4082C113.552 70.3206 113.405 70.1768 113.298 69.9931C113.192 69.8095 113.13 69.5933 113.12 69.3692Z" fill="#006AE7"/>
<path d="M98.1836 71.9129C98.3573 73.1009 97.5962 73.4265 96.9742 73.0349C95.561 72.1417 91.3033 66.0609 91.7516 65.5307C92.4319 64.7277 98.1782 71.1044 98.1836 71.9129Z" fill="#006AE7"/>
<path d="M106.866 93.2035C97.6327 91.273 106.24 80.7735 106.662 84.4695C107.72 93.7579 107.717 93.3817 106.866 93.2035Z" fill="#006AE7"/>
<path d="M109.999 103.744C108.999 95.3014 108.931 95.3014 109.647 95.5038C116.148 97.3375 113.841 102.746 110.99 104.792C110.161 105.389 110.181 105.273 109.999 103.744Z" fill="#006AE7"/>
<path fill-rule="evenodd" clip-rule="evenodd" d="M163.781 172.656C164.058 160.282 162.136 147.393 159.999 133.058L159.947 132.711C159.324 133.311 158.713 133.928 158.113 134.561C162.844 170.311 163.858 183.166 155.427 188.511C146.249 194.327 137.364 196.042 130.46 197.326C128.649 197.663 126.73 198.042 124.736 198.436C105.232 202.29 78.5291 207.567 75.6246 188.427C75.1599 185.39 74.684 182.355 74.1969 179.323C73.2393 173.315 72.2808 167.308 71.4988 161.267C70.5421 153.885 69.6391 146.933 68.7889 140.382L68.7861 140.362L68.7843 140.349C55.6649 39.3517 55.001 34.2433 63.9738 29.0403C69.3172 25.9405 72.9902 24.604 98.7162 21.2787C100.253 21.0807 102.181 20.8002 104.365 20.4834C114.819 18.9676 131.146 16.5993 138.566 18.1987C144.01 20.897 144.296 23.2928 150.347 74.0787L150.751 77.4777C151.815 86.3884 152.925 95.2908 154.081 104.185C154.703 103.726 155.332 103.284 155.969 102.858C155.201 96.4808 154.434 90.1034 153.668 83.7257C150.326 55.8979 149.311 47.4554 147.105 32.1027C144.245 12.1927 142.115 12.2543 104.787 16.7742C104.752 16.7742 101.072 17.2428 101.321 17.3242C97.7359 17.9083 94.4003 18.4231 91.303 18.9005C63.1853 23.2378 54.6264 24.5578 55.9268 47.5863C56.8025 63.0765 71.6043 186.098 74.8216 193.996C79.1138 204.539 93.2318 206.468 102.852 205.06C133.893 200.515 144.377 197.84 153.167 192.947C161.816 188.137 163.522 184.167 163.781 172.656ZM148.837 108.535C144.515 70.2639 139.666 29.0117 138.961 29.1096C138.106 29.2273 142.743 69.6446 144.852 88.0223L145.423 93.0108C146.105 98.997 146.744 104.644 147.343 109.956C147.835 109.474 148.333 109 148.837 108.535ZM151.009 142.524C153.904 167.986 155.212 177.751 155.845 172.394C155.768 171.318 154.39 158.49 152.451 140.915C151.973 141.456 151.493 141.994 151.009 142.524ZM125.538 131.323C121.246 132.127 116.537 133.077 112.591 133.872L109.361 134.523C106.768 135.042 104.569 135.47 102.707 135.832C93.7319 137.578 92.5743 137.804 92.6753 139.382C92.7951 141.735 93.0821 144.07 93.5328 146.363C93.7128 147.69 94.4049 147.526 95.1242 147.356C95.2333 147.331 95.3424 147.305 95.4497 147.284L98.2715 146.746C98.3925 146.075 98.5125 145.428 98.6298 144.81C97.7204 144.97 96.9429 145.103 96.3291 145.201C96.2045 145.221 96.0927 145.242 95.9926 145.261C95.6534 145.325 95.4379 145.364 95.2851 145.265C95.0205 145.092 94.9414 144.502 94.7241 142.886C94.6349 142.221 94.5231 141.383 94.3649 140.329C94.2185 139.356 94.6741 138.897 111.143 136.043L118.922 134.598C118.908 134.639 118.892 134.679 118.879 134.719C121.31 134.303 123.739 133.869 126.165 133.415C125.914 132.737 125.704 132.038 125.538 131.323ZM128.863 139.011C129.204 139.597 129.569 140.199 129.961 140.816C127.536 141.283 124.443 141.855 120.5 142.583L118.348 142.982C118.28 142.357 118.23 141.73 118.196 141.102C122.11 140.339 125.865 139.601 128.863 139.011ZM105.747 26.3519C104.648 26.056 104.089 27.937 105.497 28.4419C105.612 28.4645 105.729 28.4593 105.842 28.4266C105.955 28.3939 106.061 28.3343 106.155 28.2513C106.248 28.1683 106.327 28.0636 106.387 27.9432C106.447 27.8229 106.486 27.6894 106.502 27.5504C106.519 27.4115 106.512 27.27 106.483 27.1341C106.454 26.9983 106.403 26.8708 106.332 26.7592C106.262 26.6477 106.174 26.5541 106.073 26.4842C105.973 26.4142 105.862 26.3693 105.747 26.3519ZM98.6789 28.6157C99.2791 25.6248 101.82 26.7171 101.573 28.8467C101.282 31.3558 98.7517 30.9818 98.6789 28.6157ZM65.737 42.7298C68.7816 58.8162 83.1296 185.777 83.1223 185.736C83.2969 186.823 82.3576 187.21 82.1702 185.97C82.1639 185.929 65.6679 58.5203 64.9586 42.8354C64.9022 41.5924 65.3342 40.6035 65.737 42.7298ZM150.945 179.715C144.547 182.517 113.702 196.029 85.7631 189.051C85.0575 190.85 93.1563 192.418 94.966 192.651C126.476 196.677 156.856 177.728 152.088 179.231C151.95 179.275 151.561 179.445 150.945 179.715ZM128.002 26.6676C128.102 26.6896 135.417 25.5588 135.71 24.7096C135.037 23.6393 129.162 24.7569 128.148 24.9879C119.594 26.1308 118.742 27.9392 117.869 29.7905C117.443 30.6947 117.012 31.6088 115.678 32.4613C111.372 35.2135 101.568 36.3839 96.701 36.5676C90.9065 36.7865 89.186 34.9836 87.6946 33.4216C86.6107 32.2864 85.6486 31.2788 83.3333 31.2634C78.5228 31.2315 65.7334 35.2454 66.2372 36.8052C66.4009 37.3134 67.9777 36.7403 70.3321 35.8845C73.6113 34.6932 78.4 32.9541 82.9841 32.821C85.3176 32.7539 86.2542 33.8187 87.3327 35.0452C88.4876 36.3586 89.8062 37.8568 93.1772 38.3452C97.2139 38.9392 104.821 38.2572 110.346 36.8052C114.117 35.8152 117.65 34.4215 119.573 29.9423C119.717 29.7883 119.846 29.6453 119.965 29.5155C120.324 29.1217 120.592 28.828 120.89 28.5893C121.775 27.8798 122.927 27.6554 127.501 26.7655L128.002 26.6676Z" fill="#191919"/>
<path d="M206.486 40.6687C203.75 42.0558 199.611 40.5235 191.204 43.5969C176.058 49.1343 172.373 63.3155 159.989 69.5019C159.424 69.825 158.789 69.9227 158.175 69.7807C157.562 69.6388 157.001 69.2645 156.575 68.7121C151.826 63.42 145.718 55.6782 144.747 47.8935C144.513 46.0235 146.293 46.6164 151.262 43.1547C163.348 34.7441 160.932 32.6761 171.704 24.0939C178.381 18.7754 186.345 14.8077 194.136 16.9527C199.1 18.3189 207.548 37.3247 205.996 38.1717C205.036 38.6953 202.299 29.7743 195.018 19.7907C193.945 18.3189 184.581 17.385 173.665 25.5107C165.389 31.6707 162.652 38.3631 152.827 44.4164C146.122 48.5491 145.702 47.7406 146.012 48.9154C148.366 57.8738 156.169 65.8466 157.533 67.4999C157.732 67.7735 158.002 67.9559 158.299 68.016C158.595 68.0762 158.9 68.0104 159.161 67.8299C168.43 63.2957 173.555 50.1584 186.063 43.1074C194.663 38.2619 204.104 38.1453 206.486 40.6687Z" fill="#006AE7"/>
<path d="M167.947 39.9036C167.512 36.0778 170.565 35.6202 169.244 33.1045C169.058 32.7503 168.764 32.2058 169.143 31.9253C169.592 31.5953 169.721 32.3059 169.924 32.6128C171.128 34.4388 171.015 32.2168 173.815 32.0419C174.083 32.0254 174.441 31.9704 174.508 32.3631C174.588 32.8383 174.168 32.7932 173.944 32.8647C173.025 33.1562 170.742 34.1902 171.291 35.1934C173.329 38.9191 173.088 39.0643 173.773 38.8663C176.417 38.1029 178.767 38.9609 177.87 42.0662C177.153 44.5511 175.862 44.2002 176.635 45.5059C177.837 47.5332 177.102 47.9787 176.112 46.1736C175.219 44.5423 174.767 46.7489 171.938 46.7236C171.696 46.7236 171.32 46.7885 171.271 46.3551C171.234 46.0251 171.564 46.0251 171.751 45.9151C174.593 44.1463 174.868 44.1991 174.421 43.4808C172.854 40.9596 172.98 40.4151 172.223 40.7572C170.704 41.4458 168.288 42.8934 167.947 39.9036ZM170.369 40.2435C171.733 39.6583 172.279 39.6176 171.895 38.8971C170.459 36.2285 170.445 35.4013 169.985 36.1834C169.459 37.0484 169.137 38.0693 169.051 39.138C168.977 40.1907 169.285 40.4932 170.369 40.2435ZM174.903 39.8794C173.668 40.0994 173.71 39.9685 175.289 42.9242C175.397 43.1266 175.495 43.4621 175.784 43.1695C176.092 42.8959 176.35 42.5494 176.543 42.1511C176.736 41.7528 176.86 41.3111 176.907 40.8529C176.994 39.6561 175.797 39.875 174.903 39.8794Z" fill="#006AE7"/>
<path d="M160.52 64.1496C157.792 63.6975 148.768 49.8441 150.556 48.7727C150.984 48.5164 150.936 48.5824 153.964 54.1341C156.442 58.687 159.967 62.3962 160.52 64.1496Z" fill="#006AE7"/>
<path d="M200.105 35.2429C199.457 34.7094 196.134 28.3228 192.904 23.2727C192.722 22.9867 192.439 22.6017 192.777 22.2541C193.968 21.0386 200.335 33.0561 200.105 35.2429Z" fill="#006AE7"/>
<path d="M164.362 38.8438C163.969 41.5101 154.556 48.4137 154.086 47.2928C153.738 46.448 154.477 47.031 164.362 38.8438Z" fill="#006AE7"/>
<path d="M175.225 103.61C175.383 106.382 175.18 109.165 174.622 111.86C173.949 115.349 172.648 118.617 170.813 121.43C160.655 138.625 142.597 135.57 135.731 147.711C134.865 149.24 134.151 149.031 133.877 148.122C131.582 140.459 127.987 125.783 125.811 122.575C124.915 121.255 125.508 120.236 126.464 119.456C136.19 111.513 151.209 115.244 156.418 93.8175C157.09 91.0532 157.67 91.4107 158.953 92.0784C161.147 93.2268 175.243 101.046 175.225 103.61ZM174.145 104.566C173.963 102.742 158.951 93.9132 158.723 93.7713C156.511 92.3919 159.219 98.1713 151.596 108.054C145.404 116.084 137.364 114.453 127.743 120.677C125.839 121.909 129.059 121.007 133.623 141.232C134.077 143.229 134.539 147.231 135.26 145.792C142.445 131.406 170.351 137.659 174.145 104.566Z" fill="#006AE7"/>
<path d="M155.742 124.414C153.27 120.201 154.185 120.784 151.44 121.884C149.757 122.56 148.578 121.28 148.926 119.153C149.514 115.568 151.123 115.651 150.498 114.226C149.482 111.916 150.186 111.421 151.203 113.53C151.665 114.487 151.77 113.398 153.802 112.593C155.314 111.993 156.159 112.829 155.067 113.178C154.136 113.467 153.256 113.955 152.467 114.619C151.739 115.233 152.228 115.325 153.963 118.799C154.424 119.724 154.653 119.019 156.566 119.01C158.979 118.999 159.573 120.799 158.555 123.228C157.933 124.709 156.952 124.762 157.585 125.792C158.767 127.712 157.973 127.86 157.681 127.422C155.642 124.359 156.975 126.639 153.498 127.065C153.089 127.115 152.292 127.22 152.235 126.725C152.207 126.466 152.179 126.596 155.742 124.414ZM151.377 120.608C152.842 119.963 153.21 119.93 152.956 119.431C151.324 116.216 151.36 115.979 150.997 116.513C150.444 117.383 150.113 118.429 150.047 119.523C149.947 120.572 150.252 120.859 151.377 120.608ZM155.306 121.367C156.306 123.393 156.293 123.585 156.649 123.567C157.298 123.525 159.08 120.237 156.763 120.231C154.7 120.223 154.896 120.534 155.306 121.367Z" fill="#006AE7"/>
<path d="M136.225 139.274C134.813 135.619 135.036 134.233 130.762 122.571C130.593 122.109 130.052 121.453 130.628 121.105C131.188 120.768 131.32 121.666 131.513 122.112C132.98 125.507 136.53 134.571 136.805 139.327C136.811 139.469 136.71 140.536 136.225 139.274Z" fill="#006AE7"/>
<path d="M171.326 105.972C169.191 104.607 169.117 104.704 159.425 97.9489C159.136 97.7476 158.576 97.5375 158.768 97.0689C159.351 95.6543 171.775 105.17 171.326 105.972Z" fill="#006AE7"/>
<path d="M151.929 130.404C137.244 136.532 138.055 138.2 137.631 137.654C136.543 136.257 149.54 129.338 151.929 130.404Z" fill="#006AE7"/>
<path d="M107.206 148.087C104.887 147.01 105.777 144.325 103.861 144.464C103.588 144.484 103.175 144.522 103.159 144.102C103.141 143.607 103.59 143.772 103.841 143.717C105.321 143.416 104.029 142.669 104.982 140.294C105.073 140.074 105.177 139.752 105.422 139.844C105.722 139.954 105.539 140.284 105.493 140.499C105.311 141.365 105.038 143.636 105.81 143.56C108.677 143.279 108.667 143.532 108.81 142.9C109.374 140.433 110.742 138.817 112.153 140.723C113.285 142.25 112.6 143.181 113.626 143.033C115.219 142.804 115.195 143.578 113.808 143.715C112.553 143.84 113.626 145.035 112.553 147.367C112.462 147.566 112.355 147.901 112.099 147.779C111.897 147.684 112.022 147.415 112.027 147.214C112.093 144.208 112.233 144 111.659 144.098C109.649 144.441 109.391 144.134 109.299 144.888C109.111 146.396 109.019 148.929 107.206 148.087ZM108.308 146.217C108.489 144.87 108.671 144.403 108.126 144.457C106.082 144.636 105.609 144.338 105.878 145.007C106.168 145.765 106.621 146.414 107.191 146.885C107.753 147.347 108.042 147.201 108.308 146.217ZM109.808 142.339C109.466 143.439 109.408 143.347 111.669 143.166C111.823 143.154 112.049 143.2 111.992 142.851C111.954 142.494 111.856 142.151 111.704 141.842C111.553 141.533 111.35 141.264 111.11 141.052C110.467 140.533 110.142 141.602 109.808 142.339Z" fill="#006AE7"/>
<path d="M107.206 148.087C104.887 147.01 105.777 144.325 103.861 144.464C103.588 144.484 103.175 144.522 103.159 144.102C103.141 143.607 103.59 143.772 103.841 143.717C105.321 143.416 104.029 142.669 104.982 140.294C105.073 140.074 105.177 139.752 105.422 139.844C105.722 139.954 105.539 140.284 105.493 140.499C105.311 141.365 105.038 143.636 105.81 143.56C108.677 143.279 108.667 143.532 108.81 142.9C109.374 140.433 110.742 138.817 112.153 140.723C113.285 142.25 112.6 143.181 113.626 143.033C115.219 142.804 115.195 143.578 113.808 143.715C112.553 143.84 113.626 145.035 112.553 147.367C112.462 147.566 112.355 147.901 112.099 147.779C111.897 147.684 112.022 147.415 112.027 147.214C112.093 144.208 112.233 144 111.659 144.098C109.649 144.441 109.391 144.134 109.299 144.888C109.111 146.396 109.019 148.929 107.206 148.087ZM108.308 146.217C108.489 144.87 108.671 144.403 108.126 144.457C106.082 144.636 105.609 144.338 105.878 145.007C106.168 145.765 106.621 146.414 107.191 146.885C107.753 147.347 108.042 147.201 108.308 146.217ZM109.808 142.339C109.466 143.439 109.408 143.347 111.669 143.166C111.823 143.154 112.049 143.2 111.992 142.851C111.954 142.494 111.856 142.151 111.704 141.842C111.553 141.533 111.35 141.264 111.11 141.052C110.467 140.533 110.142 141.602 109.808 142.339Z" fill="#006AE7"/>
<path d="M121.508 164.682C121.487 164.682 105.669 163.437 98.716 167.012C98.4414 167.153 98.1423 167.21 97.8453 167.177C97.5483 167.144 97.2626 167.023 97.0137 166.824C96.7646 166.626 96.5604 166.355 96.4195 166.037C96.2787 165.718 96.2057 165.363 96.2071 165.002C96.2298 154.742 99.8573 138.814 100.018 138.108L101.591 137.787C99.2689 147.951 96.8627 164.589 97.8157 165.351C98.244 165.695 105.387 161.45 120.932 162.892C120.696 159.007 114.676 142.948 117.691 134.842L118.922 134.598C115.532 143.717 124.847 163.982 121.508 164.682Z" fill="#006AE7"/>
<path d="M190.876 142.078C190.755 138.153 190.104 137.394 189.858 140.49C189.817 141.005 189.776 141.592 189.728 142.207C189.339 142.349 184.95 143.956 184.831 144.425C184.809 144.511 184.938 144.624 185.209 144.683C186.554 144.974 189.515 143.861 190.805 143.323C190.883 142.915 190.907 142.495 190.876 142.078Z" fill="#191919"/>
<path d="M203.951 145.598C202.65 144.72 201.311 143.927 199.941 143.222C199.91 137.741 199.769 134.173 200.591 128.369C201.301 128.519 202.031 128.452 202.715 128.174C203.399 127.897 204.014 127.418 204.506 126.781C206.066 124.481 205.011 121.046 202.862 121.143C202.057 121.179 201.727 121.601 201.741 121.672C201.753 121.801 202.061 121.609 202.711 121.7C204.76 121.991 204.935 125.457 202.984 126.609C202.147 127.067 201.203 127.148 200.322 126.838L199.649 126.609C199.262 128.819 198.988 131.055 198.827 133.306C198.658 136.892 198.709 140.489 198.98 144.067C201.614 145.072 202.979 145.948 204.292 146.27C204.731 146.378 204.931 146.37 204.872 146.27C204.826 146.141 204.517 145.96 203.951 145.598Z" fill="#191919"/>
<path d="M162.757 176.08C163.051 177.774 163.325 178.499 163.206 178.47C162.74 177.711 162.409 176.844 162.236 175.923C161.94 174.749 161.372 172.689 162.271 171.716C163.975 169.87 165.962 177.282 166.329 178.341C169.761 188.257 172.786 187.579 181.177 187.399C197.433 187.049 203.421 187.594 204.635 187.628C211.695 187.824 200.891 188.656 177.474 188.902C174.446 188.934 171.11 188.672 168.827 185.968C166.282 182.954 165.353 178.368 164.121 174.964C163.861 174.084 163.51 173.247 163.077 172.474C162.889 172.226 162.572 172.385 162.509 173.016C162.507 174.045 162.59 175.071 162.757 176.08Z" fill="#191919"/>
<path d="M159.552 181.936C159.16 182.12 159.023 181.973 159.292 181.462C159.895 180.319 161.814 179.653 163.719 181.047C164.994 182.061 165.9 183.628 166.25 185.425C166.334 186.027 166.149 186.035 165.812 185.629C164.862 184.481 162.935 180.348 159.552 181.936Z" fill="#191919"/>
<path d="M158.037 185.448C157.225 185.557 157.925 184.694 158.64 184.275C159.713 183.647 160.804 184.081 161.822 184.804C162.728 185.361 163.519 186.154 164.141 187.126C164.342 187.468 164.479 187.859 164.543 188.271C164.578 188.571 164.531 188.714 164.448 188.729C164.186 188.774 163.913 187.96 162.39 186.899C161.593 186.256 160.735 185.732 159.835 185.34C159.235 185.244 158.626 185.281 158.037 185.448Z" fill="#191919"/>
<path d="M159.054 191.063C158.705 191.055 158.36 191.148 158.047 191.335C157.734 191.522 157.463 191.796 157.256 192.136C157.006 192.578 156.996 192.837 156.948 192.765C156.93 192.58 156.943 192.392 156.986 192.213C157.028 192.033 157.1 191.866 157.197 191.721C157.449 191.304 157.787 190.975 158.178 190.767C158.568 190.558 158.997 190.478 159.421 190.533C160.556 190.64 161.801 191.661 162.709 193.238C163.64 195.077 164.7 196.816 165.878 198.436C169.215 202.613 173.615 205.158 178.252 206.392C183.771 207.772 189.429 208.143 195.039 207.493C202.977 206.65 211.613 203.088 216.841 195.474C219.917 190.995 221.219 185.197 221.547 179.475C221.689 177.023 221.672 173.954 221.914 176.885C222.341 181.731 221.747 186.63 220.187 191.123C216.407 201.586 206.512 207.036 197.675 208.624C188.519 210.27 177.363 209.741 169.366 203.458C166.834 201.469 165.072 198.951 163.31 196.046C162.824 195.087 162.418 194.216 161.984 193.456C161.127 191.948 160.012 191.063 159.054 191.063Z" fill="#191919"/>
<path d="M186.43 133.757C182.072 129.268 183.068 121.293 182.478 115.155C182.48 115.13 182.476 115.105 182.467 115.083C182.312 113.524 182.143 113.351 181.993 114.94C181.422 120.991 181.102 128.896 184.868 133.629C186.817 136.078 189.681 137.356 192.404 136.19C193.02 135.926 193.326 135.661 193.326 135.56C193.368 135.204 189.428 136.847 186.43 133.757Z" fill="#191919"/>
<path d="M192.794 122.144C193.056 122.115 193.234 121.668 193.198 121.139C193.162 120.61 192.925 120.192 192.664 120.22C192.403 120.249 192.225 120.696 192.26 121.225C192.296 121.754 192.534 122.172 192.794 122.144Z" fill="#191919"/>
<path d="M184.752 121.585C184.768 121.847 184.836 122.094 184.939 122.271C185.042 122.448 185.172 122.54 185.301 122.528C185.43 122.516 185.546 122.4 185.626 122.206C185.705 122.013 185.74 121.756 185.723 121.494C185.715 121.364 185.694 121.237 185.662 121.12C185.63 121.002 185.587 120.896 185.536 120.809C185.485 120.721 185.427 120.654 185.365 120.61C185.303 120.565 185.238 120.546 185.174 120.552C185.11 120.558 185.049 120.589 184.993 120.644C184.938 120.7 184.889 120.777 184.85 120.873C184.81 120.969 184.782 121.082 184.765 121.204C184.748 121.326 184.743 121.456 184.752 121.585Z" fill="#191919"/>
<path d="M183.364 118.25C183.104 119.165 183.981 119.48 184.181 119.209C186.395 116.237 187.969 119.737 187.694 118.593C186.838 115.028 183.625 117.334 183.364 118.25Z" fill="#191919"/>
<path d="M190.947 118.533C190.699 119.663 192.159 116.193 194.472 119.034C194.684 119.293 195.549 118.963 195.265 118.061C194.981 117.16 191.729 114.971 190.947 118.533Z" fill="#191919"/>
<path d="M188.284 121C188.284 121 187.149 124.362 187.255 125.006C187.363 125.664 188.958 126.309 189.526 126.237C190.094 126.165 189.834 125.078 189.597 125.006C189.361 124.934 188.248 124.892 188.154 124.792C188.059 124.678 188.686 121.415 188.284 121Z" fill="#191919"/>
<path d="M187.695 129.625C188.891 132.028 191.061 129.911 191.125 129.225C191.135 129.11 191.118 128.994 191.075 128.891C191.032 128.788 190.966 128.701 190.883 128.643C190.801 128.584 190.707 128.555 190.611 128.559C190.516 128.563 190.423 128.601 190.345 128.666C189.06 131.112 187.317 128.866 187.695 129.625Z" fill="#191919"/>
<path d="M183.092 105.85C183.092 105.85 180.052 109.642 181.804 112.763C183.555 115.884 188.44 106.91 188.44 106.91C193.551 119.116 201.664 116.583 201.664 116.583C197.703 103.157 183.092 105.85 183.092 105.85Z" fill="#191919"/>
<path d="M209.273 119.894C209.273 119.894 210.101 114.657 208.859 112.597C208.859 112.597 215.173 108.635 211.532 101.563C207.892 94.4923 203.749 95.0386 201.761 96.0403C199.774 97.0421 199.608 99.0022 199.644 100.446C199.644 100.446 195.61 97.6839 192.049 97.9557C192.061 97.9577 205.213 102.539 209.273 119.894Z" fill="#191919"/>
<path d="M206.42 147.212C188.439 159.991 183.234 144.766 183.234 144.766C165.573 149.488 160.947 159.318 160.947 159.318C161.988 165.128 163.525 167.762 164.674 170.408C166.221 173.973 167.659 179.72 170.4 183.587C172.152 186.061 180.017 185.92 187.505 185.977C194.994 186.035 204.954 186.277 204.954 186.277L205.936 178.207C220.096 178.41 223.03 172.626 223.03 172.626C214.961 150.188 206.42 147.212 206.42 147.212ZM218.629 169.707C218.37 169.707 217.841 167.41 215.553 163.11C210.482 153.581 209.889 155.203 207.261 151.462C206.908 150.96 206.812 150.675 206.882 150.632C206.965 150.589 207.202 150.774 207.639 151.107C211.435 153.919 214.543 157.904 216.642 162.653C218.491 166.624 218.913 169.707 218.629 169.707Z" fill="#006AE7"/>
<path d="M64.5481 76.8842C63.9018 70.5089 62.396 64.0091 58.2722 59.9515C54.535 56.2765 44.3205 52.6897 39.6298 51.4669C39.2314 51.3633 38.9115 52.102 39.329 52.3248C55.1329 58.4178 62.5163 58.7397 63.8389 81.9606C64.0948 85.4967 63.5859 89.0525 62.3622 92.2788C61.314 94.7939 59.3597 96.214 57.2914 97.3431C51.8305 100.32 45.1308 96.0034 40.5531 92.5368C40.4089 92.4206 40.2406 92.3556 40.0673 92.3494C45.2575 87.7934 47.3194 86.2211 50.1898 83.5704C50.8014 83.0059 50.569 82.3035 49.8498 82.7247C44.377 85.9344 36.7038 95.6958 28.1965 99.0951C24.8015 100.498 21.2215 101.131 17.6365 100.963C14.1873 100.756 10.2696 99.7335 7.52407 97.0509C5.01465 94.5987 4.03203 90.164 4.09492 86.3556C4.30691 81.9805 5.24171 77.7012 6.84408 73.7705C8.16083 69.8429 9.97288 66.1858 12.2157 62.9296C16.8289 56.83 23.5049 54.38 30.2265 53.2267C30.6348 53.1572 30.5473 52.3369 30.1289 52.3578C23.6989 52.7182 17.5535 55.6717 12.6724 60.7476C10.3061 63.5216 8.39728 66.8144 7.04735 70.4505C3.93176 78.1191 0.975688 87.2101 4.56071 94.5976C6.33909 98.2638 9.58412 100.211 12.8665 101.261C19.6009 103.272 26.714 102.155 32.8006 98.1304C35.1281 96.5163 37.3761 94.7399 39.5331 92.8103C39.5097 92.9777 39.532 93.1499 39.5969 93.3005C39.6617 93.4512 39.7654 93.5721 39.8923 93.6449C47.3148 99.3686 55.0236 102.852 61.6139 95.7597C63.4597 93.7751 64.4989 90.4231 64.868 87.5343C65.1597 83.9831 65.052 80.4005 64.5481 76.8842Z" fill="#191919"/>
<path d="M49.0434 80.8828C42.3711 76.2883 34.5375 78.2234 27.4959 81.9171C24.9246 83.1565 22.4666 84.7159 20.1618 86.5701C19.7252 86.9472 20.1527 87.7003 20.7251 87.3805C23.6748 85.7343 29.1914 81.8609 34.2968 80.3183C39.0798 78.8995 44.113 79.3777 48.6542 81.6822C49.0936 81.9127 49.4892 81.1894 49.0434 80.8828Z" fill="#191919"/>
<path d="M51.8763 73.052C51.8544 72.9667 51.8106 72.8922 51.7512 72.8393C51.6919 72.7864 51.6201 72.7578 51.5463 72.7578C51.4725 72.7578 51.4007 72.7864 51.3414 72.8393C51.282 72.8922 51.2382 72.9667 51.2163 73.052C51.0943 74.0402 51.0294 75.0375 51.0222 76.0367C50.9081 77.0097 50.8885 77.9955 50.9638 78.974C50.9798 79.0405 51.0114 79.0999 51.0549 79.1449C51.0983 79.1899 51.1517 79.2186 51.2085 79.2274C51.2652 79.2362 51.3229 79.2247 51.3743 79.1944C51.4257 79.1641 51.4687 79.1162 51.498 79.0567C52.195 77.1685 52.3287 75.0462 51.8763 73.052Z" fill="#191919"/>
<path d="M18.6468 79.775C18.4999 81.6106 18.7372 83.4613 19.3368 85.1568C19.3654 85.2293 19.4125 85.2886 19.4712 85.326C19.5298 85.3635 19.5969 85.377 19.6625 85.3646C19.728 85.3522 19.7885 85.3146 19.8349 85.2573C19.8814 85.2 19.9113 85.1261 19.9202 85.0466C19.9235 83.2645 19.7537 81.4882 19.4143 79.7541C19.3532 79.2469 18.6532 79.2226 18.6468 79.775Z" fill="#191919"/>
<path d="M40.9224 54.801C40.6343 54.6168 39.4329 55.7757 38.5907 56.0943C37.2354 56.6395 35.8039 56.8527 34.3797 56.7216C32.9555 56.5904 31.5672 56.1174 30.2958 55.3302C29.7826 55.0479 29.3533 55.5243 29.8291 55.8947C31.8806 57.3875 34.2979 57.9692 36.6655 57.5398C38.2088 57.3369 42.049 55.5254 40.9224 54.801Z" fill="#191919"/>
<path d="M51.4516 105.42C51.3815 104.074 51.2023 102.739 50.9166 101.436C50.7233 100.496 19.6741 102.917 19.5392 103.739C15.3818 129.067 14.4392 141.765 13.1467 168.816C12.824 175.573 12.3446 185.83 12.6125 192.601C12.6154 192.849 12.6982 193.086 12.8435 193.261C12.9887 193.437 13.1848 193.537 13.3901 193.54C15.8093 193.558 18.2212 193.617 20.6367 193.635C20.8052 193.632 20.9686 193.565 21.1032 193.442C21.2378 193.32 21.3365 193.149 21.385 192.953C25.0138 174.767 27.0493 158.801 31.5267 140.884C32.4282 137.276 33.6542 131.801 34.5866 128.204C35.7425 144.585 38.591 160.743 39.755 177.123L40.8488 192.61C40.8559 192.871 40.9446 193.118 41.0969 193.303C41.2493 193.487 41.4538 193.594 41.6692 193.603C44.9079 194.08 48.193 193.756 51.325 192.65C51.4922 192.587 51.6391 192.463 51.7453 192.295C51.8515 192.127 51.9116 191.922 51.9174 191.711C53.0906 178.282 52.8353 164.624 52.87 151.123C52.9074 136.011 52.6622 120.41 51.4516 105.42Z" fill="#191919"/>
<path d="M27.4559 32.7559C26.8443 31.7294 25.8298 31.5497 25.4059 28.566C25.2654 26.7753 25.2785 24.9717 25.4451 23.1842C25.4438 23.1226 25.426 23.0632 25.3944 23.0148C25.3628 22.9665 25.3192 22.9318 25.27 22.9159C25.2207 22.9 25.1686 22.9038 25.1213 22.9267C25.074 22.9497 25.0341 22.9905 25.0076 23.0431C23.0369 28.2121 25.2646 33.8486 27.3101 33.2422C27.349 33.2263 27.3845 33.2 27.4139 33.1653C27.4433 33.1306 27.4658 33.0883 27.4798 33.0415C27.4938 32.9948 27.499 32.9449 27.4948 32.8954C27.4907 32.846 27.4774 32.7983 27.4559 32.7559Z" fill="#191919"/>
<path d="M30.2576 29.8777C29.5346 29.0369 29.0822 27.9126 28.9815 26.7055C28.9231 25.2479 29.0508 23.6403 30.099 22.7218C30.3123 22.5343 30.1947 22.0845 29.9167 22.1815C27.4556 23.0283 27.2514 29.763 29.8483 30.5128C30.1227 30.5911 30.4627 30.2063 30.2576 29.8777Z" fill="#191919"/>
<path d="M33.7521 30.5608C32.8962 29.4339 33.0694 27.9531 32.6829 26.6002C32.6593 26.5141 32.6113 26.4409 32.5475 26.3933C32.4837 26.3457 32.408 26.3269 32.3338 26.34C32.2597 26.3532 32.1917 26.3975 32.1418 26.4653C32.092 26.533 32.0634 26.6198 32.0612 26.7105C31.9934 27.5191 32.0581 28.336 32.2516 29.1143C32.4451 29.8927 32.7636 30.6173 33.1888 31.2466C33.226 31.2913 33.2702 31.3268 33.3187 31.3509C33.3673 31.375 33.4193 31.3873 33.4717 31.3871C33.5242 31.3868 33.5761 31.3741 33.6246 31.3497C33.673 31.3252 33.7169 31.2894 33.7539 31.2444C33.7909 31.1993 33.8202 31.1459 33.8401 31.0872C33.8601 31.0285 33.8702 30.9656 33.8701 30.9021C33.8699 30.8386 33.8594 30.7758 33.8392 30.7172C33.8189 30.6587 33.7893 30.6055 33.7521 30.5608Z" fill="#191919"/>
<path d="M36.5603 31.7294C36.3929 31.4334 36.2498 31.1184 36.1328 30.7889C36.0325 30.4581 36.0125 30.1085 35.9286 29.7778C35.9126 29.7133 35.8799 29.6568 35.8352 29.6166C35.7905 29.5764 35.7364 29.5547 35.6807 29.5547C35.625 29.5547 35.5709 29.5764 35.5262 29.6166C35.4815 29.6568 35.4488 29.7133 35.4328 29.7778C35.3364 30.2109 35.3418 30.6679 35.4482 31.0975C35.5546 31.5272 35.7579 31.9124 36.0353 32.2101C36.3169 32.5045 36.7663 32.1384 36.5603 31.7294Z" fill="#191919"/>
<path d="M37.3876 26.2237C36.2701 25.249 34.4826 25.5897 34.4634 23.2742C34.4606 23.2289 34.4463 23.1858 34.4224 23.1507C34.3985 23.1156 34.3663 23.0903 34.3301 23.0782C34.2938 23.0662 34.2554 23.0679 34.2201 23.0833C34.1847 23.0986 34.1542 23.1268 34.1325 23.1639C33.149 25.2324 35.1133 26.2336 36.3867 26.7838C37.7267 27.3616 38.2554 28.957 38.5434 30.5205C38.8314 32.084 38.5015 33.5858 38.7257 35.0919C38.7367 35.1348 38.7575 35.173 38.7858 35.202C38.8141 35.231 38.8486 35.2497 38.8853 35.2558C38.9221 35.2619 38.9595 35.2553 38.9932 35.2366C39.0269 35.2179 39.0556 35.188 39.0757 35.1504C40.2634 32.9639 38.97 27.6052 37.3876 26.2237Z" fill="#191919"/>
<path d="M30.0654 36.4619C30.0206 36.2512 29.9092 36.0703 29.7551 35.9583C29.601 35.8462 29.4167 35.8119 29.2419 35.8629C29.0671 35.9139 28.9159 36.046 28.821 36.2307C28.726 36.4154 28.695 36.6378 28.7345 36.85C28.802 37.9283 29.7691 38.0474 30.017 37.2965C30.1026 37.0306 30.1195 36.7396 30.0654 36.4619Z" fill="#191919"/>
<path d="M33.6371 35.9691C33.5195 35.9481 33.3995 35.9678 33.2909 36.0259C33.1822 36.0841 33.0895 36.1783 33.0233 36.2977C32.9572 36.4171 32.9204 36.5567 32.9172 36.7003C32.914 36.844 32.9446 36.9858 33.0054 37.1092C33.0079 37.304 33.0743 37.4896 33.19 37.6251C33.3056 37.7606 33.461 37.8351 33.622 37.832C33.783 37.8289 33.9364 37.7486 34.0485 37.6087C34.1605 37.4688 34.2221 37.2808 34.2195 37.0861C34.2587 36.8451 34.2202 36.5952 34.1119 36.3875C34.0036 36.1798 33.8337 36.0301 33.6371 35.9691Z" fill="#191919"/>
<path d="M31.7208 41.2646C31.7956 40.4409 31.7956 39.6097 31.7208 38.786C31.801 37.9681 31.7814 37.1404 31.6625 36.3294C31.6494 36.2767 31.6241 36.2296 31.5895 36.1938C31.5549 36.1581 31.5126 36.1351 31.4675 36.1276C31.4224 36.1202 31.3765 36.1286 31.3353 36.1519C31.2941 36.1751 31.2592 36.2122 31.235 36.2588C30.9383 37.0499 30.818 37.9212 30.8859 38.786C30.8139 39.6538 30.9074 40.5301 31.1593 41.3473C31.1897 41.4101 31.2346 41.4608 31.2884 41.4931C31.3423 41.5255 31.4028 41.538 31.4625 41.5292C31.5222 41.5204 31.5785 41.4907 31.6244 41.4437C31.6703 41.3966 31.7038 41.3344 31.7208 41.2646Z" fill="#191919"/>
<path d="M33.0158 42.7968C33.0023 42.7691 32.9839 42.7455 32.9619 42.7276C32.9398 42.7098 32.9147 42.6981 32.8885 42.6936C32.8622 42.689 32.8354 42.6917 32.8101 42.7013C32.7848 42.711 32.7617 42.7274 32.7423 42.7494C32.4588 43.1805 32.2683 44.7264 31.7223 44.0891C31.5395 43.8757 31.3941 43.6199 31.2948 43.3371C31.2835 43.2917 31.2605 43.252 31.229 43.2237C31.1976 43.1954 31.1594 43.1802 31.1203 43.1802C31.0811 43.1802 31.043 43.1954 31.0115 43.2237C30.9801 43.252 30.957 43.2917 30.9457 43.3371C30.9076 43.544 30.9135 43.7592 30.9627 43.9626C31.012 44.166 31.103 44.351 31.2274 44.5003C32.2966 46.0263 33.4971 43.6976 33.0158 42.7968Z" fill="#191919"/>
<path d="M40.4741 37.7619C39.9965 35.6361 37.488 34.7529 36.7633 37.1511C36.6457 37.5392 37.1279 37.8898 37.3458 37.5624C38.3895 35.9746 40.0284 37.0111 39.7157 39.5371C39.6173 40.3354 39.3074 42.1834 37.9775 41.2638C37.9193 41.2242 37.8535 41.2035 37.7867 41.204C37.7199 41.2044 37.6544 41.2259 37.5965 41.2663C37.5386 41.3067 37.4905 41.3646 37.4567 41.4343C37.423 41.5041 37.4049 41.5833 37.4041 41.6641C37.3394 42.4855 37.313 43.297 37.313 44.1196C37.2258 45.7331 37.2909 47.3533 37.5071 48.949C37.5859 50.891 38.0492 52.7817 38.858 54.462C38.883 54.5109 38.9217 54.5473 38.9671 54.5645C39.0124 54.5818 39.0614 54.5786 39.105 54.5557C39.1486 54.5328 39.184 54.4917 39.2046 54.4399C39.2252 54.388 39.2296 54.329 39.2171 54.2735C38.4879 50.0736 38.3129 50.9469 38.1288 46.048C38.1589 43.7105 38.0322 43.9222 38.1288 42.3234C39.9491 42.8736 40.8907 39.6198 40.4741 37.7619Z" fill="#191919"/>
<path d="M34.8409 46.3871C33.3351 46.751 31.9851 47.4677 30.441 46.7752C26.0165 44.7905 28.7775 34.9531 28.4785 31.7103C28.4764 31.6412 28.4543 31.5751 28.416 31.5237C28.3777 31.4722 28.3258 31.4386 28.2691 31.4288C28.2125 31.4189 28.1548 31.4335 28.1061 31.4698C28.0574 31.5061 28.0208 31.562 28.0027 31.6276C27.6018 33.0167 27.3757 34.4707 27.3318 35.941C26.1468 34.8472 24.2481 36.2718 24.2618 38.1848C24.2715 38.7297 24.378 39.2657 24.5741 39.7564C24.7702 40.2471 25.0514 40.6809 25.3985 41.0285C25.6424 41.2679 25.9319 41.4299 26.2407 41.4998C26.5495 41.5697 26.8678 41.5452 27.1668 41.4287C27.2004 42.5875 27.3942 43.7313 27.7402 44.8126C28.0857 45.7201 28.6311 46.495 29.3165 47.0526C30.0019 47.6102 30.8009 47.9288 31.626 47.9738C31.6752 50.211 32.1064 49.8482 31.6059 53.6136C31.4993 53.9543 31.3835 54.284 31.286 54.6247C31.2732 54.6813 31.2746 54.7412 31.2902 54.7968C31.3058 54.8524 31.3347 54.9011 31.3733 54.9367C31.4119 54.9722 31.4584 54.993 31.5068 54.9964C31.5553 54.9997 31.6034 54.9855 31.6451 54.9555C31.93 54.677 32.1611 54.3266 32.3222 53.9287C32.4833 53.5308 32.5705 53.0951 32.5776 52.6521C32.793 51.0907 32.7066 49.4902 32.3251 47.976C33.2889 47.9419 34.2251 47.5792 35.026 46.9296C35.0854 46.8999 35.1327 46.8429 35.1574 46.771C35.1821 46.6992 35.1822 46.6184 35.1577 46.5464C35.1332 46.4745 35.086 46.4173 35.0266 46.3874C34.9672 46.3575 34.9004 46.3574 34.8409 46.3871ZM27.1568 40.5433C26.82 40.6023 26.4765 40.5645 26.1541 40.433C25.9143 40.2653 25.7042 40.042 25.5358 39.776C25.3674 39.51 25.2439 39.2065 25.1724 38.8828C25.042 38.5417 25.0116 38.1571 25.086 37.7922C25.1605 37.4274 25.3354 37.1041 25.5821 36.8756C25.8287 36.6471 26.1323 36.5271 26.4429 36.5351C26.7535 36.5432 27.0525 36.679 27.2908 36.9201C27.2206 38.2157 27.1495 39.6061 27.1568 40.5433Z" fill="#191919"/>
<path d="M20.0645 196.807C19.6938 196.601 19.2822 196.528 18.8783 196.597C18.4744 196.665 18.0953 196.872 17.7857 197.194C17.3099 197.617 17.0474 198.186 16.4066 198.11C15.7448 198.033 15.5999 197.405 15.1624 196.865C14.6661 196.287 14.0071 195.959 13.3184 195.946C12.6298 195.933 11.9626 196.236 11.4516 196.794C9.92984 198.361 8.14254 199.504 6.21576 200.143C5.15566 200.514 4.02081 200.569 2.97074 201.001C-0.320774 202.355 0.320028 207.801 4.46746 208.898C6.94624 209.409 9.47492 209.461 11.9666 209.051C16.402 208.511 20.9487 207.7 21.5549 202.6C21.7828 200.648 21.8055 197.801 20.0645 196.807ZM20.1912 203.152C20.0439 203.762 19.7874 204.325 19.4399 204.802C19.0924 205.278 18.6623 205.656 18.1804 205.909C16.1945 206.871 14.0898 207.427 11.9529 207.554C9.70495 207.898 7.43004 207.898 5.18209 207.554C4.64834 207.509 4.12892 207.325 3.65943 207.015C3.18994 206.704 2.7815 206.275 2.46211 205.755C2.28852 205.49 2.17062 205.177 2.11845 204.844C2.06629 204.511 2.0814 204.168 2.16251 203.844C2.24362 203.52 2.38832 203.224 2.58428 202.982C2.78024 202.74 3.02165 202.559 3.28795 202.454C4.14774 202.173 5.02032 201.952 5.90129 201.793C7.71482 201.273 9.42102 200.309 10.9147 198.96C11.5453 198.247 12.2941 197.705 13.1114 197.37C14.527 197.239 15.1797 201.078 17.4539 199.474C18.2579 198.906 19.2451 197.097 20.1056 198.851C20.533 200.232 20.5632 201.747 20.1912 203.152Z" fill="#191919"/>
<path d="M63.3517 203.732C61.9708 201.665 59.7202 201.306 57.9993 199.819C56.2428 198.3 55.1134 195.71 52.8309 195.224C52.3177 195.118 51.7915 195.144 51.2874 195.302C50.7832 195.46 50.3126 195.746 49.9068 196.141C49.1557 196.865 48.9952 197.917 48.4009 198.737C47.4621 200.034 46.2835 197.923 45.2106 197.738C44.8649 197.664 44.5088 197.71 44.1842 197.872C43.8596 198.034 43.5801 198.305 43.3784 198.652C42.2764 200.488 41.6994 205.535 44.2781 207.551C45.7557 208.706 46.4329 207.893 51.0981 209.666C53.1999 210.625 55.4011 211.228 57.6392 211.458C63.1375 211.65 65.7618 207.339 63.3517 203.732ZM58.0375 209.96C54.8645 209.978 51.8283 208.161 48.7701 207.34C46.8887 206.834 44.2635 207.35 43.6118 203.896C43.376 202.602 43.4467 201.254 43.816 200.006C43.9465 200.074 44.0934 200.078 44.2267 200.02C44.3601 199.961 44.47 199.843 44.5342 199.69C44.8779 198.851 46.7893 200.779 47.3226 200.912C47.5886 200.979 47.8634 200.976 48.1283 200.903C48.3933 200.83 48.642 200.688 48.8576 200.488C49.3401 199.95 49.7269 199.298 49.9943 198.573C50.2321 197.907 50.6637 197.369 51.2072 197.061C51.7507 196.754 52.3686 196.698 52.944 196.904C54.8846 197.627 55.9948 200.181 57.6748 201.44C59.3365 202.684 61.7356 203.066 62.7164 205.352C64.1256 208.629 59.9417 209.949 58.0375 209.96Z" fill="#191919"/>
</svg>
