<svg width="56" height="56" viewBox="0 0 56 56" fill="none" xmlns="http://www.w3.org/2000/svg">
<g id="Featured icon">
<rect x="4" y="4" width="48" height="48" rx="24" fill="white"/>
<rect x="4" y="4" width="48" height="48" rx="24" stroke="#006AE7" stroke-width="8"/>
<g id="emoji_events">
<mask id="mask0_354_10393" style="mask-type:alpha" maskUnits="userSpaceOnUse" x="16" y="16" width="25" height="25">
<rect id="Bounding box" x="16.3652" y="16.4336" width="24" height="24" fill="#D9D9D9"/>
</mask>
<g mask="url(#mask0_354_10393)">
<path id="emoji_events_2" d="M23.3652 37.4336V35.4336H27.3652V32.3336C26.5486 32.1503 25.8194 31.8044 25.1777 31.2961C24.5361 30.7878 24.0652 30.1503 23.7652 29.3836C22.5152 29.2336 21.4694 28.6878 20.6277 27.7461C19.7861 26.8044 19.3652 25.7003 19.3652 24.4336V23.4336C19.3652 22.8836 19.5611 22.4128 19.9527 22.0211C20.3444 21.6294 20.8152 21.4336 21.3652 21.4336H23.3652V19.4336H33.3652V21.4336H35.3652C35.9152 21.4336 36.3861 21.6294 36.7777 22.0211C37.1694 22.4128 37.3652 22.8836 37.3652 23.4336V24.4336C37.3652 25.7003 36.9444 26.8044 36.1027 27.7461C35.2611 28.6878 34.2152 29.2336 32.9652 29.3836C32.6652 30.1503 32.1944 30.7878 31.5527 31.2961C30.9111 31.8044 30.1819 32.1503 29.3652 32.3336V35.4336H33.3652V37.4336H23.3652ZM23.3652 27.2336V23.4336H21.3652V24.4336C21.3652 25.0669 21.5486 25.6378 21.9152 26.1461C22.2819 26.6544 22.7652 27.0169 23.3652 27.2336ZM28.3652 30.4336C29.1986 30.4336 29.9069 30.1419 30.4902 29.5586C31.0736 28.9753 31.3652 28.2669 31.3652 27.4336V21.4336H25.3652V27.4336C25.3652 28.2669 25.6569 28.9753 26.2402 29.5586C26.8236 30.1419 27.5319 30.4336 28.3652 30.4336ZM33.3652 27.2336C33.9652 27.0169 34.4486 26.6544 34.8152 26.1461C35.1819 25.6378 35.3652 25.0669 35.3652 24.4336V23.4336H33.3652V27.2336Z" fill="#006AE7"/>
</g>
</g>
</g>
</svg>
