<svg width="220" height="220" viewBox="0 0 220 220" fill="none" xmlns="http://www.w3.org/2000/svg">
<g id="Evaluate Performance Employee 8">
<g id="evaluate-performance-employee-4--work-evaluate-performance-employee-job-office">
<g id="Group">
<path id="Vector" d="M78.7929 167.795C79.4529 168.785 79.343 171.425 80.333 174.285C81.873 178.685 84.7329 177.695 92.2129 177.365C105.193 176.815 121.033 173.955 131.373 173.185C134.123 172.965 136.873 172.305 139.623 171.645C143.143 170.765 141.273 167.355 142.263 167.135C143.253 167.025 143.583 170.765 141.933 172.085C139.403 173.955 129.723 174.835 126.423 174.945C122.243 175.055 101.123 178.685 85.393 178.795C82.093 178.795 80.333 177.475 79.343 174.285C78.903 172.855 78.0229 169.005 78.7929 167.795Z" fill="#191919"/>
<path id="Vector_2" d="M105.302 95.4148C110.252 95.7448 115.092 97.7248 117.732 101.795C118.832 103.445 118.282 103.665 117.292 103.885C86.6022 108.175 88.1422 107.845 88.3622 106.525C89.1322 101.245 93.9722 97.6148 99.1422 96.1848C97.1622 94.0948 97.7122 91.6748 99.3622 90.2448C102.662 87.0548 108.602 89.4748 105.302 95.4148ZM89.2422 106.525C116.522 102.455 117.622 103.445 116.852 102.345C109.702 93.1048 92.6522 95.3048 89.2422 106.525ZM98.9222 93.3248C98.9222 96.5148 102.112 95.4148 102.442 95.5248C104.972 95.8548 106.622 91.0148 103.432 90.0248C101.452 89.2548 98.9222 91.0148 98.9222 93.3248Z" fill="#191919"/>
<path id="Vector_3" d="M68.5616 113.236C68.4516 109.166 69.0016 106.636 72.1916 105.426C74.8316 104.546 87.8116 101.796 87.8116 103.006C87.8116 103.446 87.1516 103.336 84.4016 103.886C73.5116 106.086 70.1016 105.976 69.6616 110.156C68.6716 120.716 74.6116 141.616 73.6216 141.946C72.8516 142.056 69.0016 123.466 68.5616 113.236Z" fill="#191919"/>
<path id="Vector_4" d="M86.4919 161.857C85.8319 161.967 85.7219 161.857 84.7319 153.937C84.4019 151.297 84.182 152.177 94.632 150.527C96.172 150.307 95.622 150.747 97.052 159.437C97.382 160.977 97.1619 160.537 86.4919 161.857ZM94.302 151.847C85.392 152.947 85.3919 152.727 85.5019 153.497C86.7119 161.087 86.382 161.197 87.152 161.087C95.952 159.877 96.0619 160.207 95.9519 159.437C94.7419 151.847 94.852 151.627 94.302 151.847Z" fill="#191919"/>
<path id="Vector_5" d="M80.0017 125.447C79.3417 125.557 79.2317 125.447 78.2417 117.527C77.9117 114.887 77.6917 115.767 88.1417 114.117C89.6817 113.897 89.1317 114.337 90.5617 123.027C90.8917 124.567 90.6717 124.127 80.0017 125.447ZM87.8117 115.327C78.9017 116.427 78.9017 116.207 79.0117 116.977C80.2217 124.567 79.8917 124.677 80.6617 124.567C89.4617 123.357 89.5717 123.687 89.4617 122.917C88.2517 115.327 88.3617 115.217 87.8117 115.327Z" fill="#191919"/>
<path id="Vector_6" d="M82.9705 142.934C82.3105 143.044 82.2005 142.935 81.2105 135.015C80.8805 132.375 80.6605 133.255 91.1105 131.605C92.6505 131.385 92.1005 131.825 93.5305 140.515C93.8605 142.055 93.6405 141.614 82.9705 142.934ZM90.7805 132.815C81.8705 133.915 81.8705 133.695 81.9805 134.465C83.1905 142.055 82.8605 142.165 83.6305 142.055C92.4305 140.845 92.5405 141.175 92.4305 140.405C91.2205 132.815 91.3305 132.705 90.7805 132.815Z" fill="#191919"/>
<path id="Vector_7" d="M119.492 100.144C119.822 99.3741 127.192 98.7141 132.362 99.0441C135.222 99.2641 135.552 100.254 136.432 108.504C137.972 122.584 136.652 123.354 136.432 121.044C134.782 102.014 135.222 100.254 132.802 99.9241C127.852 99.3741 119.822 100.914 119.492 100.144Z" fill="#191919"/>
<path id="Vector_8" d="M104.312 138.096C99.8016 137.436 102.222 135.896 98.8116 139.196C98.5916 139.416 98.4816 139.636 98.1516 139.526C97.7116 139.306 97.8216 138.976 98.1516 137.216C98.4816 135.786 97.2716 136.446 96.0616 135.786C94.7416 135.016 97.1616 134.136 98.0416 134.136C99.2516 134.136 98.5916 133.366 99.0316 131.716C99.4716 130.286 100.572 131.716 101.232 133.036C101.672 133.916 101.892 133.366 103.432 132.706C103.872 132.486 104.422 132.816 104.092 133.476C103.212 135.016 102.442 135.126 103.432 136.006C103.542 136.116 104.972 137.766 104.862 137.986C104.862 138.096 104.642 138.096 104.312 138.096Z" fill="#006AE7"/>
<path id="Vector_9" d="M107.282 118.407C107.832 114.997 107.392 116.427 105.522 115.547C104.862 115.217 104.862 114.777 105.522 114.447C107.392 113.567 108.272 114.227 108.162 113.017C108.162 111.807 108.602 110.157 109.482 111.147C110.802 112.687 110.582 113.567 111.572 113.017C112.122 112.687 113.112 112.027 113.442 112.577C113.662 112.907 113.442 113.237 113.002 113.897C111.902 115.547 112.342 115.107 113.772 117.197C113.882 117.417 114.212 117.637 114.102 117.857C113.882 118.187 113.552 118.077 113.332 117.967C109.592 116.977 110.692 116.427 108.272 118.957C108.052 119.177 107.832 119.507 107.502 119.397C107.172 119.177 107.392 118.737 107.282 118.407Z" fill="#006AE7"/>
<path id="Vector_10" d="M118.943 115.657C119.493 112.247 119.053 113.677 117.183 112.797C116.523 112.467 116.523 112.027 117.183 111.697C119.053 110.817 119.933 111.477 119.823 110.267C119.823 109.057 120.263 107.407 121.143 108.397C122.463 109.937 122.243 110.817 123.233 110.267C123.783 109.937 124.773 109.277 125.103 109.827C125.323 110.157 125.103 110.487 124.663 111.147C123.563 112.797 124.003 112.357 125.433 114.447C125.543 114.667 125.873 114.887 125.763 115.107C125.543 115.437 125.213 115.327 124.993 115.217C121.253 114.227 122.353 113.677 119.933 116.207C119.713 116.427 119.493 116.757 119.163 116.647C118.833 116.427 119.053 115.987 118.943 115.657Z" fill="#006AE7"/>
<path id="Vector_11" d="M94.8524 118.186C94.3024 118.076 92.9824 117.857 92.9824 117.197C92.9824 116.647 94.6324 116.097 95.2924 116.097C96.6124 116.097 95.9524 114.997 96.3924 113.457C96.8324 112.027 97.8224 113.676 98.5924 114.886C99.1424 115.876 99.3624 114.777 100.792 114.447C101.122 114.337 101.342 114.336 101.562 114.666C102.002 115.216 100.132 116.537 100.352 117.197C100.462 117.857 101.342 118.407 101.562 118.957C101.782 119.287 102.442 119.507 102.112 119.947C101.892 120.387 101.342 119.947 100.902 119.947C97.6024 119.177 98.9224 118.407 96.3924 121.047C96.1724 121.267 95.9524 121.706 95.5124 121.486C94.6324 121.156 96.1724 118.406 94.8524 118.186Z" fill="#006AE7"/>
<path id="Vector_12" d="M90.3419 134.245C87.3719 142.055 87.8119 143.485 83.6319 138.205C83.4119 137.985 82.9719 137.655 83.4119 137.325C83.8519 136.995 84.1819 137.215 86.1619 139.415C87.0419 140.515 86.6019 139.195 89.2419 133.365C89.5719 132.705 92.8719 125.555 93.6419 125.445C93.7519 127.315 90.5619 133.805 90.3419 134.245Z" fill="#006AE7"/>
<path id="Vector_13" d="M88.2521 116.753C85.2821 124.563 85.7221 125.993 81.5421 120.713C81.3221 120.493 80.8821 120.162 81.3221 119.832C81.7621 119.502 82.0921 119.723 84.0721 121.923C84.9521 123.023 84.5121 121.703 87.1521 115.873C87.4821 115.213 90.7821 108.063 91.5521 107.953C91.6621 109.933 88.3621 116.423 88.2521 116.753Z" fill="#006AE7"/>
<path id="Vector_14" d="M121.692 111.146C129.062 118.626 133.571 124.126 136.431 127.646C148.641 142.606 149.191 142.056 148.421 142.716C147.761 143.266 147.432 142.386 146.992 142.056C141.602 136.556 126.972 118.736 121.362 111.586C121.252 111.256 121.252 111.036 121.692 111.146Z" fill="#191919"/>
<path id="Vector_15" d="M59.6508 211.796C57.6708 210.146 61.4108 181.766 66.4708 170.546C69.1108 164.826 65.9208 173.296 75.6008 179.016C79.2308 181.106 80.8808 180.666 81.7608 181.436C80.7708 182.866 70.7608 180.336 67.5708 170.656C62.6208 182.866 60.6408 198.816 59.6508 211.796Z" fill="#191919"/>
<path id="Vector_16" d="M143.142 176.048C143.362 172.528 145.672 174.838 154.692 172.638C161.842 170.988 163.162 166.369 163.932 167.029C164.592 167.579 161.511 171.978 156.121 173.518C145.561 176.598 144.572 172.969 144.242 177.259C141.822 206.299 143.142 207.729 142.042 207.729C140.282 207.729 143.032 178.248 143.142 176.048Z" fill="#191919"/>
<path id="Vector_17" d="M182.192 197.934C179.662 195.184 179.552 192.544 166.792 170.984C164.922 167.904 164.922 167.684 165.362 167.464C166.132 167.134 180.982 191.664 182.192 197.934Z" fill="#191919"/>
<path id="Vector_18" d="M132.802 135.234C133.132 139.084 131.812 144.915 134.892 151.955C138.742 160.865 145.672 163.725 146.112 164.055C150.732 167.795 130.492 160.975 131.812 139.965C131.702 139.415 132.032 135.344 132.802 135.234Z" fill="#191919"/>
<path id="Vector_19" d="M77.5818 147.555C77.8018 147.445 78.0218 147.445 78.2418 147.555C78.4618 147.775 78.4618 147.995 78.3518 148.215C76.5918 150.635 73.5118 154.375 73.0718 160.425C72.5218 169.775 77.5818 174.065 77.2518 174.505C75.9318 175.715 66.6918 162.185 75.6018 149.865C75.9318 149.095 76.7018 148.215 77.5818 147.555Z" fill="#191919"/>
<path id="Vector_20" d="M169.872 141.286C168.332 150.196 163.382 153.826 162.832 161.306C162.612 164.606 163.602 165.266 163.052 165.486C162.282 165.816 161.512 162.956 161.842 159.986C163.162 150.196 171.852 145.246 167.452 133.806C167.232 132.926 170.752 135.676 169.872 141.286Z" fill="#191919"/>
<path id="Vector_21" d="M97.1618 211.576C95.5118 209.816 85.6118 182.976 87.3718 182.646C87.7018 182.536 87.8118 182.976 87.8118 183.196C93.6418 200.466 97.8218 210.806 97.1618 211.576Z" fill="#191919"/>
<path id="Vector_22" d="M147.871 123.793C159.531 123.683 161.402 145.023 156.782 149.313C156.452 149.643 156.122 149.533 156.342 149.093C159.202 142.053 158.322 132.373 152.932 126.983C151.832 125.883 150.511 125.443 147.871 124.013V123.793Z" fill="#191919"/>
<path id="Vector_23" d="M138.632 124.564C142.922 123.904 149.191 127.094 151.171 135.674C152.051 139.524 151.502 146.564 150.182 146.234C149.412 146.014 150.072 145.024 150.182 144.364C152.272 126.984 140.172 125.994 138.632 124.564Z" fill="#191919"/>
<path id="Vector_24" d="M161.621 148.876C165.361 140.846 165.582 133.366 158.542 127.096C159.532 126.986 160.962 127.756 161.952 129.076C167.892 136.556 164.481 147.336 161.621 148.876Z" fill="#191919"/>
</g>
<g id="Group_2">
<path id="Vector_25" d="M176.033 134.681C171.083 134.791 171.413 135.121 170.973 134.571C169.983 133.251 168.663 132.261 166.903 132.261C166.133 132.261 163.713 123.791 157.773 125.661C156.783 125.991 156.013 123.681 152.053 122.581C149.193 121.811 148.203 123.571 146.663 122.911C144.573 122.031 142.483 122.031 140.393 122.581C139.403 122.801 139.403 122.801 139.293 121.811C137.973 100.141 137.643 97.2813 134.123 97.1713C133.353 97.1713 133.243 96.7313 133.243 96.2913C132.693 87.7113 132.473 83.7513 132.473 80.7813C132.253 73.0813 130.933 72.3113 132.693 71.2113C139.403 67.2513 150.733 64.2813 151.503 64.1713C152.383 63.9513 152.823 64.0613 153.153 64.9413C154.253 68.2413 157.113 68.1313 159.313 66.9213C164.373 64.1713 163.273 61.7513 165.143 62.3013C174.713 64.8313 180.873 66.0413 184.943 69.2313C186.153 70.1113 187.253 70.1113 186.593 71.2113C183.293 76.9313 182.633 80.7813 182.743 84.1913C182.853 87.3813 181.533 84.9613 178.893 87.1613C169.983 94.9713 166.243 106.741 166.353 115.761C166.573 124.891 169.763 129.951 176.033 134.681ZM164.923 62.8513C164.483 62.8513 162.833 66.9213 158.763 68.1313C158.323 68.2413 158.213 68.4613 158.543 68.9013C161.733 71.7613 161.513 74.5113 162.833 73.3013C165.583 70.8813 167.783 68.0213 169.323 64.6113C169.763 63.9513 170.093 64.2813 164.923 62.8513ZM155.023 68.0213C154.363 67.2513 153.703 67.9113 152.273 64.8313C151.833 63.9513 151.723 64.9413 145.783 66.4813C145.233 66.5913 145.343 66.8113 145.453 67.2513C145.783 68.9013 146.443 70.4413 147.103 71.9813C148.203 74.5113 147.543 73.3013 154.253 69.0113C154.583 68.7913 154.913 68.5713 155.023 68.0213Z" fill="#006AE7"/>
<path id="Vector_26" d="M199.243 123.684C199.793 123.024 199.463 123.574 198.693 87.8239C198.583 85.0739 196.163 86.6139 197.043 85.1839C199.683 81.1139 200.013 80.7839 200.563 81.5539C216.073 100.694 210.243 127.204 197.483 134.244C190.113 138.314 183.403 138.534 176.363 133.584C170.203 129.294 167.563 123.464 167.453 116.204C167.123 103.994 171.963 97.3939 175.813 91.7839C176.473 90.9039 177.023 91.5639 188.023 91.2339C190.883 91.1239 193.743 91.3439 196.713 91.2339C197.373 91.2339 197.483 91.3439 197.483 92.0039C198.363 118.294 198.363 123.244 199.243 123.684Z" fill="#006AE7"/>
<path id="Vector_27" d="M146.112 32.6026C140.722 32.8226 138.742 34.5826 136.322 37.6626C133.902 40.7426 127.852 34.9126 127.522 31.6126C126.642 23.6926 133.793 18.0826 140.943 21.8226C143.473 23.1426 144.132 24.7926 146.882 24.5726C152.492 24.1326 154.912 23.9126 158.652 28.4226C160.742 30.9526 162.282 34.4726 161.402 37.7726C161.072 38.8726 162.832 38.9826 162.172 41.5126C160.852 46.4626 159.643 46.9026 160.743 51.7426C162.503 59.5526 164.372 60.6526 163.272 61.2026C162.832 61.4226 162.832 60.8726 162.722 60.6526C157.332 47.8926 159.753 46.3526 161.293 41.4026C161.733 40.0826 161.182 39.0926 160.302 38.6526C159.422 38.2126 158.652 39.2026 157.882 39.8626C156.672 41.0726 156.232 40.0826 155.352 40.4126C152.822 41.2926 156.013 42.2826 153.593 45.8026C152.273 47.6726 149.412 47.5626 147.982 45.5826C146.882 44.0426 147.322 43.6026 146.662 43.4926C141.492 43.3826 145.672 44.2626 143.582 48.5526C142.812 49.9826 140.833 50.6426 139.293 49.8726C136.653 48.6626 135.772 45.0326 137.422 42.7226C138.742 40.8526 141.382 40.8526 143.032 42.7226C143.472 43.2726 143.802 43.6026 144.572 43.1626C145.562 42.3926 147.432 44.0426 147.102 42.2826C146.442 39.5326 150.623 36.3426 153.593 39.7526C153.813 39.9726 153.812 40.5226 154.472 40.3026C155.462 39.9726 155.462 39.9726 155.132 38.9826C153.042 34.0326 152.052 32.8226 146.112 32.6026ZM153.593 45.2526C154.693 43.6026 154.032 40.7426 152.272 39.5326C150.512 38.3226 148.422 39.0926 147.762 41.1826C146.662 45.1426 151.173 48.7726 153.593 45.2526ZM143.582 47.5626C145.012 43.2726 139.292 39.5326 137.532 43.9326C135.662 48.5526 142.152 52.1826 143.582 47.5626ZM143.693 27.5426C143.143 25.2326 138.412 22.5926 135.002 23.2526C131.922 23.9126 130.932 26.2226 131.922 26.9926C133.022 27.8726 134.012 24.9026 137.972 25.5626C140.502 25.8926 141.163 26.3326 143.693 27.5426ZM146.662 28.2026C153.042 27.9826 145.452 25.4526 145.562 27.5426C145.672 28.3126 146.332 28.2026 146.662 28.2026Z" fill="#191919"/>
<path id="Vector_28" d="M118.502 97.7217C117.292 97.8317 115.972 95.0817 109.152 93.3217C107.722 92.9917 109.372 89.1417 105.192 87.0517C104.642 86.8317 104.642 86.9417 106.952 79.9017C108.382 75.7217 108.602 76.0517 109.152 76.3817C115.312 80.6717 124.882 82.8717 129.722 82.6517C131.372 82.5417 131.372 82.6517 131.482 84.1917C131.702 88.1517 131.922 92.1117 132.252 96.0717C132.362 97.1717 132.252 96.4017 118.502 97.7217Z" fill="#006AE7"/>
<path id="Vector_29" d="M129.722 79.3526C121.032 78.2526 119.162 77.1526 111.792 73.6326C111.242 73.3026 110.582 72.9726 110.692 72.5326C111.572 69.6726 118.942 76.8226 129.172 77.2626C131.482 77.3726 131.482 79.6826 130.272 79.4626C130.162 79.3526 129.942 79.3526 129.722 79.3526Z" fill="#006AE7"/>
<path id="Vector_30" d="M181.863 88.5936C179.113 88.5936 179.113 88.7036 179.003 88.3736C178.893 87.9336 180.213 87.1636 181.313 87.0536C183.513 86.8336 197.703 85.7336 197.483 87.7136C197.263 89.2536 196.493 87.8236 183.073 88.5936H181.863Z" fill="#006AE7"/>
<path id="Vector_31" d="M116.522 70.7717C115.642 69.2317 121.472 63.7317 126.202 41.5117C127.192 43.8217 123.562 58.7817 117.622 68.9017C117.182 69.5617 117.072 70.3317 116.522 70.7717Z" fill="#191919"/>
<path id="Vector_32" d="M158.543 53.0616C157.003 58.5616 153.263 57.1316 153.593 59.3316C153.703 60.3216 153.593 61.2016 153.373 62.1916C153.263 62.6316 153.043 62.7416 152.713 62.7416C152.273 62.6316 152.493 62.3016 152.603 62.0816C152.933 56.1416 153.703 59.9916 147.433 58.4516C143.033 57.3516 140.503 52.2916 141.383 51.9616C141.823 51.7416 141.713 52.2916 141.823 52.4016C145.123 58.5616 151.283 59.0016 155.243 56.5816C156.893 55.3716 157.663 53.2816 158.543 53.0616Z" fill="#191919"/>
<path id="Vector_33" d="M196.492 59.5508C194.842 61.7508 187.692 70.0008 184.942 81.8808C184.832 82.2108 184.942 82.8708 184.502 82.7608C182.852 82.6508 188.022 65.9308 196.492 59.5508Z" fill="#191919"/>
<path id="Vector_34" d="M140.723 51.5234C128.733 62.8534 130.823 72.7534 129.283 74.6234C127.303 69.1234 135.113 53.2834 140.723 51.5234Z" fill="#191919"/>
<path id="Vector_35" d="M195.172 85.1834C194.622 81.7734 204.522 76.9334 200.232 74.2934C194.402 70.6634 193.192 71.2134 193.522 70.5534C193.852 69.5634 199.902 73.0835 200.892 73.6335C205.182 76.3835 198.912 80.5635 195.942 84.7435C195.612 84.9635 195.502 85.1834 195.172 85.1834Z" fill="#191919"/>
<path id="Vector_36" d="M207.272 60.2109C203.532 61.8609 198.032 64.7209 194.402 67.9109C194.072 68.1309 193.742 68.7909 193.412 68.3509C192.642 67.5809 200.452 61.5309 207.272 60.2109Z" fill="#191919"/>
<path id="Vector_37" d="M211.013 63.5111C197.373 68.9011 198.253 70.4411 197.703 69.6711C196.603 68.2411 210.023 62.6311 211.013 63.5111Z" fill="#191919"/>
<path id="Vector_38" d="M212.112 67.9158C200.782 71.3258 201.332 72.5358 201.002 71.7658C200.122 70.3358 211.782 66.9258 212.112 67.9158Z" fill="#191919"/>
<path id="Vector_39" d="M134.782 44.1536C125.762 50.8636 126.862 53.1736 125.872 52.5136C124.882 51.7436 133.242 43.1636 134.782 44.1536Z" fill="#191919"/>
<path id="Vector_40" d="M136.212 47.0117C127.962 53.2817 128.732 54.8217 127.962 54.3817C126.972 53.8317 132.582 47.7817 136.212 47.0117Z" fill="#191919"/>
<path id="Vector_41" d="M137.642 49.7617C130.272 56.3617 130.932 56.9117 130.382 56.5817C129.612 55.9217 134.672 50.6417 137.642 49.7617Z" fill="#191919"/>
<path id="Vector_42" d="M212.992 71.9844C203.532 74.2944 203.752 74.8444 203.532 74.1844C203.202 73.4144 208.482 71.9844 212.992 71.9844Z" fill="#191919"/>
<path id="Vector_43" d="M137.092 42.946C135.772 41.516 137.862 39.316 139.842 38.656C140.502 38.436 140.722 38.986 140.172 39.316C138.742 40.196 137.202 41.076 137.092 42.946Z" fill="#191919"/>
<path id="Vector_44" d="M147.762 36.7821C149.302 36.8921 149.852 36.4521 150.952 36.2321C151.612 36.1221 151.832 36.5621 151.172 36.8921C148.972 38.2121 146.662 37.9921 146.662 37.3321C146.662 36.5621 147.762 36.7821 147.762 36.7821Z" fill="#191919"/>
<path id="Vector_45" d="M152.383 49.1016C148.643 51.6316 148.753 52.0716 148.423 51.7416C148.093 51.3016 150.073 49.2116 152.383 49.1016Z" fill="#191919"/>
<path id="Vector_46" d="M146.332 48.6644C145.122 48.6644 144.902 48.4444 144.792 47.4544C144.792 46.9044 144.462 45.8044 145.012 45.8044C146.002 45.6944 144.682 48.1144 146.332 48.0044C147.322 47.8944 147.432 47.8944 147.432 48.1144C147.542 48.5544 146.772 48.5544 146.332 48.6644Z" fill="#191919"/>
<path id="Vector_47" d="M151.723 42.6134C151.613 43.8234 150.293 43.4934 150.293 42.2834C150.293 41.2934 151.503 41.1834 151.723 42.6134Z" fill="#191919"/>
<path id="Vector_48" d="M139.732 45.5844C139.732 44.3744 141.382 44.8144 141.382 46.1344C141.382 47.4544 139.732 47.0144 139.732 45.5844Z" fill="#191919"/>
</g>
<g id="Group_3">
<path id="Vector_49" d="M54.3721 55.3745C55.8021 56.1445 64.4921 62.5245 68.7821 53.5045C71.3121 48.2245 70.7621 41.9545 69.7721 36.1245C69.4421 34.4745 67.1321 31.8345 66.0321 30.9545C64.9321 30.0745 65.2621 32.6045 61.5221 31.6145C60.9721 31.5045 60.3121 31.1745 59.7621 31.0645C59.2121 33.8145 56.0221 34.3645 53.4921 32.3845C53.3821 35.5745 51.9521 38.3245 48.7621 38.3245C48.6521 38.7645 50.9621 40.4145 49.6421 42.9445C48.8721 44.3745 47.2221 44.4845 45.6821 44.3745C44.9121 44.2645 44.0321 45.1445 44.8021 46.0245C48.1021 50.2045 51.9521 46.9045 52.1721 58.8945C51.7321 58.8945 51.4021 58.7845 51.4021 58.2345C51.5121 57.1345 51.0721 56.0345 50.9621 54.9345C50.8521 54.3845 50.7421 54.2745 50.1921 54.3845C47.9921 55.1545 45.4621 53.6145 45.6821 51.5245C45.6821 51.0845 45.6821 50.9745 45.2421 50.8645C43.5921 50.5345 42.6021 48.9945 42.9321 47.4545C43.3721 45.1445 40.9521 46.7945 39.5221 43.6045C38.0921 40.5245 41.0621 40.3045 40.2921 38.8745C39.0821 36.7845 39.1921 34.0345 40.8421 32.7145C41.9421 31.7245 42.0521 31.0645 41.6121 29.7445C40.7321 26.9945 42.8221 24.1345 45.3521 23.8045C46.8921 23.5845 46.8921 23.5845 47.7721 22.4845C49.8621 20.0645 52.5021 19.8445 54.9221 22.0445C55.8021 22.9245 56.0221 20.3945 59.8721 20.3945C63.5021 20.3945 62.7321 23.8045 64.3821 23.1445C66.6921 22.1545 68.6721 24.5745 68.2321 26.9945C72.1921 26.4445 73.5121 31.2845 71.3121 33.8145C70.4321 34.8045 73.6221 35.1345 72.8521 38.8745C72.5221 40.7445 70.9821 40.5245 71.0921 41.8445C73.1821 61.9745 57.8921 62.0845 54.3721 55.3745ZM58.4421 27.8745C56.6821 30.5145 54.7021 29.0845 54.5921 30.0745C54.5921 30.5145 54.9221 30.7345 55.2521 30.8445C56.9021 31.3945 58.9921 29.6345 58.4421 27.8745ZM50.5221 32.1645C49.9721 32.6045 49.8621 34.2545 48.3221 35.0245C47.6621 35.3545 48.4321 36.4545 49.5321 35.6845C50.4121 35.0245 50.8521 33.5945 50.5221 32.1645ZM49.7521 23.4745C51.7321 22.5945 52.9421 23.6945 53.1621 22.5945C53.3821 21.2745 50.3021 21.3845 49.7521 23.4745Z" fill="#191919"/>
<path id="Vector_50" d="M99.8015 85.8431C97.8215 82.3231 94.9615 79.6831 91.9915 77.0431C80.3315 67.1431 65.0415 70.6631 63.8315 61.2031C63.7215 59.9931 63.6115 60.1031 62.5115 60.2131C61.5215 60.3231 61.8515 60.7631 61.8515 64.5031C61.8515 64.7231 61.9615 64.9431 61.6315 65.1631C61.1915 64.1731 61.1915 63.1831 60.9715 62.0831C60.7515 60.6531 60.7515 60.6531 59.3215 60.7631C58.3315 60.8731 58.7715 61.2031 58.8815 64.7231C58.8815 64.9431 59.1015 65.3831 58.6615 65.4931C58.1115 65.4931 58.2215 64.8331 58.0015 62.5231C57.8915 60.9831 57.7815 61.0931 56.2415 61.2031C54.5915 61.2031 55.2515 60.9831 55.2515 65.4931C54.8115 64.7231 54.5915 63.9531 54.5915 63.1831C54.4815 59.9931 53.8215 61.2031 51.9515 60.2131C50.7415 59.5531 52.2815 63.8431 49.8615 65.0531C42.1615 69.1231 28.3015 67.9131 14.1115 87.6031C8.83153 94.8631 6.30153 103.883 7.18153 114.113C9.49153 138.643 37.8715 149.753 51.7315 122.363C55.0315 115.873 57.1215 105.313 57.1215 104.433C57.1215 103.663 56.3515 103.553 55.8015 103.223C55.3615 103.003 53.6015 107.403 53.1615 107.073C52.7215 106.743 53.6015 105.203 54.0415 104.433C55.2515 102.123 54.2615 102.783 52.8315 101.573C51.5115 100.473 49.0915 105.643 48.7615 105.093C48.4315 104.543 51.2915 101.353 51.0715 100.693C50.9615 100.143 49.9715 99.8131 49.3115 99.4831C48.1015 98.8231 48.1015 98.8231 47.1115 99.9231C46.3415 100.803 45.0215 102.893 44.5815 102.343C44.1415 101.793 47.8815 98.4931 46.8915 97.9431C43.3715 96.4031 45.0215 95.6331 40.6215 99.9231C40.5115 100.033 40.2915 100.253 40.0715 100.143C39.7415 99.9231 39.9615 100.033 42.1615 97.3931C42.4915 96.9531 44.1415 96.1831 41.5015 95.9631C40.4015 95.8531 37.2115 98.0531 36.4415 98.6031C50.7415 106.743 56.7915 109.383 53.8215 108.503C48.7615 106.963 40.9515 102.453 36.4415 99.5931C35.3415 98.9331 35.4515 99.0431 28.8515 103.553C23.6815 107.073 23.9015 107.293 23.6815 107.073C23.3515 106.743 23.6815 106.523 23.9015 106.303C24.7815 105.533 25.6615 104.763 26.6515 104.103C39.9615 94.8631 41.3915 93.8731 44.2515 95.0831C44.6915 95.3031 45.0215 94.9731 45.1315 94.6431C46.1215 90.9031 53.9315 79.0231 61.0815 77.3731C62.5115 77.0431 62.8415 78.2531 62.0715 79.0231C62.0715 79.0231 54.7015 85.7331 55.3615 86.5031C56.1315 87.4931 58.0015 82.5431 67.7915 81.0031C72.8515 80.2331 73.1815 82.3231 70.7615 82.9831C67.7915 83.8631 62.9515 85.4031 60.5315 87.3831C61.5215 87.4931 63.5015 85.6231 67.7915 84.9631C69.5515 84.7431 74.7215 83.8631 74.8315 85.7331C74.9415 87.0531 73.2915 86.2831 65.7015 89.0331C65.0415 89.2531 62.5115 90.1331 62.8415 90.6831C62.9515 90.9031 63.7215 90.3531 65.2615 89.8031C67.9015 88.9231 76.8115 87.9331 76.5915 90.3531C76.5915 90.9031 76.1515 90.9031 75.7115 90.9031C60.4215 92.9931 70.9815 92.2231 74.0615 93.6531C74.7215 93.9831 75.1615 94.8631 73.8415 95.0831C70.3215 95.8531 66.2515 95.0831 64.1615 98.1631C62.7315 100.253 61.6315 100.583 58.9915 102.893C57.6715 103.993 58.5515 103.883 56.3515 113.123C50.0815 139.083 32.9215 134.133 52.6115 136.223C57.7815 136.773 62.9515 136.443 68.1215 135.453C68.5615 135.343 68.6715 135.233 68.5615 134.793C67.4615 126.873 66.1415 116.533 66.8015 108.503C67.2415 103.993 71.4215 102.563 87.4815 100.253C89.2415 100.033 88.0315 98.1631 94.1915 94.4231C95.8415 93.4331 93.9715 89.1431 99.1415 86.8331C100.352 86.8331 100.352 86.8331 99.8015 85.8431Z" fill="#006AE7"/>
<path id="Vector_51" d="M55.8008 102.015C57.3408 100.365 65.5908 98.825 62.5108 94.315C61.0808 92.225 59.3208 90.685 57.2308 89.365C53.2708 86.725 60.0908 88.485 63.6108 94.315C66.5808 99.155 57.5608 102.125 55.8008 102.015Z" fill="#191919"/>
<path id="Vector_52" d="M61.4123 78.3633C55.4723 82.8733 52.9423 85.0733 48.7623 92.4433C46.7823 95.9633 47.0023 96.1833 46.5623 95.9633C45.0223 95.3033 54.8123 79.4633 61.4123 78.3633Z" fill="#191919"/>
<path id="Vector_53" d="M71.2007 82.1037C59.1007 85.5137 58.6607 87.9337 58.1107 87.0537C57.6707 86.2837 65.9207 81.6637 71.2007 82.1037Z" fill="#191919"/>
<path id="Vector_54" d="M61.7422 38.6562C62.2922 39.3162 61.9622 40.3063 63.3922 44.4863C64.0522 46.4663 61.3022 47.5662 60.9722 46.9062C60.5322 46.0263 63.3922 46.6862 62.2922 43.0563C61.8522 41.8463 61.7422 40.5262 61.5222 39.2062C61.5222 38.9862 61.5222 38.8762 61.7422 38.6562Z" fill="#191919"/>
<path id="Vector_55" d="M61.5209 50.3156C60.2009 51.9656 57.3409 51.3056 56.9009 48.8856C56.7909 48.1156 57.4509 47.7856 57.6709 48.3356C58.4409 50.0956 59.6509 50.7556 61.5209 50.3156Z" fill="#191919"/>
<path id="Vector_56" d="M54.041 39.3157C54.151 37.0057 58.111 35.5757 58.111 37.0057C58.111 37.8857 57.011 37.0057 54.041 39.3157Z" fill="#191919"/>
<path id="Vector_57" d="M55.9117 42.5055C54.4817 43.8255 55.4717 39.9755 58.2217 40.9655C58.5517 41.0755 58.8817 41.1855 58.7717 41.5155C58.6617 42.3955 57.4517 41.0755 55.9117 42.5055Z" fill="#191919"/>
<path id="Vector_58" d="M66.3605 40.087C67.6805 40.197 68.1205 41.297 67.7905 41.517C67.4605 41.847 66.4705 40.747 65.1505 41.297C64.2705 41.737 64.1605 39.977 66.3605 40.087Z" fill="#191919"/>
<path id="Vector_59" d="M67.5712 35.6845C64.0512 35.6845 63.9412 35.7945 63.8312 35.3545C63.7212 34.3645 66.5812 34.1445 67.5712 35.6845Z" fill="#191919"/>
<path id="Vector_60" d="M74.5019 86.0654C64.2719 87.1654 61.1919 90.3554 60.7519 89.8054C59.6519 88.2654 71.0919 84.6354 74.5019 86.0654Z" fill="#191919"/>
<path id="Vector_61" d="M76.2611 90.5753C67.1311 90.5753 64.2711 93.3253 63.9411 92.1153C63.5011 90.5753 74.0611 89.3653 76.2611 90.5753Z" fill="#191919"/>
<path id="Vector_62" d="M74.2809 94.8664C71.4209 95.0864 68.5609 95.0864 65.7009 95.3064C65.3709 95.3064 65.0409 95.4164 64.9309 94.9764C64.8209 93.5464 72.4109 93.9864 74.2809 94.8664Z" fill="#191919"/>
</g>
<g id="stars_1_">
<path id="Vector_63" d="M65.1526 13.2428C65.7026 11.2628 66.2526 10.6028 64.9326 10.3828C64.6026 10.3828 63.3926 9.83279 63.3926 9.39279C63.5026 8.62279 65.2626 8.51279 66.0326 8.40279C67.1326 8.29279 66.5826 7.52279 67.2426 5.98279C67.7926 4.55279 68.6726 6.42279 69.3326 7.74279C69.6626 8.40279 69.7726 8.07279 71.5326 7.52279C71.8626 7.41279 72.6326 7.63279 71.7526 8.62279C70.8726 9.72279 69.7726 9.61279 71.9726 12.2528C72.5226 12.9128 72.0826 13.2428 71.4226 13.0228C67.7926 11.5928 68.8926 11.2628 65.9226 13.6828C65.3726 14.2328 65.0426 14.0128 65.1526 13.2428Z" fill="#006AE7"/>
<path id="Vector_64" d="M60.7535 8.40398C60.4235 9.61398 58.3335 10.054 59.6535 11.484C59.9835 11.814 60.2035 12.254 60.4235 12.584C60.5335 12.804 60.9735 13.134 60.7535 13.464C60.5335 13.794 60.0935 13.574 59.8735 13.464C56.2435 12.034 57.6735 11.704 54.5935 14.124C54.0435 14.564 53.6035 14.124 53.8235 13.574C54.3735 11.704 54.8135 11.154 53.9335 10.824C50.5235 9.94398 52.7235 8.73398 54.5935 8.73398C55.6935 8.73398 55.2535 7.85398 55.9135 6.20398C56.3535 5.10398 57.3435 6.53398 57.7835 7.63398C58.2235 9.06398 58.7735 8.07398 60.2035 7.85398C60.4235 7.85398 60.6435 7.96398 60.7535 8.40398Z" fill="#006AE7"/>
<path id="Vector_65" d="M41.3929 14.6717C41.6129 12.6917 42.7129 12.1417 41.2829 11.7017C38.4229 10.8217 39.7429 9.83169 42.1629 9.72169C43.1529 9.72169 42.7129 9.17169 43.4829 7.30169C43.9229 5.98169 44.8029 7.63169 45.4629 8.95169C45.7929 9.83169 46.1229 9.39169 47.7729 8.84169C48.3229 8.73169 48.6529 9.17169 48.3229 9.61169C47.1129 11.0417 46.5629 11.1517 47.1129 11.9217C47.1129 11.9217 48.6529 14.1217 48.4329 14.3417C48.1029 14.8917 45.4629 13.4617 45.4629 13.4617C44.4729 12.9117 44.2529 13.4617 42.2729 15.0017C41.8329 15.3317 41.3929 15.2217 41.3929 14.6717Z" fill="#006AE7"/>
<path id="Vector_66" d="M140.832 16.5456C141.382 14.5656 141.821 14.0156 140.721 13.6856C138.191 13.0256 138.961 11.8156 141.601 11.8156C142.811 11.8156 142.261 10.9356 142.921 9.39564C143.471 7.96564 144.241 9.72564 144.901 11.0456C145.451 12.1456 145.562 11.1556 147.212 10.9356C148.422 10.7156 147.541 12.1456 146.551 12.9156C145.451 13.7956 148.202 15.7756 147.762 16.4356C147.542 16.6556 147.322 16.5456 146.992 16.4356C143.252 14.8956 144.572 14.6756 141.492 17.0956C141.052 17.4256 140.722 17.3156 140.832 16.5456Z" fill="#006AE7"/>
</g>
</g>
</g>
</svg>
