<svg width="180" height="45" viewBox="0 0 180 45" fill="none" xmlns="http://www.w3.org/2000/svg">
<path d="M160.73 29.2087L155.412 34.2192V42.2473H148.264V0H155.412V25.5078L170.222 11.8429H178.8L166.048 24.5968L180.001 42.2473H171.309L160.73 29.2087Z" fill="#006AE7"/>
<path d="M131.145 42.6598C127.991 42.6598 125.16 41.996 122.652 40.6686C120.144 39.3412 118.187 37.5017 116.781 35.1503C115.375 32.7609 114.672 30.0681 114.672 27.0719C114.672 24.0757 115.375 21.4019 116.781 19.0505C118.187 16.699 120.125 14.8596 122.595 13.5322C125.103 12.2047 127.953 11.541 131.145 11.541C134.148 11.541 136.77 12.1478 139.012 13.3615C141.292 14.5751 143.002 16.3198 144.142 18.5954L138.67 21.7812C137.796 20.3779 136.694 19.3349 135.364 18.6522C134.072 17.9316 132.647 17.5713 131.088 17.5713C128.428 17.5713 126.224 18.4436 124.476 20.1883C122.728 21.895 121.854 24.1895 121.854 27.0719C121.854 29.9544 122.709 32.2679 124.419 34.0125C126.167 35.7192 128.39 36.5725 131.088 36.5725C132.647 36.5725 134.072 36.2312 135.364 35.5485C136.694 34.8279 137.796 33.766 138.67 32.3627L144.142 35.5485C142.964 37.8241 141.235 39.5877 138.955 40.8393C136.713 42.0529 134.11 42.6598 131.145 42.6598Z" fill="#006AE7"/>
<path fill-rule="evenodd" clip-rule="evenodd" d="M94.783 11.1289C103.488 11.1289 110.548 18.1616 110.548 26.842C110.548 35.5223 103.488 42.555 94.783 42.555C92.9845 42.555 91.2543 42.2544 89.6414 41.7001C89.6142 41.7018 89.5514 41.7077 89.4424 41.7322C89.2248 41.781 88.9332 41.8784 88.568 42.0258C87.9074 42.2924 87.1314 42.6704 86.3057 43.0725L86.2798 43.0852C86.1992 43.1244 86.1182 43.1638 86.0368 43.2034C85.1387 43.6401 84.1854 44.097 83.3753 44.3867C82.9721 44.5309 82.5518 44.6535 82.1596 44.7001C81.8068 44.7419 81.2477 44.7521 80.7731 44.4059C80.2579 44.0302 80.1333 43.4629 80.1116 43.0786C80.0893 42.683 80.1593 42.2622 80.2505 41.8795C80.4344 41.1076 80.783 40.1856 81.107 39.3381L81.1651 39.1861C81.4814 38.3596 81.7731 37.5972 81.9483 36.9656C82.0413 36.6306 82.0855 36.3861 82.094 36.2233C82.0951 36.2027 82.0956 36.1853 82.0956 36.1707C80.1615 33.5619 79.0176 30.3337 79.0176 26.842C79.0176 18.1616 86.0783 11.1289 94.783 11.1289ZM82.092 36.1115C82.092 36.1115 82.0922 36.1141 82.0932 36.1188C82.0926 36.1137 82.092 36.1115 82.092 36.1115ZM91.355 34.396C91.9227 34.9386 92.6835 35.2418 93.4752 35.241C94.2511 35.2197 94.9893 34.9073 95.5382 34.3678L105.809 24.2156L101.568 19.9907L93.4179 28.0305L89.2347 24.0873L84.9941 28.3967L91.355 34.396Z" fill="#006AE7"/>
<path d="M67.8906 0H74.8975V42.2473H67.8906V0Z" fill="#006AE7"/>
<path d="M51.1003 11.541C54.9255 11.541 57.9932 12.6593 60.3035 14.896C62.6138 17.1326 63.769 20.4497 63.769 24.8472V42.2476H56.6677V25.757C56.6677 23.1034 56.0427 21.1131 54.7929 19.7863C53.5431 18.4216 51.763 17.7392 49.4528 17.7392C46.8395 17.7392 44.7754 18.5353 43.2604 20.1275C41.7455 21.6818 40.988 23.9374 40.988 26.8943V42.2476H33.8867V11.8822H40.6471V15.8058C41.8212 14.4032 43.2983 13.3417 45.0784 12.6214C46.8584 11.9012 48.8657 11.541 51.1003 11.541Z" fill="#006AE7"/>
<path d="M29.6762 11.748V42.2607H22.8979V38.3752C21.7587 39.7466 20.3347 40.8132 18.6259 41.575C16.9171 42.2988 15.0754 42.6607 13.1008 42.6607C9.03765 42.6607 5.8289 41.537 3.47456 39.2895C1.15819 37.0039 0 33.6326 0 29.1757V11.748H7.12V28.2043C7.12 30.947 7.72757 33.0041 8.94272 34.3754C10.1958 35.7087 11.9616 36.3753 14.24 36.3753C16.7842 36.3753 18.7968 35.5944 20.2778 34.0326C21.7967 32.4327 22.5562 30.1471 22.5562 27.1758V11.748H29.6762Z" fill="#006AE7"/>
</svg>
