<svg width="527" height="339" viewBox="0 0 527 339" fill="none" xmlns="http://www.w3.org/2000/svg">
<path fill-rule="evenodd" clip-rule="evenodd" d="M227.487 155.822C216.757 145.741 207.057 134.611 198.534 122.596C197.732 121.441 196.951 120.265 196.17 119.087C192.92 114.186 189.653 109.259 184.745 105.791C184.612 105.698 184.478 105.601 184.341 105.504C182.577 104.241 180.523 102.771 178.372 104.009C175.064 105.914 176.819 110.914 177.985 113.637C178.027 113.735 178.073 113.843 178.122 113.96C179.076 116.208 181.412 121.713 184.022 121.701C184.265 121.699 183.721 120.79 182.559 118.848C182.286 118.391 181.978 117.876 181.638 117.303C180.437 115.28 177.156 108.849 178.768 106.582C181.669 102.505 192.012 117.97 193.325 120.157C198.034 127.615 203.391 134.643 209.336 141.16C215.215 147.836 221.192 154.032 227.487 159.68V155.822Z" fill="#191919"/>
<path fill-rule="evenodd" clip-rule="evenodd" d="M227.487 213.093V209.143C207.663 193.854 193.813 172.451 183.368 156.31C181.739 153.791 180.192 151.4 178.718 149.181C177.342 147.107 176.483 145.483 175.959 144.491C175.613 143.835 175.412 143.456 175.304 143.404C175.07 143.214 175.232 145.329 177.246 149.176C188.65 170.971 207.934 198.145 227.487 213.093Z" fill="#191919"/>
<path d="M144.562 110.189C144.003 110.318 143.483 110.177 143.708 109.263C143.915 108.641 144.342 108.115 144.909 107.785C148.702 105.27 155.742 110.059 155.994 113.953C156.054 114.889 155.562 114.942 154.836 114.501C153.944 113.957 150.232 110.692 147.196 110.136C146.327 109.929 145.421 109.947 144.562 110.189Z" fill="#191919"/>
<path d="M151.851 102.782C150.421 102.672 151.292 101.123 152.894 100.572C155.529 99.6657 159.095 102.237 160.837 104.408C161.8 105.489 162.438 106.82 162.678 108.247C162.761 111.058 158.464 105.525 154.397 103.347C153.122 102.665 152.639 102.957 151.851 102.782Z" fill="#191919"/>
<path d="M159.327 95.9976C159.129 95.2743 160.655 94.2598 164.039 96.2386C167.897 98.4972 169.829 102.653 169.578 104.582C169.318 106.56 167.535 104.03 165.664 101.986C162.236 98.2395 159.6 96.9981 159.327 95.9976Z" fill="#191919"/>
<path d="M180.111 88.7532C179.748 88.2941 179.219 87.9956 178.638 87.9217C178.057 87.8478 177.471 88.0044 177.004 88.358L169.787 93.5938C169.512 93.7969 169.286 94.0592 169.126 94.3612C168.966 94.6632 168.875 94.9973 168.862 95.3389C168.848 95.6805 168.911 96.0208 169.046 96.3348C169.181 96.6489 169.385 96.9286 169.642 97.1534C171.315 98.5692 173.129 100.735 172.296 103.036L183.58 93.0637L180.111 88.7532Z" fill="#006AE7"/>
<path d="M200.101 113.576L188.768 99.5038L184.386 103.273C189.004 107.058 193.07 111.47 196.466 116.38C196.643 116.637 196.871 116.856 197.135 117.023C197.4 117.19 197.695 117.301 198.004 117.349C198.313 117.398 198.628 117.383 198.931 117.306C199.234 117.228 199.518 117.09 199.765 116.899C200.013 116.708 200.219 116.469 200.371 116.195C200.523 115.922 200.617 115.621 200.649 115.31C200.68 114.999 200.648 114.685 200.554 114.387C200.46 114.089 200.306 113.813 200.101 113.576Z" fill="#006AE7"/>
<path d="M140.136 131.115C158.941 114.375 156.661 116.489 156.384 116.512C154.025 117.186 150.907 115.446 149.149 114.262C148.749 113.998 148.274 113.87 147.796 113.897C147.318 113.923 146.86 114.102 146.492 114.408C144.094 116.378 138.909 120.259 136.185 122.365C135.945 122.55 135.745 122.78 135.595 123.043C135.445 123.306 135.349 123.596 135.313 123.896C135.276 124.197 135.299 124.501 135.381 124.792C135.463 125.084 135.602 125.356 135.79 125.593L140.136 131.115Z" fill="#006AE7"/>
<path d="M145.094 137.364L155.865 150.967C156.058 151.205 156.297 151.402 156.567 151.546C156.838 151.689 157.135 151.777 157.44 151.804C157.745 151.831 158.053 151.797 158.345 151.703C158.636 151.609 158.906 151.457 159.138 151.257L183.858 129.601C184.086 129.4 184.271 129.154 184.403 128.88C184.534 128.605 184.609 128.307 184.622 128.003C184.636 127.699 184.589 127.396 184.483 127.11C184.378 126.825 184.216 126.564 184.007 126.342C181.337 123.529 176.342 117.62 174.786 111.565L145.094 137.364ZM151.251 135.139L162.798 125.226C163.033 125.031 163.335 124.935 163.639 124.959C163.944 124.983 164.226 125.126 164.427 125.357C164.526 125.472 164.601 125.606 164.649 125.75C164.696 125.895 164.714 126.047 164.701 126.199C164.689 126.35 164.647 126.498 164.577 126.633C164.507 126.768 164.412 126.888 164.295 126.986C154.9 135.11 152.823 136.853 152.614 136.986C152.369 137.137 152.075 137.191 151.792 137.136C151.509 137.081 151.257 136.922 151.086 136.69C150.915 136.458 150.837 136.17 150.868 135.883C150.899 135.597 151.034 135.329 151.251 135.139ZM178.759 129.345C157.906 147.357 159.403 145.963 159.203 146.09C158.958 146.244 158.663 146.3 158.378 146.246C158.093 146.193 157.838 146.033 157.666 145.8C157.494 145.567 157.416 145.277 157.448 144.989C157.48 144.7 157.62 144.435 157.84 144.245L177.261 127.584C177.496 127.388 177.798 127.293 178.103 127.317C178.407 127.342 178.69 127.485 178.89 127.716C178.99 127.831 179.065 127.965 179.112 128.109C179.159 128.254 179.177 128.406 179.165 128.558C179.153 128.709 179.111 128.857 179.041 128.992C178.971 129.127 178.875 129.247 178.759 129.345ZM176.027 125.054C155.175 143.067 156.671 141.673 156.472 141.8C156.226 141.955 155.932 142.011 155.647 141.957C155.361 141.903 155.107 141.744 154.935 141.51C154.762 141.277 154.684 140.987 154.717 140.699C154.749 140.411 154.889 140.145 155.108 139.956L174.53 123.294C174.765 123.099 175.067 123.003 175.371 123.028C175.676 123.052 175.959 123.195 176.159 123.426C176.258 123.541 176.334 123.675 176.381 123.819C176.428 123.964 176.446 124.116 176.433 124.268C176.421 124.419 176.379 124.567 176.309 124.702C176.239 124.837 176.143 124.956 176.027 125.054Z" fill="#006AE7"/>
<path d="M143.163 90.1167C143.626 90.7265 143.425 91.119 142.593 91.2331C141.191 91.2784 139.803 90.9543 138.566 90.2935C132.134 87.2751 127.779 79.6047 136.095 84.9333C138.583 86.4738 140.946 88.2069 143.163 90.1167Z" fill="#006AE7"/>
<path d="M164.612 79.9138C163.763 81.1776 162.763 79.4084 162.82 75.8566C162.867 74.164 163.043 72.4774 163.346 70.8116C163.718 68.6905 164.381 65.7519 165.538 67.5691C167.147 70.1069 166.14 77.6436 164.612 79.9138Z" fill="#006AE7"/>
<path d="M130.028 107.09C130.987 108.063 129.391 108.814 126.514 108.792C123.638 108.769 120.497 107.983 119.542 107.015C118.587 106.047 120.135 105.294 123.056 105.313C125.977 105.333 129.067 106.113 130.028 107.09Z" fill="#006AE7"/>
<path d="M131.775 133.316C134.528 134.013 126.436 139.663 123.843 139.383C123.236 139.316 122.994 138.94 123.241 138.258C124.041 136.048 129.416 132.717 131.775 133.316Z" fill="#006AE7"/>
<path d="M145.889 147.073C147 146.63 147.31 148.24 146.669 150.608C146.028 152.976 144.615 155.194 143.494 155.681C142.373 156.168 141.961 154.694 142.64 152.269C143.307 149.885 144.778 147.517 145.889 147.073Z" fill="#006AE7"/>
<path d="M203.195 103.282C202.27 102.588 203.202 101.452 205.391 100.754C207.579 100.057 210.196 100.067 211.079 100.75C211.983 101.452 210.85 102.577 208.698 103.283C206.58 103.977 204.145 103.994 203.195 103.282Z" fill="#006AE7"/>
<path d="M190.972 86.4461C189.91 86.2571 190.121 84.8287 191.481 83.2224C192.81 81.6476 194.773 80.5229 195.836 80.7119C196.898 80.9008 196.671 82.3214 195.327 83.9376C193.999 85.5305 192.032 86.6388 190.972 86.4461Z" fill="#006AE7"/>
<path d="M119.746 238.667C119.295 239.012 115.552 241.268 115.605 241.64C115.116 235.884 110.302 227.015 106.686 224.225C106.128 223.8 105.81 223.72 105.703 223.907C105.108 223.781 104.505 223.701 103.898 223.667C94.6679 222.969 85.4036 222.827 76.156 223.243C67.2023 223.486 54.5953 223.002 46.2589 227.809C44.8774 228.606 44.2408 229.242 44.2408 229.402C44.2408 229.679 45.5359 229.162 46.4444 228.871C55.8272 225.687 64.0812 226.245 74.1856 226.057C78.5039 225.973 101.496 225.481 105.672 224.358C105.69 224.483 105.716 224.607 105.75 224.729C106.49 226.502 107.332 228.23 108.272 229.906C111.579 236.22 113.231 240.344 114.432 242.384C97.1548 253.283 77.4819 259.807 57.1159 261.392C40.7614 262.488 21.5139 259.974 11.2689 247.088C0.178662 233.197 0.186393 213.309 9.46481 198.4C16.2677 187.435 27.1814 180.719 39.1454 176.153C31.8709 181.755 31.1814 189.586 32.7742 194.417C32.8134 194.538 32.818 194.668 32.7873 194.791C32.7567 194.914 32.6921 195.027 32.6009 195.115C32.5097 195.204 32.3954 195.265 32.2712 195.292C32.147 195.319 32.0177 195.31 31.898 195.268C30.8607 194.953 29.7548 194.943 28.7124 195.241C20.0306 197.174 14.7483 201.479 11.9339 209.868C9.75734 216.345 13.2883 225.054 18.5177 226.621C18.8526 226.721 19.1478 226.923 19.362 227.199C19.5762 227.476 19.6987 227.812 19.7123 228.161C19.8979 231.585 19.7651 240.823 13.421 246.186L24.385 245.018C25.4164 243.083 25.8421 240.883 25.6067 238.704C25.4544 236.441 24.7428 234.252 23.5358 232.332C24.0925 232.863 29.0307 237.774 28.1015 244.624L30.2253 244.385C31.4727 235.332 25.1814 229.783 21.943 227.421C21.8204 227.328 21.7243 227.204 21.6644 227.062C21.6046 226.92 21.5829 226.765 21.6017 226.612C21.6205 226.459 21.679 226.313 21.7714 226.19C21.8639 226.066 21.987 225.969 22.1286 225.908C26.2381 224.073 29.0036 219.961 31.0204 216.086C33.0201 212.29 34.3068 208.16 34.8168 203.9C35.0875 201.957 35.0243 199.982 34.6299 198.06C34.3915 196.971 35.9585 197.742 36.4341 198.007C42.063 200.9 52.9471 200.21 59.3453 186.909C63.1946 178.92 62.7693 174.327 61.7938 171.911C62.4304 171.963 63.0412 171.963 63.6263 171.963C67.4742 177.14 73.9266 179.025 80.2436 179.051C85.9782 179.077 93.7296 177.724 97.3675 172.813C102.355 174.38 107.153 176.498 111.672 179.127C119.948 184.06 123.342 189.373 123.99 189.188C124.592 189.101 121.426 182.572 113.531 177.295C107.388 173.029 98.9693 170.118 91.6548 168.587C91.5762 165.507 91.8417 161.871 91.0182 158.871C91.1471 159.376 98.3726 155.526 99.0079 155.048C104.848 150.508 107.503 143.314 108.406 136.173C108.716 132.998 108.813 129.805 108.697 126.616C108.638 120.008 110.53 114.725 102.061 103.785C97.5737 98.0505 80.6689 84.8571 64.4961 102.618C48.3233 120.378 61.576 133.917 61.576 133.917C60.143 133.917 54.4355 134.368 47.7447 145.73C41.7189 155.95 49.0192 166.383 54.4355 169.756C36.9328 173.53 19.4404 180.153 8.93259 194.657C-7.26598 216.903 -1.53656 250.974 26.9636 260.861C52.1262 269.624 89.8507 260.592 113.455 244.906C118.515 241.566 127.888 234.165 130.525 228.711C127.215 232.323 123.609 235.653 119.746 238.667ZM18.0705 208.376C15.2213 214.531 15.171 214.719 14.778 215.225C14.3849 215.732 13.9288 215.73 13.5834 215.014C13.1441 213.79 13.1255 212.454 13.5306 211.218C14.4069 207.738 17.01 204.687 18.4417 204.183C19.9017 203.705 19.3979 205.536 18.0705 208.376ZM65.6959 128.607C68.5309 124.811 71.5361 127.061 71.5361 127.061C98.2115 118.353 97.102 105.927 97.102 105.927C99.6793 116.545 104.428 122.731 106.767 125.257C106.741 126.266 106.688 127.381 106.609 128.522C105.36 126.718 100.688 123.77 98.6188 128.735C97.8752 130.513 101.513 125.231 105.176 130.513C105.361 130.779 105.999 130.806 106.45 130.461C106.32 132.023 106.143 133.581 105.919 135.132C104.784 142.517 102.092 150.191 95.6986 154.194C94.9113 154.686 94.1059 155.096 93.3352 155.547C90.1767 157.182 85.5568 157.374 80.5671 154.831C79.2127 154.114 78.4691 153.609 78.2836 153.689C78.1238 153.743 78.4691 154.432 79.7436 155.547C82.6717 157.941 86.4115 159.111 90.1819 158.813C89.6664 162.466 89.455 166.733 89.2798 170.335C89.2798 170.335 93.6071 171.609 95.3597 172.139C91.9357 176.094 85.0336 177.155 80.2011 177.103C74.9975 177.05 69.4768 175.748 65.9188 171.819C81.5284 170.413 75.0774 153.847 75.0774 153.847C73.4095 152.173 72.1144 150.165 71.2771 147.956C70.4398 145.746 70.0793 143.384 70.2191 141.025C70.2364 140.826 70.2142 140.625 70.1539 140.435C70.0935 140.244 69.9961 140.067 69.8673 139.914C69.7385 139.762 69.5808 139.636 69.4032 139.544C69.2256 139.452 69.0317 139.396 68.8325 139.379C63.8067 139.167 62.5979 132.842 65.6959 128.607ZM52.3955 143.946C52.7409 142.512 54.4136 141.69 55.1017 142.247C55.8182 142.752 55.4729 143.894 55.1803 144.796C54.862 145.698 54.4909 146.163 53.6945 146.176C52.9535 146.189 52.0244 145.407 52.3955 143.946ZM51.679 159.901C50.4248 157.818 49.7128 155.454 49.6081 153.025C49.604 151.341 50.0632 149.688 50.9355 148.247C51.4934 147.45 51.8916 147.663 52.0772 148.592C52.3169 149.521 52.237 151.247 52.5025 153.185C52.9773 155.114 53.5985 157.005 54.3607 158.84C54.8317 159.956 55.4966 160.981 56.3247 161.865C56.8028 162.396 56.777 162.874 55.768 162.927C54.0669 162.927 52.5334 161.386 51.679 159.901ZM46.5553 176.228C48.5024 175.671 50.5809 175.793 52.4496 176.573C53.4316 177.051 53.3788 177.502 52.3955 177.741C50.8051 178.011 49.2355 178.393 47.6983 178.882C42.7485 180.654 40.773 184.199 38.9637 186.953C38.6454 187.51 37.9019 187.908 37.7704 186.824C37.7148 185.478 37.9881 184.138 38.5668 182.921C39.3085 181.276 40.4122 179.819 41.7954 178.66C43.1786 177.502 44.8057 176.67 46.5553 176.228Z" fill="#191919"/>
<path d="M113.719 216.615C120.35 209.998 125.981 202.44 131.984 195.271C133.497 193.467 134.851 191.049 137.028 189.961C137.185 189.883 137.249 189.924 137.32 190.067C137.763 191.018 137.963 192.064 137.902 193.111C137.842 194.158 137.523 195.173 136.975 196.067C135.101 199.101 131.446 201.156 128.824 203.553C124.245 207.74 129.763 204.407 134.904 200.925C138.067 198.781 140.691 195.907 140.399 191.82C140.336 190.67 140.029 189.548 139.497 188.527C139.252 188.093 138.885 187.74 138.441 187.514C137.997 187.287 137.496 187.196 137 187.253C134.19 187.525 132.164 190.62 130.549 192.616C124.481 199.807 118.783 207.303 113.48 215.075C113.292 215.365 111.592 217.523 111.887 217.942C112.15 218.316 113.532 216.8 113.719 216.615Z" fill="#191919"/>
<path d="M141.384 205.538C144.584 203.745 145.766 205.734 146.269 205.667C146.429 205.667 146.593 205.32 146.349 204.658C146.151 204.233 145.867 203.853 145.515 203.543C145.164 203.232 144.752 202.998 144.305 202.854C141.986 202.017 139.601 203.453 137.456 204.606C135.08 205.883 132.009 207.843 130.951 210.473C130.579 211.401 130.845 211.694 131.669 211.27C132.492 210.846 133.838 209.875 135.598 208.881C137.497 207.806 139.411 206.642 141.384 205.538Z" fill="#191919"/>
<path d="M144.595 208.957C141.811 207.586 138.002 209.174 135.542 211.081C134.287 211.975 133.289 213.183 132.649 214.585C132.345 215.403 132.615 215.71 133.365 215.381C134.804 214.75 137.783 212.299 141.675 211.054C144.332 210.203 145.76 211.553 146.24 211.346C146.4 211.267 146.453 210.974 146.215 210.496C145.873 209.808 145.299 209.263 144.595 208.957Z" fill="#191919"/>
<path d="M135.729 216.102C134.607 216.842 133.715 217.881 133.152 219.102C132.894 219.84 133.152 220.132 133.842 219.925C135.139 219.526 137.081 217.98 141.196 216.632C142.736 216.129 143.98 215.859 144.675 215.545C147.233 214.393 140.697 212.44 135.729 216.102Z" fill="#191919"/>
<path d="M94.1018 142.425C95.5259 142.614 96.9668 142.232 98.1108 141.363C98.3154 141.157 98.4678 140.905 98.5554 140.628C98.6431 140.351 98.6634 140.057 98.6147 139.771C98.3048 138.487 97.9056 137.228 97.4201 136C96.4278 133.165 95.326 131.771 94.8711 133.107C94.5982 134.946 94.7805 136.824 95.402 138.576C95.5309 138.947 95.7783 139.572 95.9072 139.903C95.2297 140.345 94.5839 140.832 93.9742 141.363C93.4381 141.867 93.411 142.266 94.1018 142.425Z" fill="#191919"/>
<path d="M87.4131 135.789C88.0227 135.789 88.5008 134.94 88.5008 133.878C88.5008 132.816 88.0227 131.967 87.4131 131.967C86.8036 131.967 86.3242 132.816 86.3242 133.878C86.3242 134.94 86.8023 135.789 87.4131 135.789Z" fill="#191919"/>
<path d="M101.216 136.418C101.827 136.418 102.304 135.569 102.304 134.507C102.304 133.445 101.827 132.596 101.216 132.596C100.605 132.596 100.127 133.445 100.127 134.507C100.127 135.569 100.605 136.418 101.216 136.418Z" fill="#191919"/>
<path d="M86.9075 145.285C86.9861 147.011 92.2967 153.146 95.6949 147.754C96.7825 146.029 91.9475 150.847 88.9784 144.249C88.8025 144.054 88.5673 143.921 88.309 143.872C88.0507 143.824 87.7835 143.861 87.5484 143.978C87.3133 144.096 87.1233 144.288 87.0075 144.524C86.8917 144.76 86.8566 145.027 86.9075 145.285Z" fill="#191919"/>
<path d="M83.7493 129.848C87.0496 124.307 91.029 129.341 90.2004 127.618C87.6231 122.246 82.1952 127.036 81.9697 128.601C81.7442 130.165 83.4504 130.342 83.7493 129.848Z" fill="#191919"/>
<path d="M93.3857 125.973C93.3857 126.193 93.4235 126.411 93.4969 126.614C93.5703 126.817 93.6778 127.001 93.8134 127.156C93.949 127.312 94.1099 127.435 94.2871 127.519C94.4642 127.603 94.6541 127.646 94.8458 127.646C95.0375 127.646 95.2274 127.603 95.4045 127.519C95.5817 127.435 95.7426 127.312 95.8782 127.156C96.0138 127.001 96.1214 126.817 96.1947 126.614C96.2681 126.411 96.3059 126.193 96.3059 125.973C96.3059 125.754 96.2681 125.536 96.1947 125.333C96.1214 125.13 96.0138 124.946 95.8782 124.791C95.7426 124.635 95.5817 124.512 95.4045 124.428C95.2274 124.344 95.0375 124.301 94.8458 124.301C94.6541 124.301 94.4642 124.344 94.2871 124.428C94.1099 124.512 93.949 124.635 93.8134 124.791C93.6778 124.946 93.5703 125.13 93.4969 125.333C93.4235 125.536 93.3857 125.754 93.3857 125.973Z" fill="#006AE7"/>
<path d="M416.678 128.749C417.123 128.085 417.718 127.534 418.415 127.142C419.113 126.749 419.892 126.525 420.691 126.488C422.03 126.566 423.298 127.118 424.267 128.045C424.496 127.127 424.988 126.297 425.684 125.657C426.38 125.017 427.249 124.595 428.182 124.444C429.889 124.298 431.605 124.598 433.161 125.315C434.718 126.031 436.062 127.139 437.061 128.531C438.824 122.856 447.596 123.033 450.073 130.622C452.967 129.176 457.206 130.359 459.412 134.831C461.839 139.801 462.204 147.976 458.221 155.942C457.954 156.404 457.346 155.99 457.539 155.529C457.564 155.481 457.589 155.407 457.612 155.362C456.856 154.773 455.925 154.451 454.966 154.446C454.007 154.442 453.073 154.755 452.311 155.337C452.189 155.412 452.046 155.443 451.905 155.425C451.763 155.408 451.632 155.343 451.533 155.241C448.082 151.447 446.256 146.452 446.449 141.327C439.958 143.206 433.075 143.264 426.553 141.494C423.295 140.843 420.281 139.304 417.846 137.045C415.851 134.879 414.823 131.349 416.678 128.749ZM422.224 137.676C423.965 138.546 424.858 137.133 423.512 136.192C422.678 135.744 421.951 135.121 421.381 134.366C420.812 133.61 420.412 132.74 420.211 131.815C420.152 131.605 420.017 131.424 419.833 131.307C419.648 131.19 419.427 131.146 419.212 131.182C418.996 131.205 418.797 131.308 418.653 131.47C418.51 131.632 418.431 131.842 418.434 132.058C418.58 133.227 418.999 134.344 419.658 135.32C420.316 136.296 421.196 137.103 422.224 137.676Z" fill="#191919"/>
<path d="M397.245 226.703C397.61 223.931 397.878 221.11 398.388 218.361C398.461 217.924 399.166 218.028 399.166 218.459C398.886 223.407 398.334 228.335 397.513 233.223C397.499 233.929 397.316 234.621 396.978 235.242C396.921 235.298 396.85 235.338 396.772 235.359C396.694 235.38 396.612 235.381 396.534 235.361C396.456 235.342 396.385 235.303 396.326 235.248C396.267 235.193 396.223 235.124 396.199 235.047C396 234.584 396.209 234.216 397.245 226.703Z" fill="#191919"/>
<path d="M438.76 156.055C438.76 157.52 437.472 158.634 436.329 157.49C436.062 157.229 435.89 156.885 435.841 156.515C435.793 156.144 435.87 155.768 436.061 155.447C436.209 155.171 436.444 154.951 436.73 154.821C437.015 154.691 437.335 154.658 437.641 154.727C437.947 154.795 438.222 154.963 438.424 155.203C438.626 155.443 438.744 155.742 438.76 156.055Z" fill="#191919"/>
<path d="M426.526 157.084C425.642 158.742 424.052 157.684 423.9 156.476C423.835 156.112 423.914 155.737 424.119 155.43C425.362 153.817 427.606 155.063 426.526 157.084Z" fill="#191919"/>
<path d="M435.846 164.579C434.649 165.198 433.371 165.646 432.05 165.912C431.438 165.969 430.825 165.819 430.31 165.484C429.794 165.15 429.406 164.651 429.21 164.069C428.934 162.812 428.926 161.511 429.186 160.25C429.47 156.923 430.048 153.627 430.912 150.4C431.107 150.011 431.642 150.234 431.667 150.594C431.672 151.274 431.59 151.953 431.424 152.613C430.821 155.944 430.406 159.306 430.183 162.683C430.208 163.683 430.596 164.629 431.715 164.682C433.077 164.756 434.27 163.783 435.509 163.369C435.661 163.348 435.816 163.382 435.945 163.466C436.073 163.55 436.167 163.678 436.208 163.827C436.249 163.975 436.235 164.133 436.169 164.271C436.102 164.41 435.987 164.519 435.846 164.579Z" fill="#191919"/>
<path d="M437.108 169.168C438.713 168.633 439.126 166.882 439.832 165.568C440.099 165.081 440.757 165.446 440.684 165.933C440.204 169.006 438.056 171.264 434.724 170.554C432.195 170.054 431.962 168.93 432.558 168.707C433.395 168.483 435.102 169.86 437.108 169.168Z" fill="#191919"/>
<path d="M442.192 149.959C441.961 149.436 441.675 148.938 441.341 148.474C440.728 147.573 439.901 146.838 438.933 146.335C438.422 146.067 437.887 145.945 437.375 145.679C437.287 145.623 437.218 145.541 437.18 145.443C437.142 145.346 437.136 145.239 437.163 145.138C437.191 145.037 437.25 144.948 437.331 144.883C437.413 144.818 437.514 144.781 437.618 144.777C438.566 144.912 439.47 145.262 440.263 145.798C441.055 146.335 441.715 147.045 442.192 147.875C442.517 148.431 442.739 149.041 442.848 149.676C443.08 150.072 442.354 150.336 442.192 149.959Z" fill="#191919"/>
<path d="M427.261 145.79C426.42 146.303 425.644 146.916 424.95 147.614C424.306 148.32 423.824 149.158 423.539 150.07C423.417 150.46 423.174 151.481 422.566 151.165C422.054 150.898 422.323 150.022 422.444 149.609C422.975 148.045 423.999 146.696 425.363 145.765C425.864 145.459 426.416 145.245 426.993 145.133C427.075 145.115 427.162 145.127 427.237 145.166C427.312 145.206 427.371 145.27 427.403 145.349C427.435 145.427 427.438 145.514 427.412 145.595C427.386 145.676 427.333 145.745 427.261 145.79Z" fill="#191919"/>
<path d="M343.248 189.683C343.327 188.8 343.632 187.952 344.136 187.222C344.639 186.493 345.322 185.905 346.119 185.518C347.575 184.941 349.107 184.58 350.668 184.446C352.247 184.182 353.861 184.199 355.434 184.495C356.018 184.616 355.848 185.444 355.288 185.494C352.499 185.423 349.715 185.751 347.019 186.467C346.056 186.814 345.258 187.508 344.781 188.413C344.337 189.312 344.12 190.306 344.148 191.307C344.196 191.641 343.687 191.672 343.588 191.381C343.355 190.846 343.24 190.267 343.248 189.683Z" fill="#191919"/>
<path d="M350.865 179.798C349.69 180.201 348.632 180.886 347.784 181.794C346.936 182.702 346.324 183.803 346.001 185.003C345.972 185.113 345.901 185.208 345.802 185.266C345.703 185.323 345.586 185.339 345.475 185.31C345.365 185.281 345.271 185.21 345.213 185.111C345.155 185.013 345.139 184.895 345.168 184.785C345.333 183.406 345.91 182.109 346.823 181.063C349.329 178.663 352.645 177.292 356.114 177.221C356.698 177.196 357.671 177.122 358.035 177.682C358.084 177.767 358.103 177.865 358.09 177.962C358.076 178.059 358.032 178.148 357.962 178.217C357.572 178.63 356.721 178.508 356.186 178.508C354.343 178.573 352.533 179.012 350.865 179.798Z" fill="#191919"/>
<path d="M350.69 173.773C349.57 174.438 348.607 175.336 347.864 176.406C347.121 177.476 346.617 178.692 346.385 179.974C346.311 180.412 345.655 180.29 345.631 179.877C345.642 178.77 345.891 177.677 346.361 176.674C346.831 175.671 347.511 174.781 348.356 174.064C350.804 172.005 353.809 170.718 356.989 170.367C357.704 170.124 358.475 170.099 359.204 170.294C359.266 170.329 359.319 170.378 359.359 170.437C359.399 170.496 359.424 170.564 359.434 170.635C359.443 170.705 359.436 170.777 359.413 170.845C359.389 170.912 359.351 170.973 359.3 171.023C358.717 171.535 357.767 171.485 357.038 171.632C354.805 171.934 352.65 172.661 350.69 173.773Z" fill="#191919"/>
<path d="M356.454 166.712C354.343 166.759 352.307 167.504 350.664 168.83C349.495 169.571 348.546 170.612 347.917 171.846C347.768 172.268 347.564 172.669 347.309 173.037C347.262 173.084 347.204 173.117 347.14 173.134C347.076 173.151 347.009 173.152 346.945 173.135C346.881 173.118 346.822 173.085 346.775 173.038C346.728 172.992 346.694 172.934 346.676 172.87C346.589 172.357 346.666 171.83 346.896 171.363C347.8 169.097 350.789 167.216 353.097 166.303C354.209 165.8 355.47 165.74 356.624 166.136C356.941 166.223 356.771 166.709 356.454 166.712Z" fill="#191919"/>
<path d="M355.192 193.384C353.384 191.917 351.287 190.848 349.038 190.247C346.612 189.64 347.165 190.009 347.165 189.735C347.317 189.433 347.578 189.198 347.895 189.079C350.365 188.45 352.91 188.163 355.459 188.228C356.239 188.166 356.971 187.829 357.524 187.276C358.077 186.724 358.415 185.991 358.476 185.212C358.535 184.447 358.316 183.688 357.86 183.071C357.404 182.455 356.742 182.023 355.994 181.855C354.266 181.456 353.228 181.726 354.779 181.416C355.447 181.319 356.122 181.278 356.797 181.295C361.992 181.295 362.18 174.534 356.578 174.534H356.335C358.335 174.106 359.634 174.275 361 173.123C361.472 172.715 361.814 172.179 361.984 171.58C362.155 170.981 362.147 170.346 361.961 169.751C361.774 169.157 361.419 168.63 360.937 168.235C360.455 167.84 359.869 167.595 359.249 167.529C359.429 167.09 359.503 166.614 359.465 166.141C359.427 165.668 359.277 165.21 359.029 164.805C359.321 164.27 359.589 163.736 359.881 163.199C362.07 163.142 364.25 163.506 366.302 164.27C368.373 165.268 370.143 166.795 371.434 168.697C369.987 171.59 370.434 170.642 369.173 173.123C369.173 172.823 369.183 173.123 369.099 171.858C369.024 171.05 368.651 170.299 368.053 169.751C367.455 169.203 366.675 168.896 365.864 168.891C365.16 168.888 364.475 169.121 363.92 169.553C363.364 169.986 362.97 170.592 362.8 171.275C362.176 174.743 362.946 178.318 364.941 181.223C363.286 184.335 358.228 193.822 357.303 195.404C356.697 194.636 355.986 193.956 355.192 193.384Z" fill="#191919"/>
<path d="M361.589 161.863C361.273 161.863 360.933 161.838 360.616 161.863C361.517 160.16 362.434 158.466 363.366 156.78C363.627 156.175 364.069 155.665 364.63 155.32C367.629 153.678 372.921 156.477 375.065 159.091C376.01 160.14 375.575 160.287 375.088 161.328C374.7 162.106 372.589 166.363 371.903 167.701C370.643 164.802 367.024 162.096 361.589 161.863Z" fill="#191919"/>
<path d="M346.873 191.176C347.52 191.241 348.162 191.352 348.794 191.509C350.906 192.099 352.881 193.099 354.607 194.451C355.83 195.401 356.16 195.874 356.651 196.276C356.01 196.917 350.675 198.96 347.968 200.411C347.892 200.456 347.807 200.483 347.719 200.49C347.631 200.497 347.543 200.484 347.461 200.452C347.378 200.42 347.305 200.37 347.245 200.305C347.185 200.24 347.141 200.162 347.116 200.078C346.43 198.057 345.846 196.004 345.365 193.925C345.857 193.664 346.263 193.265 346.531 192.776C346.799 192.288 346.918 191.731 346.873 191.176Z" fill="#191919"/>
<path d="M437.159 337.646C435.028 329.333 431.711 321.37 427.309 314.003H428.354C426.68 316.817 425.349 319.822 424.39 322.953C422.807 327.63 420.058 336.52 419.209 338.641C419.164 338.772 419.07 338.882 418.948 338.946C418.825 339.011 418.682 339.026 418.548 338.989C418.415 338.952 418.301 338.865 418.229 338.746C418.158 338.627 418.134 338.485 418.164 338.35C418.6 336.598 419.209 334.919 419.768 333.193C422.101 326.004 424.304 318.095 427.358 313.366C427.413 313.277 427.49 313.203 427.581 313.152C427.673 313.101 427.776 313.074 427.881 313.074C427.986 313.074 428.089 313.101 428.18 313.152C428.272 313.203 428.349 313.277 428.404 313.366C434.164 322.848 437.369 332.77 437.962 337.396C438.011 337.94 437.328 338.161 437.159 337.646Z" fill="#191919"/>
<path d="M388.463 288.477C384.213 299.164 380.583 310.087 377.591 321.191C375.925 327.441 376.017 328.596 375.159 330.677C374.964 331.115 374.259 331.115 374.282 330.555C374.38 329.107 374.625 327.673 375.012 326.275C377.664 314.794 381.235 303.545 385.69 292.637C386.272 291.11 386.954 289.623 387.733 288.186C387.78 288.102 387.856 288.039 387.947 288.007C388.037 287.975 388.136 287.977 388.225 288.013C388.314 288.048 388.387 288.115 388.431 288.2C388.475 288.286 388.486 288.384 388.463 288.477Z" fill="#191919"/>
<path d="M420.96 273.32C425.709 274.713 430.593 275.594 435.529 275.947C437.195 276.047 439.394 276.02 439.226 276.02C439.649 275.984 440.075 276.009 440.491 276.094C440.597 276.13 440.689 276.199 440.755 276.291C440.82 276.382 440.855 276.492 440.855 276.604C440.855 276.717 440.82 276.827 440.755 276.918C440.689 277.01 440.597 277.079 440.491 277.115C440.079 277.228 439.651 277.269 439.226 277.237C433.737 277.302 428.269 276.548 423.003 274.999C422.193 274.744 421.405 274.426 420.644 274.049C420.254 273.856 420.572 273.24 420.96 273.32Z" fill="#191919"/>
<path d="M423.198 279.002C427.988 280.223 432.899 280.9 437.84 281.021C438.535 280.927 439.243 280.993 439.908 281.215C439.972 281.254 440.025 281.31 440.061 281.376C440.098 281.442 440.117 281.516 440.117 281.592C440.117 281.667 440.098 281.742 440.061 281.808C440.025 281.874 439.972 281.929 439.908 281.969C439.22 282.241 438.475 282.333 437.742 282.236C432.68 282.289 427.648 281.443 422.882 279.737C422.492 279.528 422.809 278.919 423.198 279.002Z" fill="#191919"/>
<path d="M351.253 199.827C352.193 200.624 352.997 201.568 353.635 202.623C354.317 203.565 354.701 204.689 354.738 205.852C359.039 205.331 363.085 203.535 366.358 200.697C367.207 199.957 367.94 199.139 368.747 198.364C368.281 197.786 367.942 197.117 367.752 196.399C367.562 195.681 367.526 194.932 367.646 194.199C368.072 190.095 371.228 186.885 369.445 183.131C368.204 180.573 366.238 179.235 365.458 175.252C365.206 174.131 365.197 172.97 365.433 171.846C365.47 171.742 365.543 171.654 365.638 171.597C365.734 171.541 365.846 171.519 365.955 171.537C366.065 171.554 366.165 171.608 366.238 171.691C366.312 171.774 366.354 171.88 366.358 171.991C366.298 173.922 366.672 175.843 367.451 177.611C368.967 180.832 372.149 182.826 370.904 187.679C370.418 189.552 369.47 191.23 368.983 193.103C368.531 194.546 368.614 196.105 369.217 197.493C369.266 197.436 369.327 197.39 369.395 197.36C369.464 197.329 369.539 197.314 369.614 197.315C369.689 197.316 369.763 197.334 369.831 197.367C369.898 197.4 369.958 197.448 370.005 197.506C372.631 200.327 375.088 203.317 377.472 206.358C380.746 194.262 386.606 181.058 398.68 177.051C406.378 174.504 415.112 176.256 423.101 178.192C424.732 178.486 426.293 179.089 427.697 179.97L428.321 180.395C428.685 179.277 428.925 178.123 429.035 176.953C427.773 176.963 426.518 176.774 425.315 176.393C421.666 175.178 419.745 171.576 419.064 168.027C417.913 159.542 417.954 150.938 419.185 142.464C419.307 141.831 419.518 141.246 419.647 140.615C419.745 140.178 420.498 140.282 420.45 140.711C420.353 141.758 420.378 142.804 420.283 143.877C419.481 151.092 419.425 158.37 420.117 165.597C420.481 168.904 421.449 172.698 424.545 174.497C426.198 175.31 428.04 175.664 429.877 175.52C435.855 175.325 441.669 173.518 446.704 170.29C447.263 170.072 447.621 170.868 447.263 171.238C446.537 171.911 445.718 172.476 444.832 172.916C440.621 175.246 435.942 176.601 431.138 176.881C430.821 176.906 430.53 176.906 430.213 176.93C430.259 178.379 430.02 179.824 429.51 181.181C431.513 182.506 433.748 183.44 436.098 183.934C439.289 184.611 442.597 184.508 445.739 183.632C448.882 182.756 451.766 181.134 454.147 178.904C453.271 174.406 452.965 169.816 453.236 165.242C453.237 165.048 453.314 164.862 453.451 164.725C453.588 164.589 453.773 164.511 453.967 164.51C454.967 164.483 455.928 164.118 456.692 163.473C457.456 162.828 457.979 161.942 458.174 160.961C458.897 157.391 455.175 153.517 452.581 155.828C452.483 155.919 452.356 155.972 452.223 155.978C452.089 155.984 451.958 155.942 451.852 155.86C451.747 155.778 451.674 155.662 451.647 155.531C451.619 155.4 451.639 155.264 451.703 155.147C452.055 154.547 452.604 154.089 453.256 153.849C453.909 153.61 454.624 153.604 455.28 153.834C456.274 154.184 457.167 154.773 457.881 155.548C458.594 156.324 459.107 157.262 459.373 158.282C459.639 159.302 459.652 160.371 459.409 161.396C459.166 162.422 458.675 163.372 457.979 164.164C457.083 165.097 455.902 165.704 454.622 165.89C454.408 170.101 454.711 174.322 455.523 178.459C461.476 175.977 468.152 174.152 474.592 175.45C480.558 176.834 486.002 179.898 490.28 184.28C494.733 188.923 498.508 194.171 501.491 199.87C508.021 211.554 513.094 223.994 516.596 236.911C519.897 249.191 523.474 265.874 516.525 275.999C513.189 280.601 508.531 284.08 503.171 285.972C496.725 288.453 489.769 289.109 482.934 289.637C480.838 289.804 478.769 289.941 476.725 290.039C480.562 300.832 483.39 311.959 485.172 323.275C486.338 330.895 486.32 331.152 486.218 332.883C486.217 332.966 486.186 333.046 486.131 333.109C486.077 333.171 486.001 333.212 485.919 333.223C485.836 333.235 485.753 333.217 485.683 333.172C485.613 333.128 485.561 333.059 485.537 332.98C485.326 332.311 485.164 331.629 485.05 330.937C482.393 311.672 480.175 305.007 475.823 290.077C469.351 290.434 462.859 290.058 456.471 288.956C456.356 288.93 456.251 288.871 456.168 288.786C456.086 288.702 456.03 288.595 456.006 288.479C448.025 289.47 439.937 289.17 432.051 287.593C429.782 287.197 427.559 286.578 425.411 285.745C425.097 285.6 425.265 284.967 425.655 285.016C428.291 285.349 439.795 289.381 456.073 287.303C456.195 285.061 456.101 282.813 455.791 280.589C455.198 274.879 454.347 271.307 454.292 269.786C450.383 270.577 446.371 265.787 442.704 265.12C442.406 265.078 442.122 264.97 441.871 264.804C441.811 264.764 441.763 264.708 441.733 264.642C441.703 264.576 441.693 264.503 441.703 264.432C441.714 264.36 441.744 264.293 441.791 264.238C441.838 264.184 441.9 264.143 441.969 264.122C442.531 263.906 442.802 264.009 443.645 264.221C445.266 264.767 446.798 265.546 448.196 266.532C450.006 267.941 452.204 268.761 454.495 268.881C454.858 268.392 455.273 267.945 455.735 267.548C460.875 262.608 471.011 255.915 483.072 251.202C482.879 249.574 482.928 247.894 482.856 246.242C482.57 240.888 481.796 235.572 480.545 230.359C479.939 228.41 479.443 226.428 479.06 224.424C479.063 224.327 479.096 224.233 479.156 224.156C479.217 224.08 479.3 224.025 479.394 224C479.488 223.975 479.588 223.982 479.678 224.018C479.768 224.055 479.844 224.12 479.894 224.204C480.903 225.617 482.443 232.859 482.789 234.664C483.577 238.964 484.477 247.26 483.979 250.838C489.541 248.739 495.304 247.215 501.176 246.29C502.051 246.143 502.416 247.481 501.54 247.623C486.216 250.17 471.775 256.517 459.537 266.083C461.225 269.199 463.466 280.135 462.703 288.436C471.079 289.016 479.491 288.804 487.828 287.803C496.921 286.868 506.338 284.854 512.904 278.171C517.394 273.624 519.009 268.224 519.107 261.803C519.537 241.563 505.677 204.965 492.736 189.034C486.961 181.955 479.012 176.338 469.922 176.338C465.05 176.536 460.264 177.694 455.84 179.744C456.138 183.704 453.341 188.867 447.691 191.225C440.923 194.057 432.296 192.376 429.157 186.213C428.429 184.951 428.091 183.502 428.184 182.048C427.576 181.635 426.993 181.148 426.336 180.783C424.863 180.066 423.29 179.574 421.671 179.324C415.381 177.871 408.717 176.451 402.281 177.571C396.364 178.676 391.102 182.022 387.591 186.911C382.032 194.014 379.673 203.747 378.007 207.085C383.319 213.669 388.07 220.687 392.211 228.064C392.266 228.158 392.281 228.269 392.254 228.374C392.226 228.479 392.158 228.569 392.065 228.623C391.972 228.678 391.86 228.694 391.755 228.666C391.65 228.639 391.561 228.571 391.506 228.478C390.366 226.683 385.828 219.77 383.342 216.243C379.455 210.735 375.085 205.234 373.978 203.986C371.92 205.816 369.678 207.43 367.289 208.801C363.481 211.136 359.13 212.436 354.665 212.571C355.891 224.964 358.265 231.633 359.821 238.426C359.895 238.789 359.36 239.059 359.19 238.694C358.268 236.754 357.551 234.724 357.049 232.636C354.692 224.136 353.301 215.398 352.902 206.586C352.929 206.416 353.013 206.261 353.141 206.146C353.269 206.031 353.433 205.963 353.605 205.955C353.725 205.955 353.843 205.938 353.962 205.93C353.509 204.395 352.733 202.975 351.686 201.765C351.253 201.339 350.891 200.846 350.614 200.305C350.475 199.947 350.961 199.655 351.253 199.827ZM458.759 266.762C457.613 267.622 456.569 268.609 455.645 269.704C455.645 271.077 458.081 283.521 457.371 287.776C458.704 288.02 460.072 288.213 461.41 288.359C461.541 287.042 461.613 285.72 461.626 284.396C461.553 278.408 460.586 272.464 458.759 266.762ZM454.76 180.343C451.486 183.267 447.398 185.124 443.043 185.667C438.687 186.21 434.269 185.414 430.377 183.384C430.043 183.217 429.71 183.019 429.404 182.849C431.276 195.042 453.229 194.082 454.76 180.343ZM354.575 211.282C355.93 211.258 357.281 211.12 358.614 210.868C365.698 209.4 370.853 204.765 373.427 203.327C372.186 201.845 370.896 200.387 369.632 198.902C368.282 200.761 366.589 202.345 364.645 203.567C361.55 205.624 357.987 206.87 354.285 207.191C354.363 208.556 354.454 209.92 354.575 211.282Z" fill="#191919"/>
<path d="M442.022 271.091C440.545 271.36 439.048 271.507 437.547 271.529C433.731 271.655 429.911 271.517 426.114 271.116C425.358 271.117 424.611 270.951 423.926 270.63C423.866 270.593 423.817 270.539 423.787 270.475C423.757 270.411 423.746 270.339 423.757 270.269C423.767 270.199 423.798 270.134 423.845 270.081C423.893 270.028 423.954 269.991 424.023 269.973C424.77 269.827 425.539 269.827 426.286 269.973C435.333 270.878 440.674 270.12 442.046 270.386C442.41 270.435 442.337 270.991 442.022 271.091Z" fill="#191919"/>
<path d="M416.483 248.693C417.742 249.904 418.853 251.259 419.792 252.732C418.114 252.975 416.46 253.267 414.805 253.565C414.204 252.662 412.611 251.028 411.806 249.966C413.323 249.401 414.889 248.975 416.483 248.693Z" fill="#006AE7"/>
<path d="M423.544 259.67C424.681 260.996 425.661 262.45 426.463 264.002C424.783 264.1 423.082 264.222 421.403 264.367C420.886 263.334 419.795 262.154 418.777 260.5C420.34 260.091 421.935 259.813 423.544 259.67Z" fill="#006AE7"/>
<path d="M439.517 268.331C436.018 260.227 427.256 247.118 421.908 240.092C421.665 239.777 421.421 239.314 421.031 239.218C418.282 238.455 376.693 243.833 368.787 245.591C368.33 244.979 366.924 243.23 366.891 243.181C366.648 242.89 366.671 242.307 367.134 242.233C374.648 240.969 424.948 235.735 424.948 235.735C425.014 235.725 425.082 235.731 425.145 235.752C425.209 235.772 425.266 235.808 425.313 235.855C426.236 236.732 434.847 252.638 440.642 268.326L439.517 268.331Z" fill="#006AE7"/>
<path d="M360.834 248.473C373.907 244.474 415.998 239.841 420.315 240.002C420.724 240.017 420.694 239.951 421.161 240.544C422.396 242.111 429.658 252.178 434.643 260.39C436.187 262.939 437.592 265.569 438.852 268.27C437.852 268.27 436.604 268.319 435.981 268.319C432.691 268.323 429.403 268.152 426.131 267.808C425.251 267.655 424.35 267.68 423.48 267.881C423.126 267.98 422.799 268.158 422.524 268.402C422.248 268.646 422.032 268.95 421.892 269.289C421.751 269.629 421.689 269.997 421.712 270.364C421.734 270.731 421.84 271.088 422.021 271.408C421.656 271.3 421.281 271.235 420.901 271.214C420.339 271.22 419.797 271.416 419.36 271.769C418.923 272.122 418.618 272.612 418.494 273.16C418.378 273.691 418.447 274.245 418.69 274.732C418.932 275.218 419.333 275.607 419.826 275.835C420.738 276.269 421.681 276.635 422.647 276.93C422.14 277.025 421.675 277.279 421.322 277.655C420.969 278.032 420.745 278.511 420.683 279.024C420.62 279.536 420.723 280.055 420.976 280.505C421.229 280.956 421.619 281.313 422.089 281.527C422.882 281.865 423.694 282.157 424.522 282.402C424.03 282.629 423.615 282.994 423.325 283.452C423.036 283.91 422.884 284.441 422.89 284.983C422.895 285.525 423.056 286.053 423.354 286.506C423.652 286.958 424.074 287.315 424.57 287.533C428.707 289.516 441.389 291.45 447.701 291.032C448.315 293.081 449.867 299.326 449.961 299.739C449.994 299.862 449.998 299.991 449.973 300.116C449.948 300.241 449.895 300.358 449.818 300.459C449.74 300.56 449.641 300.642 449.527 300.699C449.413 300.755 449.287 300.785 449.16 300.785C443.978 301.184 419.465 307.898 401.439 311.632C401.349 311.65 401.256 311.648 401.167 311.624C401.078 311.6 400.996 311.555 400.927 311.494C400.858 311.433 400.805 311.356 400.771 311.27C400.738 311.185 400.724 311.092 400.733 311C393.851 293.049 384.025 276.372 371.657 261.653C369.638 259.227 363.947 252.701 360.614 249.371C360.541 249.309 360.486 249.227 360.457 249.136C360.427 249.045 360.423 248.947 360.446 248.854C360.469 248.76 360.518 248.675 360.586 248.608C360.655 248.541 360.741 248.494 360.834 248.473ZM417.546 260.439C418.28 261.67 419.075 262.863 419.928 264.014C420.531 264.891 420.668 265.649 421.291 265.4C421.316 265.375 421.364 265.375 421.388 265.352C423.315 265.18 425.245 265.042 427.177 264.939C427.261 264.934 427.341 264.908 427.412 264.864C427.483 264.82 427.541 264.759 427.582 264.686C427.623 264.614 427.645 264.532 427.647 264.449C427.648 264.365 427.629 264.283 427.591 264.209C426.753 262.26 425.49 260.523 423.893 259.126C423.863 259.093 423.825 259.068 423.782 259.055C423.739 259.042 423.694 259.041 423.65 259.053C423.204 258.944 422.746 258.894 422.287 258.906C420.787 259.029 419.304 259.308 417.862 259.739C417.788 259.752 417.718 259.784 417.658 259.83C417.599 259.877 417.551 259.937 417.52 260.006C417.489 260.075 417.475 260.15 417.479 260.225C417.484 260.301 417.507 260.374 417.546 260.439ZM412.389 252.241C413.039 252.961 413.648 253.716 414.213 254.504C414.3 254.587 414.413 254.638 414.533 254.646C414.653 254.655 414.772 254.622 414.87 254.552L414.895 254.527C416.826 254.168 418.764 253.844 420.708 253.554C420.779 253.535 420.845 253.5 420.9 253.451C420.955 253.402 420.999 253.342 421.027 253.274C421.055 253.206 421.067 253.132 421.062 253.058C421.058 252.985 421.036 252.913 420.999 252.85C419.968 250.954 418.521 249.316 416.767 248.058C416.727 248.036 416.682 248.023 416.636 248.019C416.59 248.015 416.543 248.02 416.499 248.035C415.557 247.938 414.604 248.037 413.702 248.326C412.755 248.579 411.821 248.879 410.904 249.226C410.829 249.248 410.76 249.287 410.703 249.34C410.645 249.393 410.601 249.458 410.572 249.531C410.544 249.604 410.533 249.683 410.54 249.761C410.547 249.839 410.572 249.914 410.613 249.981C411.146 250.781 411.734 251.537 412.389 252.241ZM392.201 268.736C393.049 268.789 393.169 268.543 396.866 267.616C403.389 265.987 405.836 265.724 410.998 264.722C411.363 264.649 411.264 264.041 410.899 264.091C405.282 264.717 399.726 265.807 394.288 267.35C393.495 267.479 392.73 267.742 392.026 268.128C391.969 268.168 391.926 268.226 391.903 268.292C391.881 268.358 391.879 268.429 391.9 268.496C391.92 268.563 391.961 268.622 392.016 268.664C392.072 268.707 392.131 268.734 392.201 268.736ZM386.996 258.326C387.869 258.317 388.737 258.185 389.575 257.936C390.408 257.77 395.315 256.745 396.969 256.428C400.325 255.772 403.682 255.237 407.014 254.459C407.402 254.361 407.306 253.729 406.916 253.778C402.797 254.247 394.546 255.917 391.787 256.527C390.088 256.715 388.42 257.123 386.826 257.743C386.769 257.78 386.725 257.835 386.702 257.9C386.679 257.964 386.677 258.034 386.697 258.099C386.718 258.164 386.758 258.221 386.814 258.261C386.869 258.301 386.927 258.327 386.996 258.326Z" fill="#006AE7"/>
<path d="M500.594 44.8656C501.363 44.584 501.01 43.3351 500.277 43.6419C498.472 44.3891 248.051 126.834 242.997 127.935C242.225 128.101 242.582 129.321 243.315 129.112C290.723 115.572 500.23 44.9991 500.594 44.8656Z" fill="#006AE7"/>
<path d="M253.556 110.438C254.259 111.327 255.146 112.052 256.156 112.565C257.166 113.078 258.276 113.365 259.408 113.408C260.54 113.451 261.668 113.248 262.714 112.813C263.76 112.379 264.699 111.722 265.468 110.889C266.323 110.089 266.993 109.11 267.429 108.022C267.866 106.934 268.058 105.764 267.993 104.594C267.928 103.424 267.607 102.282 267.053 101.249C266.499 100.217 265.725 99.318 264.785 98.617C263.164 97.5343 261.212 97.0593 259.274 97.2757C257.336 97.4922 255.537 98.3861 254.194 99.7999C252.851 101.214 252.05 103.056 251.934 105.003C251.817 106.949 252.392 108.874 253.556 110.438Z" fill="#006AE7"/>
<path d="M280.814 100.842C281.514 101.735 282.4 102.464 283.41 102.98C284.42 103.495 285.531 103.785 286.664 103.828C287.797 103.871 288.927 103.667 289.973 103.23C291.02 102.793 291.959 102.134 292.725 101.297C293.581 100.496 294.25 99.5176 294.687 98.4298C295.123 97.3421 295.316 96.1719 295.251 95.0017C295.185 93.8315 294.864 92.6898 294.31 91.6571C293.756 90.6244 292.982 89.7259 292.043 89.0248C290.422 87.9385 288.469 87.4605 286.529 87.6752C284.59 87.89 282.789 88.7836 281.445 90.1982C280.101 91.6128 279.3 93.4571 279.184 95.405C279.069 97.3529 279.646 99.2789 280.814 100.842Z" fill="#006AE7"/>
<path d="M306.563 93.2923C307.263 94.1842 308.149 94.913 309.16 95.4283C310.17 95.9435 311.28 96.2328 312.413 96.2761C313.547 96.3193 314.676 96.1155 315.722 95.6788C316.769 95.2421 317.708 94.583 318.474 93.7471C319.333 92.9462 320.005 91.9664 320.443 90.8771C320.881 89.7878 321.075 88.6155 321.01 87.4431C320.946 86.2708 320.624 85.1269 320.069 84.0925C319.513 83.058 318.737 82.1582 317.796 81.4567C316.173 80.3635 314.216 79.8808 312.271 80.0943C310.326 80.3078 308.52 81.2037 307.173 82.6229C305.826 84.042 305.026 85.8926 304.914 87.8459C304.802 89.7993 305.387 91.729 306.563 93.2923Z" fill="#006AE7"/>
<path d="M356.284 117.771C356.545 117.611 356.74 117.363 356.833 117.071C356.925 116.78 356.91 116.464 356.789 116.183C356.667 115.902 356.449 115.675 356.173 115.542C355.898 115.409 355.583 115.38 355.288 115.461C350.127 116.652 291.338 136.883 282.513 141.305C281.567 141.778 282.235 143.286 283.235 142.983C293.186 139.951 350.13 121.42 356.284 117.771Z" fill="#006AE7"/>
<path d="M356.284 150.738C356.545 150.578 356.74 150.33 356.833 150.038C356.925 149.746 356.91 149.431 356.789 149.15C356.667 148.869 356.449 148.642 356.173 148.509C355.898 148.376 355.583 148.347 355.288 148.427C350.127 149.619 291.338 169.85 282.513 174.272C281.567 174.744 282.235 176.253 283.235 175.95C293.186 172.918 350.13 154.387 356.284 150.738Z" fill="#006AE7"/>
<path d="M336.002 193.339C336.263 193.18 336.458 192.931 336.55 192.64C336.643 192.348 336.627 192.033 336.506 191.752C336.385 191.471 336.166 191.243 335.891 191.11C335.615 190.977 335.301 190.949 335.006 191.029C329.844 192.22 291.338 205.814 282.513 210.236C281.567 210.709 282.235 212.218 283.235 211.914C293.186 208.882 329.848 196.988 336.002 193.339Z" fill="#006AE7"/>
<path d="M356.284 222.663C356.545 222.504 356.74 222.255 356.833 221.964C356.925 221.672 356.91 221.357 356.789 221.076C356.667 220.795 356.449 220.567 356.173 220.434C355.898 220.302 355.583 220.273 355.288 220.353C350.127 221.544 291.338 241.776 282.513 246.197C281.567 246.67 282.235 248.179 283.235 247.876C293.186 244.844 350.13 226.313 356.284 222.663Z" fill="#006AE7"/>
<path d="M316.018 143.975C316.279 143.816 316.474 143.567 316.566 143.276C316.659 142.984 316.643 142.669 316.522 142.388C316.401 142.107 316.182 141.879 315.907 141.746C315.631 141.614 315.317 141.585 315.022 141.665C309.86 142.856 291.338 148.87 282.513 153.291C281.567 153.764 282.235 155.273 283.235 154.97C293.186 151.938 309.864 147.624 316.018 143.975Z" fill="#006AE7"/>
<path d="M316.018 176.942C316.279 176.782 316.474 176.534 316.566 176.242C316.659 175.951 316.643 175.636 316.522 175.355C316.401 175.074 316.182 174.846 315.907 174.713C315.631 174.58 315.317 174.552 315.022 174.632C309.86 175.823 291.338 181.836 282.513 186.258C281.567 186.731 282.235 188.24 283.235 187.937C293.186 184.905 309.864 180.591 316.018 176.942Z" fill="#006AE7"/>
<path d="M316.018 212.905C316.279 212.745 316.474 212.497 316.566 212.205C316.659 211.914 316.643 211.599 316.522 211.318C316.401 211.037 316.182 210.809 315.907 210.676C315.631 210.543 315.317 210.514 315.022 210.595C309.86 211.786 291.338 217.799 282.513 222.221C281.567 222.694 282.235 224.203 283.235 223.899C293.186 220.867 309.864 216.554 316.018 212.905Z" fill="#006AE7"/>
<path d="M316.018 248.868C316.279 248.708 316.474 248.46 316.566 248.168C316.659 247.877 316.643 247.561 316.522 247.28C316.401 247 316.182 246.772 315.907 246.639C315.631 246.506 315.317 246.477 315.022 246.558C309.86 247.749 291.338 253.762 282.513 258.184C281.567 258.657 282.235 260.165 283.235 259.862C293.186 256.83 309.864 252.517 316.018 248.868Z" fill="#006AE7"/>
<path d="M526.529 182.625C526.529 182.239 520.834 38.0458 519.725 27.9102C519.626 21.2813 516.998 14.9406 512.38 10.1839C508.73 5.61888 503.855 2.18929 498.325 0.297411C488.546 -4.62597 309.507 52.9025 245.806 74.7077C225.835 81.5405 220.056 87.8066 220.684 108.94C226.845 316.307 219.11 310.027 248.838 319.736C253.814 320.753 258.968 320.472 263.803 318.921C267.615 317.791 365.985 277.317 373.944 273.982C372.673 273.905 371.438 273.534 370.335 272.899C369.974 273.051 266.272 315.621 265.908 315.748C256.996 318.863 249.827 320.021 244.731 312.138C252.801 311.709 263.746 306.11 270.622 303.161C276.289 300.732 308.883 288.045 366.389 264.031C367.44 258.764 382.235 256.09 271.892 300.126C263.951 303.295 251.578 309.973 243.417 309.872C236.602 295.993 238.421 277.725 234.393 118.159C233.779 93.8201 240.782 91.0299 263.731 83.2911C281.826 77.1874 491.492 9.34287 502.829 9.29595C505.811 9.29595 506.439 23.8604 506.547 26.2607C510.294 118.257 511.47 151.219 512.398 163.859C513.095 173.291 514.095 192.692 506.453 198.294C506.547 198.612 506.998 200.243 507.175 200.694C516.961 193.028 515.026 174.796 514.614 163.289L514.553 163.419C508.446 21.4347 509.334 18.6771 506.042 9.89152C516.567 12.3207 517.592 23.7846 518.058 34.5554C525.219 201.182 529.681 200.182 511.893 210.852C512.391 211.444 512.936 212.122 513.434 212.757C524.898 206.148 526.854 196.854 526.529 182.625Z" fill="#006AE7"/>
<path d="M271.248 142.168C266.022 142.128 259.851 146.062 254.472 146.145C254.384 147.206 255.017 154.769 254.877 159.138C254.86 159.852 253.696 159.813 253.639 159.128C253.317 155.828 252.961 148.471 253.348 145.358C253.378 145.074 253.601 144.985 253.819 144.945C254.839 144.744 268.815 140.756 271.235 140.849C271.483 140.831 271.729 140.902 271.929 141.051C272.128 141.199 272.268 141.413 272.322 141.656C272.32 146.398 272.429 151.135 272.648 155.866C272.672 156.462 272.15 156.418 271.688 156.38C266.778 156.253 261.212 160.744 256.298 160.745C255.625 160.746 255.802 159.642 256.391 159.621C261.141 159.441 266.558 155.28 271.308 155.173C271.03 150.843 271.01 146.5 271.248 142.168Z" fill="#191919"/>
<path d="M270.907 176.755C271.736 176.773 272.41 177.28 272.371 177.75C272.339 177.826 272.677 191.382 272.648 193.047C272.634 193.906 272.382 194.1 271.341 194.12C267.349 194.154 256.773 199.895 254.076 199.506C253.553 199.427 253.465 198.668 253.465 198.238L253.465 198.238C253.435 193.078 253.404 187.918 253.467 182.759C253.476 182.043 254.569 181.998 254.573 182.715C254.655 187.903 254.721 193.087 254.769 198.267C260.295 198.304 265.947 192.935 271.485 192.835C271.11 191.064 271.158 179.686 271.213 178.065C266.504 177.937 261.512 183.203 256.805 183.048C256.168 183.032 256.206 181.968 256.831 181.948C261.422 181.791 266.316 176.66 270.907 176.755Z" fill="#191919"/>
<path d="M272.301 216.213C272.633 221.647 272.937 227.078 273.285 232.505C273.3 232.743 273.742 233.902 272.718 233.897C266.512 233.847 260.88 236.977 254.666 237.114C254.171 237.124 254.035 236.682 254.015 236.309C253.704 230.044 253.643 226.471 253.551 220.24C253.548 219.924 253.583 219.504 253.964 219.493C258.9 219.316 264.461 215.824 269.111 215.813C269.814 215.802 269.856 217.014 269.139 217.034C264.202 217.225 259.641 220.48 254.701 220.614C254.587 223.119 255.199 234.997 254.959 235.9C260.261 235.596 266.722 232.311 272.05 232.538C271.712 227.117 271.409 221.691 271.251 216.269C271.237 215.667 272.264 215.623 272.301 216.213Z" fill="#191919"/>
<path d="M272.857 251.66C273.686 251.677 274.36 252.185 274.321 252.655C274.289 252.73 274.627 266.286 274.598 267.952C274.583 268.81 274.332 269.004 273.291 269.025C269.298 269.059 258.995 274.596 256.298 274.207C255.775 274.127 255.688 273.369 255.688 272.939L255.688 272.939C255.657 267.779 255.627 262.619 255.689 257.459C255.699 256.744 256.791 256.699 256.796 257.415C256.878 262.603 256.943 267.787 256.991 272.968C262.518 273.004 267.897 267.839 273.435 267.739C273.059 265.968 273.108 254.59 273.163 252.97C268.454 252.841 263.735 257.904 259.027 257.749C258.391 257.733 258.429 256.668 259.054 256.649C263.644 256.492 268.266 251.564 272.857 251.66Z" fill="#191919"/>
<path d="M260.358 153.834C262.539 150.081 265.265 146.673 268.445 143.719L268.467 143.715C269.283 142.96 270.624 144.072 269.823 144.848C266.537 147.972 263.728 151.561 261.484 155.501C261.419 155.62 261.327 155.722 261.217 155.801C261.107 155.88 260.98 155.933 260.846 155.957C260.713 155.981 260.575 155.974 260.445 155.938C260.314 155.901 260.193 155.836 260.091 155.747C257.291 153.91 256.97 153.506 255.584 152.12C254.929 151.389 256.229 150.487 256.902 151.249C257.6 152.04 257.964 152.282 260.358 153.834Z" fill="#006AE7"/>
<path d="M257.627 194.626C257.431 193.685 260.32 190.27 260.96 189.4C260.248 189.09 255.686 187.349 255.72 187.012C255.642 186.916 255.591 186.802 255.571 186.68C255.551 186.559 255.562 186.434 255.605 186.318C255.647 186.202 255.719 186.099 255.812 186.019C255.906 185.939 256.019 185.885 256.14 185.862C257.041 185.777 261.024 187.658 261.906 188.052C263.447 185.947 264.982 183.798 266.534 181.767C267.122 180.995 268.404 181.771 267.829 182.587C266.392 184.656 264.932 186.71 263.449 188.747C265.015 189.476 266.557 190.235 268.094 191.014C268.187 191.047 268.273 191.098 268.346 191.165C268.42 191.231 268.479 191.311 268.521 191.4C268.564 191.489 268.588 191.585 268.593 191.684C268.598 191.783 268.584 191.881 268.551 191.974C268.518 192.067 268.467 192.153 268.401 192.226C268.335 192.299 268.255 192.359 268.166 192.401C268.077 192.444 267.98 192.468 267.881 192.473C267.783 192.478 267.684 192.464 267.591 192.431C265.912 191.612 264.218 190.818 262.511 190.049C261.855 191.004 259.225 195.049 258.454 195.153C258.275 195.188 258.089 195.152 257.936 195.054C257.782 194.956 257.671 194.803 257.627 194.626Z" fill="#006AE7"/>
<path d="M212.855 229.071C214.284 237.453 211.856 240.543 213.716 240.908C215.037 241.166 215.04 239.69 215.213 238.778C215.63 236.578 215.585 234.374 215.302 232.139C215.019 229.904 216.137 227.212 214.318 223.349C212.749 220.018 209.251 220.683 206.39 223.003C193.543 233.414 194.342 233.482 193.091 232.824C192.747 232.642 192.47 232.493 192.234 232.172C190.836 230.263 188.005 229.261 185.916 230.168C183.598 231.177 182.992 229.172 171.68 220.506C167.685 217.445 164.287 218.764 163.339 220.904C157.636 233.785 158.612 234.247 164.578 237.088C163.621 237.831 162.72 238.501 162.808 239.743C162.879 240.733 163.245 240.882 163.897 240.316C165.819 238.648 167.769 238.866 167.675 236.88C167.54 234.017 160.863 235.039 162.017 230.684C162.331 229.496 162.499 227.793 163.304 227.341C164.209 226.834 165 228.558 165.974 229.12C171.086 232.066 176.389 233.4 177.093 232.595C176.484 230.563 167.439 228.815 165.273 225.24C163.897 222.968 165.827 219.421 169.012 221.223C171.784 222.791 178.119 228.677 182.019 231.03C184.567 232.567 179.425 232.597 182.024 239.896C182.131 240.196 182.299 240.563 182.709 240.492C183.456 240.361 183.045 236.556 184.048 234.687C185.377 232.208 187.583 231.491 190.162 232.924C189.39 233.564 187.874 234.586 188.31 235.361C189.101 236.768 194.331 231.318 194.993 239.977C195.032 240.493 194.932 241.136 195.677 241.157C196.383 241.177 196.649 240.603 196.683 240C196.764 238.585 196.968 237.123 196.285 235.805C195.769 234.806 195.985 234.14 196.867 233.538C203.544 228.978 210.05 221.597 211.84 223.92C213.532 226.118 210.295 228.323 202.628 235.518C202.189 235.931 201.555 236.445 202.021 237.061C202.449 237.63 203.073 237.104 203.555 236.862C206.87 235.189 210.395 231.85 212.855 229.071Z" fill="#006AE7"/>
<path fill-rule="evenodd" clip-rule="evenodd" d="M225.114 312.067C207.982 312.251 158.368 312.217 151.53 311.965C149.577 311.894 149.371 311.742 149.354 309.703L149.353 309.626C149.335 308.295 149.093 289.823 149.09 270.55C149.09 266.712 149.068 266.711 145.534 266.625L144.728 266.605C142.706 266.546 142.706 266.31 142.743 251.325C142.747 249.188 142.753 246.751 142.754 243.972C142.754 241.282 143.21 241.296 147.918 241.438C148.952 241.469 150.189 241.507 151.672 241.524C183.429 241.876 191.534 241.897 220.494 241.586L220.491 243.836C216.511 243.939 211.257 244.057 204.324 244.152C203.922 244.158 203.534 244.108 203.176 244.063C202.041 243.919 201.207 243.814 201.22 245.601C201.22 245.624 201.375 263.203 201.378 263.229C201.38 263.553 201.38 263.799 201.487 263.984C201.981 264.842 204.747 264.393 220.462 264.359L220.46 266.572C218.494 266.594 215.902 266.625 212.489 266.627C209.336 266.628 206.887 266.601 204.988 266.58C198.546 266.511 198.436 266.51 198.618 267.888C198.946 270.378 198.899 278.842 198.852 287.492C198.794 298.088 198.734 308.961 199.359 309.468C200.237 309.481 208.335 309.532 225.052 309.628C225.07 310.526 225.091 311.336 225.114 312.067ZM191.827 309.65C191.039 309.637 190.089 309.621 188.945 309.621C187.801 309.621 186.851 309.636 186.063 309.648C182.675 309.704 182.281 309.71 182.281 308.24C182.281 272.123 181.003 267.506 182.164 266.778C182.342 266.667 182.575 266.646 182.879 266.618C184.562 266.632 193.412 266.632 195.011 266.618C195.313 266.646 195.545 266.667 195.722 266.777C196.882 267.501 195.621 272.107 195.61 308.24C195.608 309.713 195.183 309.706 191.827 309.65ZM199.016 259.534C199.031 264.412 199.031 264.438 197.893 264.433H179.996C178.861 264.438 178.861 264.423 178.874 259.509C178.882 256.722 178.893 252.361 178.705 245.535C178.693 245.117 178.682 244.814 178.811 244.595C179.312 243.75 181.92 244.155 194.794 244.066C199.147 244.036 199.224 244.127 199.184 245.535C198.994 252.382 199.008 256.749 199.016 259.534ZM151.618 298.884C151.598 288.546 151.578 278.208 151.285 267.874C151.275 267.523 151.266 267.258 151.377 267.062C151.909 266.121 155.177 266.722 174.129 266.565C179.296 266.523 179.448 266.563 179.273 267.888C178.947 270.37 178.991 278.848 179.038 287.509C179.094 298.101 179.151 308.966 178.533 309.468C177.616 309.482 173.684 309.536 154.981 309.64C151.668 309.659 151.648 309.645 151.636 306.295C151.628 303.825 151.623 301.354 151.618 298.884ZM145.106 258.535C145.135 255.584 145.18 251.156 145.021 244.522C145.016 244.274 144.983 244.083 145.051 243.942C145.413 243.194 148.6 243.807 173.571 244.151C173.955 244.149 174.339 244.12 174.719 244.063C175.858 243.92 176.699 243.814 176.676 245.6C176.483 260.735 176.991 263.74 176.031 264.321C175.787 264.469 175.449 264.46 174.979 264.454C174.302 264.446 152.502 264.345 146.534 264.401C145.046 264.415 145.049 264.074 145.106 258.535Z" fill="#006AE7"/>
</svg>
