<svg width="25" height="24" viewBox="0 0 25 24" fill="none" xmlns="http://www.w3.org/2000/svg">
<g id="location_on">
<mask id="mask0_547_866" style="mask-type:alpha" maskUnits="userSpaceOnUse" x="0" y="0" width="25" height="24">
<rect id="Bounding box" x="0.699219" width="24" height="24" fill="#D9D9D9"/>
</mask>
<g mask="url(#mask0_547_866)">
<path id="location_on_2" d="M12.6992 12C13.2492 12 13.7201 11.8042 14.1117 11.4125C14.5034 11.0208 14.6992 10.55 14.6992 10C14.6992 9.45 14.5034 8.97917 14.1117 8.5875C13.7201 8.19583 13.2492 8 12.6992 8C12.1492 8 11.6784 8.19583 11.2867 8.5875C10.8951 8.97917 10.6992 9.45 10.6992 10C10.6992 10.55 10.8951 11.0208 11.2867 11.4125C11.6784 11.8042 12.1492 12 12.6992 12ZM12.6992 19.35C14.7326 17.4833 16.2409 15.7875 17.2242 14.2625C18.2076 12.7375 18.6992 11.3833 18.6992 10.2C18.6992 8.38333 18.1201 6.89583 16.9617 5.7375C15.8034 4.57917 14.3826 4 12.6992 4C11.0159 4 9.59505 4.57917 8.43672 5.7375C7.27839 6.89583 6.69922 8.38333 6.69922 10.2C6.69922 11.3833 7.19089 12.7375 8.17422 14.2625C9.15755 15.7875 10.6659 17.4833 12.6992 19.35ZM12.6992 22C10.0159 19.7167 8.01172 17.5958 6.68672 15.6375C5.36172 13.6792 4.69922 11.8667 4.69922 10.2C4.69922 7.7 5.50339 5.70833 7.11172 4.225C8.72005 2.74167 10.5826 2 12.6992 2C14.8159 2 16.6784 2.74167 18.2867 4.225C19.8951 5.70833 20.6992 7.7 20.6992 10.2C20.6992 11.8667 20.0367 13.6792 18.7117 15.6375C17.3867 17.5958 15.3826 19.7167 12.6992 22Z" fill="#006AE7"/>
</g>
</g>
</svg>
