<svg xmlns="http://www.w3.org/2000/svg" width="180" height="45" viewBox="0 0 180 45" fill="none">
  <path d="M160.73 29.2087L155.412 34.2192V42.2473H148.264V0H155.412V25.5078L170.222 11.8429H178.8L166.048 24.5968L180.001 42.2473H171.309L160.73 29.2087Z" fill="#0BB4FE"/>
  <path d="M131.145 42.6578C127.991 42.6578 125.16 41.9941 122.652 40.6667C120.144 39.3392 118.187 37.4998 116.781 35.1483C115.375 32.759 114.672 30.0662 114.672 27.07C114.672 24.0738 115.375 21.4 116.781 19.0485C118.187 16.6971 120.125 14.8576 122.595 13.5302C125.103 12.2028 127.953 11.5391 131.145 11.5391C134.148 11.5391 136.77 12.1459 139.012 13.3595C141.292 14.5732 143.002 16.3178 144.142 18.5934L138.67 21.7792C137.796 20.376 136.694 19.333 135.364 18.6503C134.072 17.9297 132.647 17.5694 131.088 17.5694C128.428 17.5694 126.224 18.4417 124.476 20.1863C122.728 21.893 121.854 24.1876 121.854 27.07C121.854 29.9524 122.709 32.2659 124.419 34.0105C126.167 35.7172 128.39 36.5706 131.088 36.5706C132.647 36.5706 134.072 36.2292 135.364 35.5466C136.694 34.826 137.796 33.764 138.67 32.3607L144.142 35.5466C142.964 37.8222 141.235 39.5858 138.955 40.8373C136.713 42.051 134.11 42.6578 131.145 42.6578Z" fill="#0BB4FE"/>
  <path fill-rule="evenodd" clip-rule="evenodd" d="M94.783 11.1289C103.488 11.1289 110.548 18.1616 110.548 26.842C110.548 35.5223 103.488 42.555 94.783 42.555C92.9845 42.555 91.2543 42.2544 89.6414 41.7001C89.6142 41.7018 89.5514 41.7077 89.4424 41.7322C89.2248 41.781 88.9332 41.8784 88.568 42.0258C87.9074 42.2924 87.1314 42.6704 86.3057 43.0725L86.2798 43.0852C86.1992 43.1244 86.1182 43.1638 86.0368 43.2034C85.1387 43.6401 84.1854 44.097 83.3753 44.3867C82.9721 44.5309 82.5518 44.6535 82.1596 44.7001C81.8068 44.7419 81.2477 44.7521 80.7731 44.4059C80.2579 44.0302 80.1333 43.4629 80.1116 43.0786C80.0893 42.683 80.1593 42.2622 80.2505 41.8795C80.4344 41.1076 80.783 40.1856 81.107 39.3381L81.1651 39.1861C81.4814 38.3596 81.7731 37.5972 81.9483 36.9656C82.0413 36.6306 82.0855 36.3861 82.094 36.2233C82.0951 36.2027 82.0956 36.1853 82.0956 36.1707C80.1615 33.5619 79.0176 30.3337 79.0176 26.842C79.0176 18.1616 86.0783 11.1289 94.783 11.1289ZM82.092 36.1115C82.092 36.1115 82.0922 36.1141 82.0932 36.1188C82.0926 36.1137 82.092 36.1115 82.092 36.1115ZM91.355 34.396C91.9227 34.9386 92.6835 35.2418 93.4752 35.241C94.2511 35.2197 94.9893 34.9073 95.5382 34.3678L105.809 24.2156L101.568 19.9907L93.4179 28.0305L89.2347 24.0873L84.9941 28.3967L91.355 34.396Z" fill="#0BB4FE"/>
  <path d="M67.8906 0H74.8975V42.2473H67.8906V0Z" fill="#0BB4FE"/>
  <path d="M51.1003 11.5391C54.9255 11.5391 57.9932 12.6574 60.3035 14.894C62.6138 17.1307 63.769 20.4478 63.769 24.8452V42.2456H56.6677V25.7551C56.6677 23.1014 56.0427 21.1112 54.7929 19.7843C53.5431 18.4196 51.763 17.7372 49.4528 17.7372C46.8395 17.7372 44.7754 18.5333 43.2604 20.1255C41.7455 21.6798 40.988 23.9354 40.988 26.8923V42.2456H33.8867V11.8802H40.6471V15.8039C41.8212 14.4012 43.2983 13.3398 45.0784 12.6195C46.8584 11.8992 48.8657 11.5391 51.1003 11.5391Z" fill="#0BB4FE"/>
  <path d="M29.6762 11.7461V42.2588H22.8979V38.3733C21.7587 39.7446 20.3347 40.8112 18.6259 41.5731C16.9171 42.2969 15.0754 42.6587 13.1008 42.6587C9.03765 42.6587 5.8289 41.535 3.47456 39.2875C1.15819 37.0019 0 33.6307 0 29.1737V11.7461H7.12V28.2024C7.12 30.9451 7.72757 33.0021 8.94272 34.3735C10.1958 35.7067 11.9616 36.3734 14.24 36.3734C16.7842 36.3734 18.7968 35.5925 20.2778 34.0306C21.7967 32.4307 22.5562 30.1451 22.5562 27.1739V11.7461H29.6762Z" fill="#0BB4FE"/>
</svg>